<?xml version="1.0" encoding="UTF-8" standalone="no"?>
<!DOCTYPE svg  PUBLIC '-//W3C//DTD SVG 1.1//EN'  'http://www.w3.org/Graphics/SVG/1.1/DTD/svg11.dtd'>
<svg xmlns="http://www.w3.org/2000/svg">
<defs>
<font id="GatsbyFLF-Regular" horiz-adv-x="345">
<font-face underline-position="-125" font-weight="500" descent="-200" panose-1="2 0 6 6 2 0 0 2 0 3" units-per-em="1000" unicode-range="U+0020-E002" bbox="-39 -332 851 755" x-height="325" underline-thickness="10" font-family="GatsbyFLF" ascent="800" cap-height="595"/>
<missing-glyph horiz-adv-x="1000"/>
<glyph glyph-name=".notdef" horiz-adv-x="1000"/>
<glyph glyph-name=".null" horiz-adv-x="0"/>
<glyph glyph-name="nonmarkingreturn" horiz-adv-x="0" unicode=""/>
<glyph glyph-name="space" horiz-adv-x="280" unicode=" "/>
<glyph glyph-name="exclam" horiz-adv-x="90" unicode="!" d="M58 22q0 -8 -2 -16t-10 -7q-8 -1 -10 7t-2 16q0 7 2 14t10 7t10 -7t2 -14zM40 90v505h12v-505h-12z"/>
<glyph glyph-name="quotedbl" horiz-adv-x="123" unicode='&quot;' d="M88 609v-122q0 -1 -5 -1q-1 0 -2 -1q-3 0 -3 2v122h10zM49 609v-122q0 -1 -5 -1q-1 0 -2 -1q-3 0 -3 2v122h10z"/>
<glyph glyph-name="numbersign" horiz-adv-x="310" unicode="#" d="M138 413l-13 -56h60l13 56h-60zM154 485l-14 -62h60l14 62h10l-14 -62h60l-2 -10h-60l-13 -56h62l-2 -10h-62l-15 -62h-10l15 62h-60l-15 -62h-10l14 62h-60l2 10h61l13 56h-66l2 10h66l14 62h10z"/>
<glyph glyph-name="dollar" horiz-adv-x="390" unicode="$" d="M359 157q-1 31 -11 55t-27 44q-17 18 -41 34t-48 31v-319q24 2 47 12t41 28t28 47q10 28 11 68zM200 0h11q6 0 11 1v324q-14 9 -27 15t-24 11v-349q6 -2 13 -2h16zM71 476q-1 -23 9 -41q10 -17 24 -31t28 -23q16 -9 29 -15v221q-17 -4 -33 -12q-16 -7 -28 -21t-21 -33 q-8 -19 -8 -45zM199 591h-14t-14 -2v-227q11 -6 25 -12t26 -13v253q-5 1 -11 1h-12zM335 505l-8 -4q-15 42 -41 61t-54 26v-255q28 -15 52 -32t44 -37q19 -20 30 -47q11 -26 11 -60q0 -42 -12 -72q-11 -29 -31 -49t-44 -30t-50 -14v-45h-10v44q-5 -1 -11 -1h-11h-16 q-7 0 -13 2v-45h-10v47q-32 6 -56 18t-41 30q-16 18 -26 40t-13 44l10 3q5 -42 35 -77t91 -48v352q-15 6 -33 16t-33 26q-15 14 -25 34t-9 44q1 28 9 48t22 35t32 24t37 13v36h10v-34q7 2 14 2h14h12t11 -1v33h10v-35q34 -8 61 -29t42 -63z"/>
<glyph glyph-name="percent" horiz-adv-x="568" unicode="%" d="M533 144q1 28 -9 53t-28 43t-41 30q-24 10 -52 10q-29 0 -53 -10t-40 -30q-18 -18 -28 -43t-9 -53q-1 -30 9 -54t28 -42t40 -28q24 -10 53 -11q28 1 52 11q23 10 41 28t28 42t9 54zM543 144q0 -32 -10 -58q-11 -26 -29 -46t-44 -30q-26 -11 -57 -11t-57 11q-26 10 -44 30 t-29 46q-10 26 -10 58q0 31 10 58q11 26 29 46t44 31t57 11t57 -11t44 -31t29 -46q10 -27 10 -58zM114 134l378 377l7 -7l-377 -377zM304 453q0 28 -10 53q-10 26 -26 44q-18 18 -42 28t-52 11q-28 -1 -52 -11t-42 -28t-26 -44q-10 -25 -10 -53q0 -29 10 -53t26 -43 q18 -19 42 -29t52 -10t52 10t42 29t26 43q10 24 10 53zM314 453q0 -31 -10 -57t-28 -46t-45 -31q-26 -11 -57 -11t-57 11q-27 11 -45 31t-28 46t-10 57t10 58t28 47t45 30q26 11 57 11t57 -11q27 -10 45 -30t28 -47t10 -58z"/>
<glyph glyph-name="ampersand" horiz-adv-x="476" unicode="&amp;" d="M249 208l205 90l5 -9l-72 -33q16 -31 16 -71q-1 -33 -13 -67t-36 -62t-60 -44q-36 -17 -82 -17q-46 1 -82 17t-60 42t-36 61q-12 34 -13 70q0 31 9 61t28 54q19 26 47 44t66 27v1q-41 15 -59 45t-19 63q0 22 8 44q7 22 23 38t38 28q22 10 50 10q40 0 66 -20t38 -43l-9 -5 q-10 22 -35 40t-60 18q-22 0 -42 -8t-34 -24q-16 -14 -24 -34t-8 -42q0 -42 26 -71t69 -37v-10q-35 -4 -65 -18t-52 -38t-36 -54q-13 -32 -13 -68q-1 -38 13 -71t38 -57t56 -39q33 -14 72 -14q41 -1 74 15q32 16 56 42t37 58t13 66q0 33 -14 66l-125 -55z"/>
<glyph glyph-name="quotesingle" horiz-adv-x="90" unicode="&apos;" d="M49 609v-122q0 -1 -5 -1q-1 0 -2 -1q-3 0 -3 2v122h10z"/>
<glyph glyph-name="parenleft" horiz-adv-x="280" unicode="(" d="M31 272q-1 62 13 124t41 112q27 52 69 88t99 47v-10q-53 -11 -93 -47t-66 -85t-40 -109t-13 -120q0 -60 14 -118t41 -107q26 -49 66 -86t92 -55v-10q-54 17 -96 55q-42 39 -70 89t-42 110t-15 122z"/>
<glyph glyph-name="parenright" horiz-adv-x="280" unicode=")" d="M265 267q1 -61 -13 -123t-41 -113t-69 -87t-99 -48v10q53 10 93 46t66 86t40 110t13 119q0 60 -14 118t-41 107q-26 49 -66 86t-92 55v10q54 -17 96 -55t70 -88t42 -111q14 -60 15 -122z"/>
<glyph glyph-name="asterisk" horiz-adv-x="192" unicode="*" d="M25 541q0 7 8 7q11 0 29 -14t31 -25q-3 15 -5 28t-2 24t2 17t8 7q6 -1 8 -7t2 -17t-2 -24t-5 -28q6 5 14 11t16 13t16 11t14 4q8 0 8 -7q1 -5 -7 -11t-18 -11t-22 -9q-11 -4 -18 -6q7 -2 18 -6q12 -4 22 -9t18 -11t7 -11q0 -7 -8 -7q-6 0 -14 4q-9 4 -17 11t-16 13 t-13 11q3 -13 5 -27t2 -25t-2 -17t-8 -7q-6 1 -8 7t-2 17t2 25t5 27q-5 -5 -13 -11l-16 -12t-18 -12q-8 -4 -13 -4q-8 0 -8 7q0 5 8 11q9 6 19 11t21 9t17 6q-7 2 -18 6q-12 4 -22 9t-18 11t-7 11z"/>
<glyph glyph-name="plus" horiz-adv-x="280" unicode="+" d="M139 340h10v-100h100v-10h-100v-100h-10v100h-100v10h100v100z"/>
<glyph glyph-name="comma" horiz-adv-x="90" unicode="," d="M76 30l-72 -99l-10 7l73 99z"/>
<glyph glyph-name="hyphen" horiz-adv-x="280" unicode="-" d="M249 230h-210v10h210v-10z"/>
<glyph glyph-name="period" horiz-adv-x="90" unicode="." d="M58 22q0 -8 -2 -16t-10 -7q-8 -1 -10 7t-2 16q0 7 2 14t10 7t10 -7t2 -14z"/>
<glyph glyph-name="slash" horiz-adv-x="170" unicode="/" d="M-10 -70l175 700l10 -2l-175 -700z"/>
<glyph glyph-name="zero" horiz-adv-x="651" unicode="0" d="M31 299q-1 -62 23 -116t64 -94q40 -39 94 -63t116 -24t116 24t94 63q40 40 64 94t23 116q1 61 -23 115t-64 95q-40 39 -94 63t-116 24t-116 -24t-94 -63q-40 -41 -64 -95t-23 -115zM635 299q0 -64 -24 -120q-23 -55 -65 -97t-98 -66t-120 -24t-120 24t-98 66t-65 97 q-24 56 -24 120t24 120q23 55 65 97t98 66t120 24t120 -24t98 -66t65 -97q24 -56 24 -120z"/>
<glyph glyph-name="one" horiz-adv-x="173" unicode="1" d="M120 0v565l-84 -84h-18l114 114v-595h-12z"/>
<glyph glyph-name="two" horiz-adv-x="360" unicode="2" d="M37 543q25 27 57 41t74 15q30 0 58 -11t49 -30t33 -46t12 -58q0 -69 -52 -139l-228 -305h289v-10h-310l242 323q23 31 35 65t13 65q1 30 -11 55t-31 43t-45 28t-54 10q-72 0 -124 -54z"/>
<glyph glyph-name="three" d="M262 595l-121 -121q35 -6 69 -24t60 -46t44 -68q16 -38 16 -86q0 -55 -25 -101t-67 -79q-42 -34 -94 -52q-53 -18 -109 -18v10q52 0 103 18q52 18 92 48q40 32 65 76t25 98q0 46 -16 83t-42 65q-27 28 -63 46t-77 25l115 116h-197v10h222z" unicode="3"/>
<glyph glyph-name="four" horiz-adv-x="380" unicode="4" d="M300 185v200h10v-200h50v-10h-50v-175h-10v175h-285l230 420h10l-223 -410h268z"/>
<glyph glyph-name="five" horiz-adv-x="340" unicode="5" d="M250 586h-190l-16 -101q53 0 104 -11q52 -11 92 -38q40 -26 65 -72t25 -114q0 -55 -24 -101t-64 -79q-40 -34 -94 -52t-113 -18v10q55 0 107 18t92 50t62 76q24 44 24 96q0 64 -24 108t-64 70t-92 36t-108 11l20 120h198v-9z"/>
<glyph glyph-name="six" horiz-adv-x="515" unicode="6" d="M23 237q1 -48 19 -91q18 -42 50 -74t74 -50q43 -18 91 -19q48 1 91 19q42 18 74 50t50 74q18 43 19 91q-1 48 -19 91q-18 42 -50 74t-74 50q-43 18 -91 19q-48 -1 -91 -19q-42 -18 -74 -50t-50 -74q-18 -43 -19 -91zM257 481q51 0 95 -19t78 -52q33 -34 52 -78t19 -95 t-19 -95t-52 -78q-34 -33 -78 -52t-95 -19t-95 19t-78 52q-33 34 -52 78t-19 95q0 61 20 119q19 58 55 104q36 48 84 84t107 55l3 -9q-50 -18 -88 -44t-68 -58t-50 -66t-32 -65q32 56 88 90t125 34z"/>
<glyph glyph-name="seven" horiz-adv-x="335" unicode="7" d="M325 595l-235 -595h-11l231 585h-295v10h310z"/>
<glyph glyph-name="eight" horiz-adv-x="426" unicode="8" d="M104 482q0 -22 8 -42t24 -34q14 -14 34 -24q20 -8 42 -8t42 8t34 24q14 14 24 34q8 20 8 42t-8 42t-24 34q-14 14 -34 24q-20 8 -42 8t-42 -8t-34 -24q-14 -14 -24 -34q-8 -20 -8 -42zM32 185q0 -37 14 -70t38 -57t58 -39q33 -14 70 -14t70 14q34 15 58 39t38 57t14 70 t-14 70t-38 57t-58 39q-33 14 -70 14t-70 -14q-34 -15 -58 -39t-38 -57t-14 -70zM94 482q0 24 10 46t25 37t37 25t46 10t46 -10t37 -25t25 -37t10 -46q0 -38 -22 -68t-55 -43q31 -7 59 -24t48 -42t31 -55t11 -65q0 -39 -15 -74t-41 -61t-60 -40q-35 -15 -74 -15t-74 15 q-34 14 -60 40t-41 61t-15 74q0 35 12 65t31 55t47 42t60 24q-34 13 -56 43t-22 68z"/>
<glyph glyph-name="nine" horiz-adv-x="392" unicode="9" d="M18 394q0 -37 14 -70q14 -34 38 -58t58 -38q33 -14 70 -14t70 14q34 14 58 38t38 58q14 33 14 70t-14 70q-14 34 -38 58t-58 38q-33 14 -70 14t-70 -14q-34 -14 -58 -38t-38 -58q-14 -33 -14 -70zM198 204q-39 0 -74 15q-34 15 -60 41t-41 60q-15 35 -15 74t15 74 q15 34 41 60t60 41q35 15 74 15t74 -15q34 -15 60 -41t41 -60q15 -35 15 -74v-13q-2 -59 -22 -115t-50 -104t-68 -90t-75 -72l-1 -1q-2 0 -4 3q-3 4 -1 6q53 46 89 92t60 87t36 74t18 52q-22 -49 -68 -79t-104 -30z"/>
<glyph glyph-name="colon" horiz-adv-x="90" unicode=":" d="M58 22q0 -8 -2 -16t-10 -7q-8 -1 -10 7t-2 16q0 7 2 14t10 7t10 -7t2 -14zM58 292q0 -8 -2 -16t-10 -7q-8 -1 -10 7t-2 16q0 7 2 14t10 7t10 -7t2 -14z"/>
<glyph glyph-name="semicolon" horiz-adv-x="90" unicode=";" d="M76 30l-72 -99l-10 7l73 99zM57 292q-1 -8 -3 -16t-9 -7q-7 -1 -9 7t-3 16q1 7 3 14t9 7t9 -7t3 -14z"/>
<glyph glyph-name="less" horiz-adv-x="155" unicode="&lt;" d="M40 235l75 -150h-10l-75 150l75 150h10z"/>
<glyph glyph-name="equal" horiz-adv-x="315" unicode="=" d="M269 280h-210v10h210v-10zM269 170h-210v10h210v-10z"/>
<glyph glyph-name="greater" horiz-adv-x="155" unicode="&gt;" d="M118 235l-75 -150h-10l75 150l-75 150h10z"/>
<glyph glyph-name="question" horiz-adv-x="268" unicode="?" d="M58 22q0 -8 -2 -16t-10 -7q-8 -1 -10 7t-2 16q0 7 2 14t10 7t10 -7t2 -14zM241 367q-1 37 -13 73t-36 66t-62 51t-87 29v10q51 -8 91 -30t66 -53t40 -69q13 -38 13 -76q-1 -38 -13 -75t-37 -69t-63 -54q-38 -24 -88 -35v-45h-10v54q50 10 88 32t62 52t36 66t13 73z"/>
<glyph glyph-name="at" horiz-adv-x="390" unicode="@" d="M55 346q0 -26 9 -50q8 -24 26 -44q18 -19 44 -31t62 -12q29 1 56 11t39 23l6 -9q-13 -14 -40 -24t-62 -11q-39 1 -67 13t-47 32t-29 48q-10 26 -9 54t11 56t30 49q20 22 49 35t67 13q32 1 60 -11t48 -32t30 -45q11 -26 11 -54q1 -15 -3 -31t-12 -29t-20 -21t-28 -9t-26 9 t-10 38q-6 -17 -22 -32t-47 -15q-34 -1 -51 21t-17 50q1 16 5 30t14 26t25 18q15 7 35 7q27 0 42 -14t20 -32l3 43h10l-7 -94q0 -17 4 -31t24 -14q12 0 22 8t16 20q6 13 10 27q3 14 3 27q0 23 -10 47t-28 42t-44 30q-26 11 -57 11q-36 0 -63 -12q-27 -13 -45 -33t-28 -46 q-9 -26 -9 -52zM123 338q1 -23 15 -42t43 -19q34 0 50 22t16 48q1 23 -13 43t-42 19q-35 -1 -52 -23t-17 -48z"/>
<glyph glyph-name="A" horiz-adv-x="445" unicode="A" d="M224 587l-149 -441h298zM26 0h-11l46 136h-31v10h34l160 474l210 -620h-11l-47 136h-304z"/>
<glyph glyph-name="B" horiz-adv-x="300" unicode="B" d="M57 457q35 0 58 17t23 46q0 36 -24 50t-57 14v-127zM57 9q37 1 75 15t68 41t48 67t18 92q0 56 -19 97t-49 67t-68 40q-38 12 -73 12v-431zM67 449q34 0 71 -13t68 -40q30 -28 50 -70t20 -102q0 -57 -19 -99q-19 -43 -51 -71t-72 -42q-42 -14 -87 -14v597q47 0 74 -17 t27 -58q0 -20 -8 -34t-22 -22q-12 -8 -26 -12t-25 -3z"/>
<glyph glyph-name="C" horiz-adv-x="294" unicode="C" d="M39 303q1 55 17 105t46 90t74 66q42 26 94 32v-10q-52 -6 -92 -32t-68 -64t-44 -87q-15 -48 -15 -100q0 -53 16 -103q17 -50 45 -88q28 -40 68 -66t90 -36v-9q-52 7 -94 35t-74 68q-30 40 -46 92q-16 51 -17 107z"/>
<glyph glyph-name="D" horiz-adv-x="347" unicode="D" d="M315 298q1 76 -23 129t-62 87t-84 50t-91 22v-576q45 4 91 21t84 51t62 86t23 130zM45 596q43 -3 93 -18q50 -16 92 -50t68 -90q27 -56 27 -140t-27 -140q-26 -56 -68 -90t-92 -50q-50 -15 -93 -18v596z"/>
<glyph glyph-name="E" horiz-adv-x="305" unicode="E" d="M271 487v-10h-208v-263q-1 -94 53 -151t155 -57v-10q-108 0 -163 59t-55 155v267h-19v10h19v108h218v-10h-208v-98h208z"/>
<glyph glyph-name="F" horiz-adv-x="284" unicode="F" d="M249 487v-10h-186v-477h-10v477h-19v10h19v108h196v-10h-186v-98h186z"/>
<glyph glyph-name="G" horiz-adv-x="351" unicode="G" d="M175 486v10h138v-496q-45 6 -95 24t-90 55q-41 35 -68 91t-27 137t29 135q30 54 72 90q42 34 90 50t89 22v-10q-37 -4 -83 -20t-88 -49t-70 -86t-29 -132q1 -79 27 -133t66 -88t84 -50q45 -17 83 -23v473h-128z"/>
<glyph glyph-name="H" horiz-adv-x="429" unicode="H" d="M65 487h309v108h10v-595h-10v477h-309v-477h-10v477h-19v10h19v108h10v-108z"/>
<glyph glyph-name="I" horiz-adv-x="115" unicode="I" d="M53 0v595h10v-595h-10z"/>
<glyph glyph-name="J" horiz-adv-x="282" unicode="J" d="M16 -4v10q40 0 79 14t70 43q31 27 50 67t19 90v375h10v-379q0 -52 -19 -92t-51 -70q-32 -28 -73 -43t-85 -15z"/>
<glyph glyph-name="K" horiz-adv-x="358" unicode="K" d="M63 491l199 104h20l-132 -68l198 -527h-10l-196 523l-79 -42v-481h-10v595h10v-104z"/>
<glyph glyph-name="L" horiz-adv-x="301" unicode="L" d="M63 10h214v-10h-224v595h10v-585z"/>
<glyph glyph-name="M" horiz-adv-x="560" unicode="M" d="M170 602l110 -132l110 132l157 -602h-10l-151 582l-106 -126l-105 125l-152 -581h-9z"/>
<glyph glyph-name="N" horiz-adv-x="427" unicode="N" d="M45 0v595q93 -7 173 -35t160 -84v119h10v-595h-10v462q-39 28 -77 48t-77 35q-39 14 -81 23t-88 13v-581h-10z"/>
<glyph glyph-name="O" horiz-adv-x="672" unicode="O" d="M39 299q-1 -62 23 -116t64 -94q40 -39 94 -63t116 -24t116 24t94 63q40 40 64 94t23 116q1 61 -23 115t-64 95q-40 39 -94 63t-116 24t-116 -24t-94 -63q-40 -41 -64 -95t-23 -115zM643 299q0 -64 -24 -120q-23 -55 -65 -97t-98 -66t-120 -24t-120 24t-98 66t-65 97 q-24 56 -24 120t24 120q23 55 65 97t98 66t120 24t120 -24t98 -66t65 -97q24 -56 24 -120z"/>
<glyph glyph-name="P" horiz-adv-x="298" unicode="P" d="M257 390q-1 46 -17 82t-43 62q-27 25 -61 38t-71 13v-391q37 0 71 14t61 38q27 26 43 62t17 82zM55 0v595q45 0 83 -14t67 -40t45 -64t17 -87q0 -49 -16 -87q-16 -39 -44 -65q-29 -26 -65 -40t-77 -14v-184h-10z"/>
<glyph glyph-name="Q" horiz-adv-x="670" unicode="Q" d="M633 299q1 61 -23 115t-64 95q-40 39 -94 63t-116 24t-116 -24t-94 -63q-40 -41 -64 -95t-23 -115q-1 -62 23 -116t64 -94q40 -39 94 -63t116 -24q42 0 82 12t73 32l-105 142l8 6l106 -143q60 40 96 105t37 143zM602 -87l-8 -6l-97 131q-35 -22 -75 -34t-86 -12 q-64 0 -120 24t-98 66t-65 97q-24 56 -24 120t24 120q23 55 65 97t98 66t120 24t120 -24t98 -66t65 -97q24 -56 24 -120q1 -81 -37 -147t-101 -109z"/>
<glyph glyph-name="R" horiz-adv-x="286" unicode="R" d="M247 388q1 49 -17 86t-45 62q-27 26 -59 38t-63 12v-390q36 0 69 13q32 13 58 37t42 61q16 36 15 81zM53 0v596q37 0 73 -13t66 -39q29 -26 47 -65t18 -91q-1 -48 -17 -86t-42 -63t-60 -39q-33 -14 -67 -14q13 -32 33 -58t44 -50q24 -22 49 -40q26 -18 52 -33v-11 q-59 32 -109 77t-77 111v-182h-10z"/>
<glyph glyph-name="S" horiz-adv-x="282" unicode="S" d="M147 327q23 -14 43 -28q20 -13 35 -31t23 -42t9 -56q0 -46 -22 -80q-21 -34 -55 -56t-74 -33t-73 -11v10q31 0 69 10t70 32q32 21 54 53t21 75q-1 32 -9 54t-22 39t-33 30t-41 26q-19 12 -37 23q-19 12 -33 26t-22 34t-9 49q1 43 17 72t40 47t49 26q26 8 46 7v-10 q-17 0 -41 -7q-24 -8 -48 -24q-22 -16 -38 -43t-15 -68q0 -27 8 -45q7 -18 21 -32t32 -25t35 -22z"/>
<glyph glyph-name="T" horiz-adv-x="292" unicode="T" d="M258 595v-10h-105v-585h-10v585h-105v10h220z"/>
<glyph glyph-name="U" horiz-adv-x="368" unicode="U" d="M52 595v-440q0 -34 7 -62q7 -29 23 -49t41 -31t61 -11t61 11t41 31t23 49q7 28 7 62v440h10v-440q0 -75 -32 -119t-110 -45q-78 1 -110 45t-32 119v440h10z"/>
<glyph glyph-name="V" horiz-adv-x="276" unicode="V" d="M139 25l113 570h11l-124 -621l-124 621h11z"/>
<glyph glyph-name="W" horiz-adv-x="524" unicode="W" d="M142 25l120 511l119 -514l114 573h11l-124 -621l-120 518l-121 -517l-123 620h11z"/>
<glyph glyph-name="X" horiz-adv-x="336" unicode="X" d="M170 342l114 253h12l-121 -264l150 -331h-10l-145 319l-146 -319h-10l150 331l-121 264h12z"/>
<glyph glyph-name="Y" horiz-adv-x="342" unicode="Y" d="M174 470l142 125h14l-151 -133v-462h-10v462l-152 133h14z"/>
<glyph glyph-name="Z" horiz-adv-x="335" unicode="Z" d="M300 595l-261 -585h271v-10h-286l262 585h-236v10h250z"/>
<glyph glyph-name="bracketleft" horiz-adv-x="104" unicode="[" d="M93 -85v-10h-60v724h60v-10h-50v-704h50z"/>
<glyph glyph-name="backslash" horiz-adv-x="170" unicode="\" d="M5 630l175 -700l-10 -2l-175 700z"/>
<glyph glyph-name="bracketright" horiz-adv-x="115" unicode="]" d="M24 619v10h60v-724h-60v10h50v704h-50z"/>
<glyph glyph-name="asciicircum" horiz-adv-x="250" unicode="^" d="M125 466l-92 -82l-6 7l98 89l100 -90l-6 -7z"/>
<glyph glyph-name="underscore" horiz-adv-x="260" unicode="_" d="M0 -18h268v-10h-268v10z"/>
<glyph glyph-name="grave" horiz-adv-x="180" unicode="`" d="M45 479q-8 4 -8 11q0 9 9 9q7 0 13 -10q3 -5 13 -17t24 -26t26 -28t20 -21q2 -2 2 -5t-3 -3t-5 2q-8 7 -21 21t-27 28t-26 25t-17 14z"/>
<glyph glyph-name="a" horiz-adv-x="338" unicode="a" d="M46 121q0 -49 34 -83t89 -34q57 0 89 34t32 83q0 52 -33 85t-88 33q-29 0 -51 -9t-39 -25q-17 -15 -25 -37t-8 -47zM101 300q17 14 39 22t56 8q48 0 75 -24t27 -61v-245h-10v63q-10 -25 -40 -47t-79 -22q-31 0 -55 10t-42 27t-26 40q-10 23 -10 50t9 51t27 40 q18 17 42 27t55 10q49 0 78 -22t41 -48v62q0 37 -24 58t-68 21q-61 0 -89 -28z"/>
<glyph glyph-name="b" horiz-adv-x="410" unicode="b" d="M376 162q0 33 -11 62t-31 51q-20 23 -51 35q-30 12 -67 12q-38 0 -68 -12t-50 -35q-20 -22 -31 -51t-11 -62t11 -62q11 -28 32 -50t51 -34t66 -13q36 1 66 13t51 34t32 50q11 29 11 62zM216 332q40 0 72 -14t53 -36q21 -23 33 -54t12 -66q0 -36 -12 -66t-33 -53t-53 -37 t-72 -13q-40 0 -68 12q-28 13 -47 29t-29 34t-15 30v-98h-10v629h10v-403q4 14 15 32t30 34t47 28t67 12z"/>
<glyph glyph-name="c" horiz-adv-x="197" unicode="c" d="M165 318q-57 -10 -89 -54t-32 -101q0 -58 32 -101t89 -55v-10q-31 6 -55 21t-41 37q-17 21 -26 49t-9 59t10 59t26 48q17 22 41 37t54 21v-10z"/>
<glyph glyph-name="d" horiz-adv-x="424" unicode="d" d="M211 322q-37 0 -67 -12t-50 -35q-20 -22 -32 -51q-11 -29 -11 -62t11 -62q11 -28 32 -50q20 -22 50 -34t67 -13q37 1 67 13t50 34q21 22 32 50q11 29 11 62t-11 62q-12 29 -32 51q-20 23 -50 35t-67 12zM380 629v-629h-10v98q-6 -12 -16 -30t-28 -34t-47 -29 q-28 -12 -68 -12q-39 -1 -71 13t-54 37t-34 53t-11 66q-1 35 11 66t34 54q22 22 54 36t71 14t67 -12t47 -28t29 -35q10 -18 16 -31v403h10z"/>
<glyph glyph-name="e" horiz-adv-x="290" unicode="e" d="M265 307q-14 7 -33 11t-42 4q-35 0 -64 -12t-50 -33t-33 -49t-12 -62q1 -6 1 -13v-7zM21 166q0 36 13 66q14 30 36 52t53 36q31 12 67 12q55 0 94 -24l-251 -173q3 -42 35 -80t88 -49l-3 -10q-69 16 -101 62t-31 108z"/>
<glyph glyph-name="f" horiz-adv-x="213" unicode="f" d="M51 315v10h25v210q0 44 20 69t72 25v-10q-46 0 -64 -22t-18 -62v-210h80v-10h-80v-315h-10v315h-25z"/>
<glyph glyph-name="g" horiz-adv-x="370" unicode="g" d="M52 177q0 -27 9 -53t27 -45t42 -30q25 -11 57 -11t57 11q24 11 42 30t27 45t9 53t-10 53t-26 45t-42 30t-57 11q-32 0 -57 -11t-42 -30q-16 -19 -26 -45t-10 -53zM331 315h-91q42 -14 67 -52t25 -86q0 -55 -30 -95t-88 -49q31 -4 57 -19q26 -16 45 -38q20 -22 30 -51 t10 -61q0 -36 -12 -68t-36 -55q-23 -23 -56 -37t-74 -13q-27 0 -51 9q-24 8 -43 22q-18 14 -32 30t-20 32l9 6q7 -15 19 -31t30 -29t40 -21t48 -8q40 1 71 13t53 34t32 52q12 30 12 64q0 33 -12 63t-32 52t-50 35t-66 13q-24 0 -42 -5t-32 -13q-14 -7 -26 -17t-22 -20l-6 8 q20 23 48 37t54 16q-27 4 -49 17t-37 32q-16 20 -24 44t-8 51q0 31 10 58t30 47q18 20 46 32t62 11h141v-10z"/>
<glyph glyph-name="h" horiz-adv-x="341" unicode="h" d="M179 331q57 0 90 -26t33 -83v-222h-10v220q0 55 -30 78t-83 23q-54 1 -83 -29t-34 -69v-223h-10v629h10v-371q3 10 12 23t23 24q15 11 35 19t47 7z"/>
<glyph glyph-name="i" horiz-adv-x="133" unicode="i" d="M61 0v325h10v-325h-10zM74 402q0 -6 -2 -14t-6 -8t-6 8t-2 14t2 14t6 8t6 -8t2 -14z"/>
<glyph glyph-name="j" horiz-adv-x="147" unicode="j" d="M0 -329v10q46 0 64 21t18 63v560h10v-560q0 -47 -20 -69t-72 -25zM95 402q1 -6 -1 -14t-7 -8t-7 8t-1 14q-1 6 1 14t7 8t7 -8t1 -14z"/>
<glyph glyph-name="k" horiz-adv-x="272" unicode="k" d="M219 326h13l-165 -200q20 -24 48 -50t63 -48q34 -22 76 -39t89 -24v-10q-49 7 -91 24t-78 39t-64 48t-47 50v-116h-10v629h10v-493z"/>
<glyph glyph-name="l" horiz-adv-x="130" unicode="l" d="M61 0v629h10v-629h-10z"/>
<glyph glyph-name="m" horiz-adv-x="578" unicode="m" d="M535 222v-222h-10v220q0 55 -29 78t-84 23q-50 -1 -84 -27t-33 -71v-223h-10v220q-1 45 -29 73t-83 28q-54 1 -83 -29t-34 -69v-223h-10v325h10v-67q3 12 12 24t23 23q15 11 35 19t47 7q29 1 50 -7t35 -20t22 -24q8 -13 10 -25q4 13 14 27t24 24q15 11 36 18t48 7 q58 0 90 -26t33 -83z"/>
<glyph glyph-name="n" horiz-adv-x="348" unicode="n" d="M179 331q59 0 91 -26t32 -83v-222h-10v220q0 55 -29 78t-84 23q-54 1 -83 -29t-34 -69v-223h-10v325h10v-67q3 12 12 24t23 23q15 11 35 19t47 7z"/>
<glyph glyph-name="o" horiz-adv-x="399" unicode="o" d="M40 162q0 -34 12 -64t33 -51t51 -33t64 -11q34 -1 64 11t51 33t33 51t12 64t-12 64t-33 51t-51 33t-64 12t-64 -12t-51 -33t-33 -51t-12 -64zM370 162q0 -37 -12 -68q-12 -32 -36 -54q-22 -22 -54 -34t-68 -13q-36 1 -68 13t-54 34t-36 54q-12 31 -12 68q0 36 12 68 t36 54q22 22 54 36q32 12 68 12t68 -12t54 -36q22 -22 36 -54q12 -32 12 -68z"/>
<glyph glyph-name="p" horiz-adv-x="417" unicode="p" d="M222 2q37 0 67 12q31 12 51 35q20 22 31 51t11 62t-11 62q-11 28 -32 50t-51 34t-66 13q-36 -1 -66 -13t-51 -34t-32 -50q-11 -29 -11 -62t11 -62t31 -51q20 -23 50 -35t68 -12zM53 -304v629h10v-99q5 12 15 30t29 34t47 29q28 12 68 12q40 1 72 -13t53 -37t33 -54 t12 -65q0 -35 -12 -66t-33 -54q-21 -22 -53 -36t-72 -14q-39 0 -67 12t-47 28t-30 35q-11 18 -15 31v-402h-10z"/>
<glyph glyph-name="q" horiz-adv-x="424" unicode="q" d="M50 162q0 -33 11 -62t31 -51q20 -23 50 -35t68 -12t68 12t50 35q20 22 31 51t11 62t-11 62q-11 28 -32 50t-51 34t-66 13q-36 -1 -66 -13t-51 -34t-32 -50q-11 -29 -11 -62zM210 -8q-40 0 -72 14t-53 36q-21 23 -33 54t-12 66q0 34 12 65t33 54t53 37t72 13q40 0 68 -12 q28 -13 46 -29t30 -34q10 -18 15 -30v99h10v-629h-10v402q-5 -13 -15 -31q-10 -19 -30 -35q-19 -16 -47 -28t-67 -12z"/>
<glyph glyph-name="r" horiz-adv-x="216" unicode="r" d="M186 315q-35 0 -58 -11t-36 -25q-13 -15 -18 -29t-5 -20v-228h-10v323h10v-62q11 23 39 43t78 19v-10z"/>
<glyph glyph-name="s" horiz-adv-x="189" unicode="s" d="M106 179q19 -17 36 -35t17 -51q1 -23 -9 -41t-26 -30t-38 -20q-21 -8 -44 -11v10q44 7 76 29t31 63q0 26 -14 44t-34 35q-19 16 -37 32t-18 43q0 21 7 35t17 24t24 14t28 6v-10q-12 -2 -24 -6t-21 -11q-9 -9 -15 -21t-6 -31q0 -23 16 -37t34 -31z"/>
<glyph glyph-name="t" horiz-adv-x="200" unicode="t" d="M75 447v-122h80v-10h-80v-225q0 -42 18 -63t64 -21v-10q-51 0 -71 24t-21 70v225h-25v10h25v122h10z"/>
<glyph glyph-name="u" horiz-adv-x="348" unicode="u" d="M54 325h10v-221q0 -56 32 -80t79 -23q23 -1 43 5t36 18t24 32t8 48v221h10v-221q0 -60 -34 -86t-87 -27q-53 1 -87 27t-34 86v221z"/>
<glyph glyph-name="v" horiz-adv-x="282" unicode="v" d="M32 325l111 -315l112 315h10l-122 -345l-122 345h11z"/>
<glyph glyph-name="w" horiz-adv-x="432" unicode="w" d="M137 -20l-121 345h11l110 -315l80 220l80 -220l111 315h11l-122 -345l-80 220z"/>
<glyph glyph-name="x" horiz-adv-x="306" unicode="x" d="M154 180l113 145h12l-119 -153l136 -172h-14l-129 165l-129 -165h-13l135 173l-117 152h12z"/>
<glyph glyph-name="y" horiz-adv-x="286" unicode="y" d="M33 325l111 -318l111 318h11l-231 -657h-9l113 324l-117 333h11z"/>
<glyph glyph-name="z" horiz-adv-x="307" unicode="z" d="M47 325h225l-227 -315h236v-10h-258l227 315h-203v10z"/>
<glyph glyph-name="braceleft" horiz-adv-x="195" unicode="{" d="M97 -10q-1 -32 13 -56t54 -30v-10q-45 5 -61 30t-16 55v235q-1 26 -19 41t-42 23q24 8 42 23t19 41v216q0 15 4 29t13 26t24 20t36 10v-10q-38 -5 -52 -29t-15 -56v-210q1 -26 -15 -40t-33 -20q17 -7 33 -20t15 -42v-226z"/>
<glyph glyph-name="bar" horiz-adv-x="90" unicode="|" d="M40 -75v695h12v-695h-12z"/>
<glyph glyph-name="braceright" horiz-adv-x="195" unicode="}" d="M151 278q-17 6 -33 20t-15 40v210q-1 32 -15 56t-52 29v10q21 -2 36 -10t24 -20t13 -26t4 -29v-216q1 -26 19 -41t42 -23q-24 -8 -42 -23t-19 -41v-235q0 -30 -16 -55t-61 -30v10q40 6 54 30t13 56v226q-1 29 15 42t33 20z"/>
<glyph glyph-name="asciitilde" horiz-adv-x="320" unicode="~" d="M63 258q0 18 15 32t40 14q18 0 28 -6t18 -14q8 -7 18 -12t26 -5q22 0 31 10t9 26h10q0 -22 -14 -34t-36 -12q-23 0 -33 6t-19 14q-7 7 -15 12t-23 5q-20 0 -32 -11t-13 -25h-10z"/>
<glyph glyph-name="exclamdown" horiz-adv-x="85" unicode="¡" d="M32 423q0 7 2 15t10 8t10 -8t2 -15t-2 -14t-10 -7t-10 7t-2 14zM50 355v-505h-12v505h12z"/>
<glyph glyph-name="cent" horiz-adv-x="370" unicode="¢" d="M44 303q0 -37 10 -71t31 -61q20 -27 48 -43t64 -17v381q-39 0 -67 -16t-48 -42t-28 -61q-10 -34 -10 -70zM34 303q0 37 10 73t32 64t52 45t69 17v48h10v-48q37 0 66 -12t52 -30v-12q-23 18 -53 31t-65 13v-381q38 1 68 13t50 32v-12q-17 -17 -47 -30t-71 -13v-56h-10v56 q-39 0 -69 17t-52 45q-22 29 -32 65t-10 75z"/>
<glyph glyph-name="sterling" horiz-adv-x="284" unicode="£" d="M203 143v-10h-163v-123h208v-10h-218v133h-19v10h19v55h-19v10h19v203q0 44 18 79t48 59t70 37t82 13v-10q-40 0 -78 -12t-66 -35t-46 -57t-18 -78v-199h163v-10h-163v-55h163z"/>
<glyph glyph-name="yen" horiz-adv-x="344" unicode="¥" d="M175 472l143 123h14l-152 -133v-72h75v-10h-75v-27h75v-10h-75v-345h-10v345h-75v10h75v27h-75v10h75v72l-152 133h14z"/>
<glyph glyph-name="brokenbar" horiz-adv-x="133" unicode="¦" d="M54 436v319h35v-319h-35zM89 327v-327h-35v327h35z"/>
<glyph glyph-name="section" horiz-adv-x="189" unicode="§" d="M154 93q0 -23 -10 -41t-28 -30q-16 -12 -37 -20t-42 -11v10q19 3 38 9t35 18q16 11 24 27q10 16 10 38q0 30 -16 53t-39 48q-21 24 -35 44t-13 49q0 33 17 59t41 39q-9 9 -19 18t-18 19t-15 24q-6 12 -6 26q-1 41 23 59t53 20v-10q-25 -1 -45 -17t-21 -52q1 -25 19 -44 t39 -39q23 -23 34 -43t11 -49q0 -25 -6 -42t-15 -28t-19 -18t-16 -11q20 -22 38 -46t18 -59zM107 378q-29 -14 -43 -38t-13 -53q1 -27 15 -47t26 -35q6 5 16 11t18 16t12 26q6 16 6 39q0 49 -37 81z"/>
<glyph glyph-name="dieresis" horiz-adv-x="235" unicode="¨" d="M74 402q0 -6 -2 -14t-6 -8t-6 8t-2 14t2 14t6 8t6 -8t2 -14zM174 402q0 -6 -2 -14t-6 -8t-6 8t-2 14t2 14t6 8t6 -8t2 -14z"/>
<glyph glyph-name="copyright" horiz-adv-x="360" unicode="©" d="M33 318q-1 -32 11 -59t32 -47t47 -32t59 -11q31 -1 58 11t47 32q19 20 31 47t12 59q0 31 -12 58t-31 47q-20 19 -47 31t-58 12q-32 0 -59 -12t-47 -31q-20 -20 -32 -47t-11 -58zM339 317q-1 -33 -13 -61t-34 -50t-50 -34t-61 -13q-33 1 -61 13t-50 34t-34 50t-13 61 q1 33 13 61t34 50t50 34t61 13q33 -1 61 -13t50 -34t34 -50t13 -61zM113 320q-1 -23 17 -43t52 -20q24 1 36 9t20 19v-15q-8 -8 -21 -16t-36 -7q-39 0 -59 23t-19 50q-1 28 19 50t59 22q22 0 35 -7t22 -16v-14q-10 11 -24 19t-33 8q-33 0 -51 -20t-17 -42z"/>
<glyph glyph-name="ordfeminine" horiz-adv-x="225" unicode="ª" d="M48 440q0 -28 18 -46t50 -19q32 1 49 19t17 46q0 29 -18 47t-48 18q-32 0 -50 -19t-18 -46zM79 538q17 17 52 17q26 0 41 -13t15 -34v-135h-6v35q-5 -14 -21 -26t-44 -12q-33 0 -53 20t-20 50q-1 30 19 50t54 20q26 0 42 -12t23 -26v34q0 43 -50 43q-34 0 -49 -15z M37 329h175v-9h-175v9z"/>
<glyph glyph-name="guillemotleft" horiz-adv-x="200" unicode="«" d="M90 185l75 -150h-10l-75 150l75 150h10zM34 185l75 -150h-10l-75 150l75 150h10z"/>
<glyph glyph-name="registered" horiz-adv-x="336" unicode="®" d="M205 518q1 12 -7 20t-21 9h-46v-56h46q14 0 21 8t7 19zM216 518q0 -14 -10 -26t-29 -12h-23l63 -68h-13l-63 68h-10v-68h-10v145h56q19 1 29 -11t10 -28zM38 484q0 -27 10 -50q10 -24 27 -40t41 -25t50 -9t50 9t41 25t27 40q10 23 10 50q0 28 -10 50t-27 38t-41 26 t-50 10t-50 -10t-41 -26t-27 -38t-10 -50zM28 485q0 31 10 55t29 42q17 18 43 27q26 10 56 10t56 -10q26 -9 43 -27q19 -18 29 -43t10 -55q0 -28 -10 -52t-29 -44q-17 -18 -43 -28t-56 -11q-30 0 -56 10t-43 28q-19 18 -29 43t-10 55z"/>
<glyph glyph-name="macron" horiz-adv-x="225" unicode="¯" d="M42 402h165v-10h-165v10z"/>
<glyph glyph-name="degree" horiz-adv-x="208" unicode="°" d="M104 485q16 0 28 11t11 27q1 15 -11 27t-28 12t-28 -12t-11 -27q-1 -16 11 -27t28 -11zM153 523q-1 -20 -15 -34t-34 -14t-34 14t-15 34q1 21 15 35t34 14t34 -14t15 -35z"/>
<glyph glyph-name="twosuperior" horiz-adv-x="173" unicode="²" d="M25 570q24 26 61 26q28 0 48 -18t21 -48q0 -31 -24 -63l-100 -136h127v-6h-139l108 146q10 13 16 29t6 30q-1 28 -19 44t-44 16q-34 0 -56 -24z"/>
<glyph glyph-name="threesuperior" horiz-adv-x="173" unicode="³" d="M138 601l-54 -54q32 -6 58 -32t26 -69q0 -26 -11 -46t-29 -35t-43 -23q-24 -8 -49 -8v6q24 0 46 8t40 21t29 33t11 44q0 42 -25 67t-62 32l50 50h-87v6h100z"/>
<glyph glyph-name="acute" horiz-adv-x="205" unicode="´" d="M57 389q-3 0 -3 3t2 5q7 7 20 21l26 28q14 14 24 26t13 17q6 10 13 10q9 0 9 -9q0 -7 -8 -11q-5 -3 -17 -14t-26 -25l-28 -28t-20 -21q-2 -2 -5 -2z"/>
<glyph glyph-name="paragraph" horiz-adv-x="325" unicode="¶" d="M280 -100v695h10v-695h-10zM42 390q0 -54 21 -91t51 -60t63 -33t57 -11v390q-30 1 -64 -11t-62 -36t-48 -60q-18 -36 -18 -88zM32 390q0 55 20 94t50 64q30 24 68 36t74 12v-696h-10v284q-28 0 -63 11t-66 35t-52 64t-21 96z"/>
<glyph glyph-name="cedilla" horiz-adv-x="135" unicode="¸" d="M95 -46q0 -26 -7 -51t-25 -47l-9 6q18 21 24 46t6 50q0 30 -6 54h10q3 -14 5 -28t2 -30z"/>
<glyph glyph-name="onesuperior" horiz-adv-x="173" unicode="¹" d="M105 335v253l-37 -37h-8l51 51v-267h-6z"/>
<glyph glyph-name="ordmasculine" horiz-adv-x="248" unicode="º" d="M37 462q1 -38 25 -62t63 -25q39 1 63 25t25 62q-1 39 -25 64t-63 25t-63 -25t-25 -64zM218 462q0 -41 -26 -67t-67 -26t-67 26t-27 67q1 42 27 68t67 26t67 -26t26 -68zM38 329h175v-9h-175v9z"/>
<glyph glyph-name="guillemotright" horiz-adv-x="200" unicode="»" d="M184 185l-75 -150h-10l75 150l-75 150h10zM132 185l-75 -150h-10l75 150l-75 150h10z"/>
<glyph glyph-name="onequarter" horiz-adv-x="173" unicode="¼" d="M136 83v90h6v-90h21v-6h-21v-77h-6v77h-128l103 191h6l-99 -185h118zM151 304h-130v6h130v-6zM105 335v253l-37 -37h-8l51 51v-267h-6z"/>
<glyph glyph-name="onehalf" horiz-adv-x="173" unicode="½" d="M25 245q24 26 61 26q28 -1 48 -19t21 -47q0 -31 -24 -63l-100 -136h127v-6h-139l108 146q10 14 16 30t6 29q-1 27 -19 43t-44 17q-34 0 -56 -24zM151 304h-130v6h130v-6zM105 335v253l-37 -37h-8l51 51v-267h-6z"/>
<glyph glyph-name="threequarters" horiz-adv-x="173" unicode="¾" d="M138 601l-54 -54q32 -6 58 -32t26 -69q0 -26 -11 -46t-29 -35t-43 -23q-24 -8 -49 -8v6q24 0 46 8t40 21t29 33t11 44q0 42 -25 67t-62 32l50 50h-87v6h100zM136 83v90h6v-90h21v-6h-21v-77h-6v77h-128l103 191h6l-99 -185h118zM151 304h-130v6h130v-6z"/>
<glyph glyph-name="questiondown" horiz-adv-x="268" unicode="¿" d="M216 423q0 7 2 15t10 8t10 -8t2 -15t-2 -14t-10 -7t-10 7t-2 14zM33 78q1 -38 13 -74t36 -66t62 -50q37 -22 87 -29v-10q-53 8 -92 30t-65 53q-26 30 -40 68q-13 38 -13 77q1 38 13 75q12 36 37 68t63 56t88 34v45h10v-54q-50 -11 -88 -33t-62 -52q-25 -30 -37 -66 t-12 -72z"/>
<glyph glyph-name="Agrave" horiz-adv-x="440" unicode="À" d="M224 587l-149 -441h298zM26 0h-11l46 136h-31v10h34l160 474l210 -620h-11l-47 136h-304zM160 706q-6 2 -6 9t7 7q6 0 10 -8q3 -4 11 -14t18 -20q10 -12 22 -23q10 -11 16 -17v-1q0 -1 1 -3q0 -2 -2 -2t-4 2q-7 6 -17 17t-22 22t-20 20q-10 9 -14 11z"/>
<glyph glyph-name="Aacute" horiz-adv-x="422" unicode="Á" d="M224 587l-149 -441h298zM26 0h-11l46 136h-31v10h34l160 474l210 -620h-11l-47 136h-304zM197 628q-2 0 -2 2q1 2 1 3v1q6 6 16 17t22 23q10 12 18 20q8 10 11 14q4 8 10 8q7 0 7 -7t-6 -9q-4 -2 -14 -11t-20 -20q-12 -11 -22 -22t-17 -17q-2 -2 -4 -2z"/>
<glyph glyph-name="Acircumflex" horiz-adv-x="440" unicode="Â" d="M224 587l-149 -441h298zM26 0h-11l46 136h-31v10h34l160 474l210 -620h-11l-47 136h-304zM227 706l-94 -47l-6 7l100 50l100 -50l-6 -7z"/>
<glyph glyph-name="Atilde" horiz-adv-x="440" unicode="Ã" d="M224 587l-149 -441h298zM26 0h-11l46 136h-31v10h34l160 474l210 -620h-11l-47 136h-304zM125 624q0 18 15 32t40 14q18 0 28 -6t18 -14q8 -7 18 -12t26 -5q22 0 31 10t9 26h10q0 -22 -14 -34t-36 -12q-23 0 -33 6t-19 14q-7 7 -15 12t-23 5q-20 0 -32 -11t-13 -25h-10z "/>
<glyph glyph-name="Adieresis" horiz-adv-x="440" unicode="Ä" d="M224 587l-149 -441h298zM26 0h-11l46 136h-31v10h34l160 474l210 -620h-11l-47 136h-304zM182 648q0 -6 -2 -14t-6 -8t-6 8t-2 14t2 14t6 8t6 -8t2 -14zM282 648q0 -6 -2 -14t-6 -8t-6 8t-2 14t2 14t6 8t6 -8t2 -14z"/>
<glyph glyph-name="Aring" horiz-adv-x="440" unicode="Å" d="M224 587l-149 -441h298zM26 0h-11l46 136h-31v10h34l160 474l210 -620h-11l-47 136h-304zM223 638q13 0 22 8t9 22q0 13 -9 22t-22 9t-22 -9t-9 -22q0 -14 9 -22t22 -8zM262 668q0 -18 -11 -28t-28 -10t-28 10t-11 28q0 17 11 28t28 11t28 -11t11 -28z"/>
<glyph glyph-name="AE" horiz-adv-x="568" unicode="Æ" d="M315 487v98l-47 -98h47zM12 0l299 595h222v-10h-208v-98h208v-10h-208v-297q0 -34 15 -66t42 -56q28 -24 66 -38t85 -14v-10q-50 0 -90 15q-41 15 -69 39t-44 58q-16 32 -15 68v301h-51l-240 -477h-12z"/>
<glyph glyph-name="Ccedilla" horiz-adv-x="294" unicode="Ç" d="M39 303q1 55 17 105t46 90t74 66q42 26 94 32v-10q-52 -6 -92 -32t-68 -64t-44 -87q-15 -48 -15 -100q0 -53 16 -103q17 -50 45 -88q28 -40 68 -66t90 -36v-9q-21 3 -41 10t-38 16q1 -13 3 -25t2 -24q0 -26 -6 -55t-25 -54l-9 6q17 23 23 51t6 52q0 16 -2 30t-4 26 q-65 40 -103 112t-37 157z"/>
<glyph glyph-name="Egrave" horiz-adv-x="305" unicode="È" d="M271 487v-10h-208v-263q-1 -94 53 -151t155 -57v-10q-108 0 -163 59t-55 155v267h-19v10h19v108h218v-10h-208v-98h208zM101 700q-6 2 -6 9t7 7q6 0 10 -8q2 -4 10 -14t20 -20q10 -12 20 -23t17 -17l1 -1v-3t-2 -2t-4 2q-6 6 -16 17t-22 22t-22 20t-13 11z"/>
<glyph glyph-name="Eacute" horiz-adv-x="305" unicode="É" d="M271 487v-10h-208v-263q-1 -94 53 -151t155 -57v-10q-108 0 -163 59t-55 155v267h-19v10h19v108h218v-10h-208v-98h208zM151 628q-2 0 -2 2q1 2 1 3v1q6 6 16 17t22 23q10 12 18 20q8 10 11 14q4 8 10 8q7 0 7 -7t-6 -9q-4 -2 -14 -11t-20 -20q-12 -11 -22 -22t-17 -17 q-2 -2 -4 -2z"/>
<glyph glyph-name="Ecircumflex" horiz-adv-x="305" unicode="Ê" d="M271 487v-10h-208v-263q-1 -94 53 -151t155 -57v-10q-108 0 -163 59t-55 155v267h-19v10h19v108h218v-10h-208v-98h208zM165 706l-94 -47l-4 8l98 49l100 -50l-4 -8z"/>
<glyph glyph-name="Edieresis" horiz-adv-x="305" unicode="Ë" d="M271 487v-10h-208v-263q-1 -94 53 -151t155 -57v-10q-108 0 -163 59t-55 155v267h-19v10h19v108h218v-10h-208v-98h208zM124 648q0 -6 -2 -14t-6 -8t-6 8t-2 14t2 14t6 8t6 -8t2 -14zM224 648q0 -6 -2 -14t-6 -8t-6 8t-2 14t2 14t6 8t6 -8t2 -14z"/>
<glyph glyph-name="Igrave" horiz-adv-x="120" unicode="Ì" d="M53 0v595h10v-595h-10zM-8 700q-6 2 -6 9t7 7q6 0 10 -8q3 -4 11 -14t18 -20q10 -12 22 -23q10 -11 16 -17v-1q0 -1 1 -3q0 -2 -2 -2t-4 2q-7 6 -17 17t-22 22t-20 20q-10 9 -14 11z"/>
<glyph glyph-name="Iacute" horiz-adv-x="120" unicode="Í" d="M53 0v595h10v-595h-10zM42 628q-2 0 -2 2v3l1 1q7 6 17 17t20 23t20 20q8 10 10 14q4 8 10 8q7 0 7 -7t-6 -9q-3 -2 -13 -11t-22 -20t-22 -22t-16 -17q-2 -2 -4 -2z"/>
<glyph glyph-name="Icircumflex" horiz-adv-x="120" unicode="Î" d="M53 0v595h10v-595h-10zM59 706l-94 -47l-4 8l98 49l100 -50l-4 -8z"/>
<glyph glyph-name="Idieresis" horiz-adv-x="120" unicode="Ï" d="M53 0v595h10v-595h-10zM18 648q0 -6 -2 -14t-6 -8t-6 8t-2 14t2 14t6 8t6 -8t2 -14zM118 648q0 -6 -2 -14t-6 -8t-6 8t-2 14t2 14t6 8t6 -8t2 -14z"/>
<glyph glyph-name="Eth" horiz-adv-x="347" unicode="Ð" d="M45 294h-36v10h36v292q43 -3 93 -18q50 -16 92 -50t68 -90q27 -56 27 -140t-27 -140q-26 -56 -68 -90t-92 -50q-50 -15 -93 -18v294zM55 304h130v-10h-130v-284q45 4 91 21t84 51t62 86t23 130q1 76 -23 129t-62 87t-84 50t-91 22v-282z"/>
<glyph glyph-name="Ntilde" horiz-adv-x="425" unicode="Ñ" d="M45 0v595q93 -7 173 -35t160 -84v119h10v-595h-10v462q-39 28 -77 48t-77 35q-39 14 -81 23t-88 13v-581h-10zM125 618q0 18 15 32t40 14q18 0 28 -6t18 -14q8 -7 18 -12t26 -5q22 0 31 10t9 26h10q0 -22 -14 -34t-36 -12q-23 0 -33 6t-19 14q-7 7 -15 12t-23 5 q-20 0 -32 -11t-13 -25h-10z"/>
<glyph glyph-name="Ograve" horiz-adv-x="665" unicode="Ò" d="M39 299q-1 -62 23 -116t64 -94q40 -39 94 -63t116 -24t116 24t94 63q40 40 64 94t23 116q1 61 -23 115t-64 95q-40 39 -94 63t-116 24t-116 -24t-94 -63q-40 -41 -64 -95t-23 -115zM643 299q0 -64 -24 -120q-23 -55 -65 -97t-98 -66t-120 -24t-120 24t-98 66t-65 97 q-24 56 -24 120t24 120q23 55 65 97t98 66t120 24t120 -24t98 -66t65 -97q24 -56 24 -120zM270 700q-6 2 -6 9t7 7q6 0 10 -8q3 -4 11 -14t18 -20q10 -12 22 -23q10 -11 16 -17v-1q0 -1 1 -3q0 -2 -2 -2t-4 2q-7 6 -17 17t-22 22t-20 20q-10 9 -14 11z"/>
<glyph glyph-name="Oacute" horiz-adv-x="665" unicode="Ó" d="M39 299q-1 -62 23 -116t64 -94q40 -39 94 -63t116 -24t116 24t94 63q40 40 64 94t23 116q1 61 -23 115t-64 95q-40 39 -94 63t-116 24t-116 -24t-94 -63q-40 -41 -64 -95t-23 -115zM643 299q0 -64 -24 -120q-23 -55 -65 -97t-98 -66t-120 -24t-120 24t-98 66t-65 97 q-24 56 -24 120t24 120q23 55 65 97t98 66t120 24t120 -24t98 -66t65 -97q24 -56 24 -120zM337 628q-2 0 -2 2q1 2 1 3v1q6 6 16 17t22 23q10 12 18 20q8 10 11 14q4 8 10 8q7 0 7 -7t-6 -9q-4 -2 -14 -11t-20 -20q-12 -11 -22 -22t-17 -17q-2 -2 -4 -2z"/>
<glyph glyph-name="Ocircumflex" horiz-adv-x="665" unicode="Ô" d="M39 299q-1 -62 23 -116t64 -94q40 -39 94 -63t116 -24t116 24t94 63q40 40 64 94t23 116q1 61 -23 115t-64 95q-40 39 -94 63t-116 24t-116 -24t-94 -63q-40 -41 -64 -95t-23 -115zM643 299q0 -64 -24 -120q-23 -55 -65 -97t-98 -66t-120 -24t-120 24t-98 66t-65 97 q-24 56 -24 120t24 120q23 55 65 97t98 66t120 24t120 -24t98 -66t65 -97q24 -56 24 -120zM339 706l-94 -47l-4 8l98 49l100 -50l-4 -8z"/>
<glyph glyph-name="Otilde" horiz-adv-x="672" unicode="Õ" d="M39 299q-1 -62 23 -116t64 -94q40 -39 94 -63t116 -24t116 24t94 63q40 40 64 94t23 116q1 61 -23 115t-64 95q-40 39 -94 63t-116 24t-116 -24t-94 -63q-40 -41 -64 -95t-23 -115zM643 299q0 -64 -24 -120q-23 -55 -65 -97t-98 -66t-120 -24t-120 24t-98 66t-65 97 q-24 56 -24 120t24 120q23 55 65 97t98 66t120 24t120 -24t98 -66t65 -97q24 -56 24 -120zM237 628q0 18 15 32t40 14q18 0 28 -6t18 -14q8 -7 18 -12t26 -5q22 0 31 10t9 26h10q0 -22 -14 -34t-36 -12q-23 0 -33 6t-19 14q-7 7 -15 12t-23 5q-20 0 -32 -11t-13 -25h-10z "/>
<glyph glyph-name="Odieresis" horiz-adv-x="665" unicode="Ö" d="M39 299q-1 -62 23 -116t64 -94q40 -39 94 -63t116 -24t116 24t94 63q40 40 64 94t23 116q1 61 -23 115t-64 95q-40 39 -94 63t-116 24t-116 -24t-94 -63q-40 -41 -64 -95t-23 -115zM643 299q0 -64 -24 -120q-23 -55 -65 -97t-98 -66t-120 -24t-120 24t-98 66t-65 97 q-24 56 -24 120t24 120q23 55 65 97t98 66t120 24t120 -24t98 -66t65 -97q24 -56 24 -120zM290 648q0 -6 -2 -14t-6 -8t-6 8t-2 14t2 14t6 8t6 -8t2 -14zM390 648q0 -6 -2 -14t-6 -8t-6 8t-2 14t2 14t6 8t6 -8t2 -14z"/>
<glyph glyph-name="multiply" horiz-adv-x="361" unicode="×" d="M67 413l115 -171l114 171l34 -21l-123 -183l126 -188l-34 -21l-117 173l-117 -173l-33 23l125 185l-123 183z"/>
<glyph glyph-name="Oslash" horiz-adv-x="672" unicode="Ø" d="M212 29q30 -13 60 -20t64 -7q62 0 116 24t94 63q40 40 64 94t23 116q0 46 -14 89q-13 43 -39 79t-63 65t-83 48zM336 596q-62 0 -116 -24t-94 -63q-40 -41 -64 -95t-23 -115q0 -43 12 -83q11 -40 33 -74t52 -62t66 -46l222 548q-42 14 -88 14zM442 627h11l-15 -38 q44 -15 82 -43t65 -66t43 -84t15 -97q0 -64 -24 -120q-23 -55 -65 -97t-98 -66t-120 -24q-67 0 -128 28l-19 -47h-11l20 51q-38 20 -69 48t-53 64t-34 76q-12 42 -13 87q0 64 24 120q23 55 65 97t98 66t120 24q45 0 92 -14z"/>
<glyph glyph-name="Ugrave" horiz-adv-x="365" unicode="Ù" d="M52 595v-440q0 -34 7 -62q7 -29 23 -49t41 -31t61 -11t61 11t41 31t23 49q7 28 7 62v440h10v-440q0 -75 -32 -119t-110 -45q-78 1 -110 45t-32 119v440h10zM113 700q-6 2 -6 9t7 7q6 0 10 -8q2 -4 10 -14t20 -20q10 -12 20 -23t17 -17l1 -1v-3t-2 -2t-4 2q-6 6 -16 17 t-22 22t-22 20t-13 11z"/>
<glyph glyph-name="Uacute" horiz-adv-x="360" unicode="Ú" d="M52 595v-440q0 -34 7 -62q7 -29 23 -49t41 -31t61 -11t61 11t41 31t23 49q7 28 7 62v440h10v-440q0 -75 -32 -119t-110 -45q-78 1 -110 45t-32 119v440h10zM171 628q-2 0 -2 2q1 2 1 3v1q6 6 16 17t22 23q10 12 18 20q8 10 11 14q4 8 10 8q7 0 7 -7t-6 -9q-4 -2 -14 -11 t-20 -20q-12 -11 -22 -22t-17 -17q-2 -2 -4 -2z"/>
<glyph glyph-name="Ucircumflex" horiz-adv-x="360" unicode="Û" d="M52 595v-440q0 -34 7 -62q7 -29 23 -49t41 -31t61 -11t61 11t41 31t23 49q7 28 7 62v440h10v-440q0 -75 -32 -119t-110 -45q-78 1 -110 45t-32 119v440h10zM181 706l-94 -47l-4 8l98 49l100 -50l-4 -8z"/>
<glyph glyph-name="Udieresis" horiz-adv-x="365" unicode="Ü" d="M52 595v-440q0 -34 7 -62q7 -29 23 -49t41 -31t61 -11t61 11t41 31t23 49q7 28 7 62v440h10v-440q0 -75 -32 -119t-110 -45q-78 1 -110 45t-32 119v440h10zM142 648q0 -6 -2 -14t-6 -8t-6 8t-2 14t2 14t6 8t6 -8t2 -14zM242 648q0 -6 -2 -14t-6 -8t-6 8t-2 14t2 14t6 8 t6 -8t2 -14z"/>
<glyph glyph-name="Yacute" horiz-adv-x="342" unicode="Ý" d="M151 628q-2 0 -2 2q1 2 1 3v1q6 6 16 17t22 23q10 12 18 20q8 10 11 14q4 8 10 8q7 0 7 -7t-6 -9q-4 -2 -14 -11t-20 -20q-12 -11 -22 -22t-17 -17q-2 -2 -4 -2zM174 470l142 125h14l-151 -133v-462h-10v462l-152 133h14z"/>
<glyph glyph-name="Thorn" horiz-adv-x="298" unicode="Þ" d="M257 313q-1 47 -17 83t-43 61t-61 38t-71 13v-391q37 -1 71 13t61 39t43 61t17 83zM55 0v595h10v-77q42 0 79 -14t64 -42q27 -26 43 -64t16 -85q0 -49 -16 -87t-44 -64q-29 -26 -65 -41q-36 -14 -77 -14v-107h-10z"/>
<glyph glyph-name="germandbls" horiz-adv-x="382" unicode="ß" d="M181 600q34 0 61 -11q28 -11 46 -29t28 -42t9 -51q0 -33 -9 -59t-24 -42q-14 -18 -34 -28t-40 -12q24 -2 50 -13t46 -31t32 -48t12 -64q0 -37 -10 -68q-10 -32 -32 -54q-21 -22 -52 -35t-72 -13v10q39 0 68 13q28 13 48 35t30 51t10 61q0 68 -44 109t-116 41v10 q37 0 62 14t39 34t20 42q6 24 6 47q-1 24 -9 46q-8 21 -25 39t-42 28t-58 10q-27 0 -50 -10t-39 -26t-25 -38t-9 -49v-467h-10v319h-25v10h25v139q0 28 10 52t28 42t42 28t53 10z"/>
<glyph glyph-name="agrave" horiz-adv-x="335" unicode="à" d="M46 121q0 -49 34 -83t89 -34q57 0 89 34t32 83q0 52 -33 85t-88 33q-29 0 -51 -9t-39 -25q-17 -15 -25 -37t-8 -47zM101 300q17 14 39 22t56 8q48 0 75 -24t27 -61v-245h-10v63q-10 -25 -40 -47t-79 -22q-31 0 -55 10t-42 27t-26 40q-10 23 -10 50t9 51t27 40 q18 17 42 27t55 10q49 0 78 -22t41 -48v62q0 37 -24 58t-68 21q-61 0 -89 -28zM121 479q-8 4 -8 11q0 9 9 9q7 0 13 -10q3 -5 13 -17t24 -26t26 -28t20 -21q2 -2 2 -5t-3 -3t-5 2q-8 7 -21 21t-27 28t-26 25t-17 14z"/>
<glyph glyph-name="aacute" horiz-adv-x="335" unicode="á" d="M46 121q0 -49 34 -83t89 -34q57 0 89 34t32 83q0 52 -33 85t-88 33q-29 0 -51 -9t-39 -25q-17 -15 -25 -37t-8 -47zM101 300q17 14 39 22t56 8q48 0 75 -24t27 -61v-245h-10v63q-10 -25 -40 -47t-79 -22q-31 0 -55 10t-42 27t-26 40q-10 23 -10 50t9 51t27 40 q18 17 42 27t55 10q49 0 78 -22t41 -48v62q0 37 -24 58t-68 21q-61 0 -89 -28zM171 389q-3 0 -3 3t2 5q7 7 20 21l26 28q14 14 24 26t13 17q6 10 13 10q9 0 9 -9q0 -7 -8 -11q-5 -3 -17 -14t-26 -25l-28 -28t-20 -21q-2 -2 -5 -2z"/>
<glyph glyph-name="acircumflex" horiz-adv-x="335" unicode="â" d="M46 121q0 -49 34 -83t89 -34q57 0 89 34t32 83q0 52 -33 85t-88 33q-29 0 -51 -9t-39 -25q-17 -15 -25 -37t-8 -47zM101 300q17 14 39 22t56 8q48 0 75 -24t27 -61v-245h-10v63q-10 -25 -40 -47t-79 -22q-31 0 -55 10t-42 27t-26 40q-10 23 -10 50t9 51t27 40 q18 17 42 27t55 10q49 0 78 -22t41 -48v62q0 37 -24 58t-68 21q-61 0 -89 -28zM186 458l-94 -47l-4 8l98 49l100 -50l-4 -8z"/>
<glyph glyph-name="atilde" horiz-adv-x="335" unicode="ã" d="M46 121q0 -49 34 -83t89 -34q57 0 89 34t32 83q0 52 -33 85t-88 33q-29 0 -51 -9t-39 -25q-17 -15 -25 -37t-8 -47zM101 300q17 14 39 22t56 8q48 0 75 -24t27 -61v-245h-10v63q-10 -25 -40 -47t-79 -22q-31 0 -55 10t-42 27t-26 40q-10 23 -10 50t9 51t27 40 q18 17 42 27t55 10q49 0 78 -22t41 -48v62q0 37 -24 58t-68 21q-61 0 -89 -28zM90 388q0 18 15 32t40 14q19 0 29 -6t17 -14q7 -7 17 -12t27 -5q22 0 31 10t9 26h10q0 -22 -14 -34t-36 -12q-23 0 -33 6t-19 14q-7 7 -15 12t-23 5q-21 0 -33 -11t-12 -25h-10z"/>
<glyph glyph-name="adieresis" horiz-adv-x="335" unicode="ä" d="M46 121q0 -49 34 -83t89 -34q57 0 89 34t32 83q0 52 -33 85t-88 33q-29 0 -51 -9t-39 -25q-17 -15 -25 -37t-8 -47zM101 300q17 14 39 22t56 8q48 0 75 -24t27 -61v-245h-10v63q-10 -25 -40 -47t-79 -22q-31 0 -55 10t-42 27t-26 40q-10 23 -10 50t9 51t27 40 q18 17 42 27t55 10q49 0 78 -22t41 -48v62q0 37 -24 58t-68 21q-61 0 -89 -28zM243 402q1 -6 -1 -14t-7 -8t-7 8t-1 14q-1 6 1 14t7 8t7 -8t1 -14zM143 402q1 -6 -1 -14t-7 -8t-7 8t-1 14q-1 6 1 14t7 8t7 -8t1 -14z"/>
<glyph glyph-name="aring" horiz-adv-x="335" unicode="å" d="M46 121q0 -49 34 -83t89 -34q57 0 89 34t32 83q0 52 -33 85t-88 33q-29 0 -51 -9t-39 -25q-17 -15 -25 -37t-8 -47zM101 300q17 14 39 22t56 8q48 0 75 -24t27 -61v-245h-10v63q-10 -25 -40 -47t-79 -22q-31 0 -55 10t-42 27t-26 40q-10 23 -10 50t9 51t27 40 q18 17 42 27t55 10q49 0 78 -22t41 -48v62q0 37 -24 58t-68 21q-61 0 -89 -28zM194 390q16 0 28 11t11 27q1 16 -11 28t-28 11q-16 1 -28 -11t-11 -28q-1 -16 11 -27t28 -11zM243 428q-1 -20 -15 -34t-34 -14t-34 14t-15 34q1 20 15 34t34 15q20 -1 34 -15t15 -34z"/>
<glyph glyph-name="ae" horiz-adv-x="538" unicode="æ" d="M519 307q-14 7 -33 11t-42 4q-35 0 -64 -12t-50 -33t-33 -49t-12 -62q1 -6 1 -13v-7zM32 121q0 -49 34 -83t89 -34q57 0 89 34t32 83q0 52 -33 85t-88 33q-29 0 -51 -9t-39 -25q-17 -15 -25 -37t-8 -47zM444 332q55 0 94 -24l-251 -173q3 -42 35 -80t88 -49l-3 -10 q-51 12 -81 40t-42 69v-105h-10v63q-10 -25 -40 -47t-79 -22q-31 0 -55 10t-42 27t-26 40q-10 23 -10 50t9 51t27 40q18 17 42 27t55 10q49 0 78 -22t41 -48v62q0 37 -24 58t-68 21q-61 0 -89 -28l-6 8q17 14 39 22t56 8q48 0 75 -24t27 -61v-22q18 49 60 79t100 30z"/>
<glyph glyph-name="ccedilla" horiz-adv-x="197" unicode="ç" d="M29 163q-1 31 9 59t27 48q17 22 41 37t54 21v-10q-56 -10 -88 -54t-33 -101q0 -58 32 -101t89 -55v-10q-14 2 -27 7t-24 12q2 -11 3 -24t1 -27q-1 -25 -7 -51t-25 -50l-9 6q17 23 23 49t6 50q1 16 -1 30t-4 25q-32 23 -50 59t-17 80z"/>
<glyph glyph-name="egrave" horiz-adv-x="290" unicode="è" d="M265 307q-14 7 -33 11t-42 4q-35 0 -64 -12t-50 -33t-33 -49t-12 -62q1 -6 1 -13v-7zM21 166q0 36 13 66q14 30 36 52t53 36q31 12 67 12q55 0 94 -24l-251 -173q3 -42 35 -80t88 -49l-3 -10q-69 16 -101 62t-31 108zM97 479q-8 4 -8 11q0 9 9 9q7 0 13 -10q3 -5 13 -17 t24 -26t26 -28t20 -21q2 -2 2 -5t-3 -3t-5 2q-8 7 -21 21t-27 28t-26 25t-17 14z"/>
<glyph glyph-name="eacute" horiz-adv-x="290" unicode="é" d="M265 307q-14 7 -33 11t-42 4q-35 0 -64 -12t-50 -33t-33 -49t-12 -62q1 -6 1 -13v-7zM21 166q0 36 13 66q14 30 36 52t53 36q31 12 67 12q55 0 94 -24l-251 -173q3 -42 35 -80t88 -49l-3 -10q-69 16 -101 62t-31 108zM153 389q-3 0 -3 3t2 5q7 7 20 21l26 28q14 14 24 26 t13 17q6 10 13 10q9 0 9 -9q0 -7 -8 -11q-5 -3 -17 -14t-26 -25l-28 -28t-20 -21q-2 -2 -5 -2z"/>
<glyph glyph-name="ecircumflex" horiz-adv-x="290" unicode="ê" d="M265 307q-14 7 -33 11t-42 4q-35 0 -64 -12t-50 -33t-33 -49t-12 -62q1 -6 1 -13v-7zM21 166q0 36 13 66q14 30 36 52t53 36q31 12 67 12q55 0 94 -24l-251 -173q3 -42 35 -80t88 -49l-3 -10q-69 16 -101 62t-31 108zM169 458l-94 -47l-4 8l98 49l100 -50l-4 -8z"/>
<glyph glyph-name="edieresis" horiz-adv-x="290" unicode="ë" d="M265 307q-14 7 -33 11t-42 4q-35 0 -64 -12t-50 -33t-33 -49t-12 -62q1 -6 1 -13v-7zM21 166q0 36 13 66q14 30 36 52t53 36q31 12 67 12q55 0 94 -24l-251 -173q3 -42 35 -80t88 -49l-3 -10q-69 16 -101 62t-31 108zM227 402q1 -6 -1 -14t-7 -8t-7 8t-1 14q-1 6 1 14 t7 8t7 -8t1 -14zM127 402q1 -6 -1 -14t-7 -8t-7 8t-1 14q-1 6 1 14t7 8t7 -8t1 -14z"/>
<glyph glyph-name="igrave" horiz-adv-x="133" unicode="ì" d="M-7 479q-8 4 -8 11q0 9 9 9q7 0 13 -10q3 -5 13 -17t24 -26t26 -28t20 -21q2 -2 2 -5t-3 -3t-5 2q-8 7 -21 21t-27 28t-26 25t-17 14zM67 0v325h10v-325h-10z"/>
<glyph glyph-name="iacute" horiz-adv-x="133" unicode="í" d="M59 389q-3 0 -3 3t2 5q7 7 20 21l26 28q14 14 24 26t13 17q6 10 13 10q9 0 9 -9q0 -7 -8 -11q-5 -3 -17 -14t-26 -25l-28 -28t-20 -21q-2 -2 -5 -2zM62 0v325h10v-325h-10z"/>
<glyph glyph-name="icircumflex" horiz-adv-x="133" unicode="î" d="M64 0v325h10v-325h-10zM68 458l-94 -47l-4 8l98 49l100 -50l-4 -8z"/>
<glyph glyph-name="idieresis" horiz-adv-x="133" unicode="ï" d="M62 0v325h10v-325h-10zM125 402q1 -6 -1 -14t-7 -8t-7 8t-1 14q-1 6 1 14t7 8t7 -8t1 -14zM25 402q1 -6 -1 -14t-7 -8t-7 8t-1 14q-1 6 1 14t7 8t7 -8t1 -14z"/>
<glyph glyph-name="eth" horiz-adv-x="399" unicode="ð" d="M220 526l-72 -72l-8 8l72 71q-32 27 -67 42t-72 15v10q39 0 77 -16t71 -42l63 63l8 -8l-63 -62q31 -28 57 -65q26 -36 45 -80t29 -92t10 -98v-38q0 -37 -12 -68q-12 -32 -36 -54q-22 -22 -54 -34t-68 -13q-36 1 -68 13t-54 34t-36 54q-12 31 -12 68q0 36 12 68t36 54 q22 22 54 36q32 12 68 12q56 0 97 -28t60 -73q-3 43 -14 85t-29 80t-42 71t-52 59zM360 162q0 34 -12 64t-33 51t-51 33t-64 12t-64 -12t-51 -33t-33 -51t-12 -64t12 -64t33 -51t51 -33t64 -11q34 -1 64 11t51 33t33 51t12 64z"/>
<glyph glyph-name="ntilde" d="M179 331q59 0 91 -26t32 -83v-222h-10v220q0 55 -29 78t-84 23q-54 1 -83 -29t-34 -69v-223h-10v325h10v-67q3 12 12 24t23 23q15 11 35 19t47 7zM87 388q0 18 15 32t40 14q18 0 28 -6t18 -14q8 -7 18 -12t26 -5q22 0 31 10t9 26h10q0 -22 -14 -34t-36 -12q-23 0 -33 6 t-19 14q-7 7 -15 12t-23 5q-20 0 -32 -11t-13 -25h-10z" unicode="ñ"/>
<glyph glyph-name="ograve" horiz-adv-x="395" unicode="ò" d="M40 162q0 -34 12 -64t33 -51t51 -33t64 -11q34 -1 64 11t51 33t33 51t12 64t-12 64t-33 51t-51 33t-64 12t-64 -12t-51 -33t-33 -51t-12 -64zM370 162q0 -37 -12 -68q-12 -32 -36 -54q-22 -22 -54 -34t-68 -13q-36 1 -68 13t-54 34t-36 54q-12 31 -12 68q0 36 12 68 t36 54q22 22 54 36q32 12 68 12t68 -12t54 -36q22 -22 36 -54q12 -32 12 -68zM117 479q-8 4 -8 11q0 9 9 9q7 0 13 -10q3 -5 13 -17t24 -26t26 -28t20 -21q2 -2 2 -5t-3 -3t-5 2q-8 7 -21 21t-27 28t-26 25t-17 14z"/>
<glyph glyph-name="oacute" horiz-adv-x="395" unicode="ó" d="M40 162q0 -34 12 -64t33 -51t51 -33t64 -11q34 -1 64 11t51 33t33 51t12 64t-12 64t-33 51t-51 33t-64 12t-64 -12t-51 -33t-33 -51t-12 -64zM370 162q0 -37 -12 -68q-12 -32 -36 -54q-22 -22 -54 -34t-68 -13q-36 1 -68 13t-54 34t-36 54q-12 31 -12 68q0 36 12 68 t36 54q22 22 54 36q32 12 68 12t68 -12t54 -36q22 -22 36 -54q12 -32 12 -68zM182 389q-3 0 -3 3t2 5q7 7 20 21l26 28t23 26t14 17q6 10 13 10q9 0 9 -9q0 -7 -8 -11q-5 -3 -17 -14t-26 -25q-13 -14 -27 -28l-21 -21q-2 -2 -5 -2z"/>
<glyph glyph-name="ocircumflex" horiz-adv-x="400" unicode="ô" d="M40 162q0 -34 12 -64t33 -51t51 -33t64 -11q34 -1 64 11t51 33t33 51t12 64t-12 64t-33 51t-51 33t-64 12t-64 -12t-51 -33t-33 -51t-12 -64zM370 162q0 -37 -12 -68q-12 -32 -36 -54q-22 -22 -54 -34t-68 -13q-36 1 -68 13t-54 34t-36 54q-12 31 -12 68q0 36 12 68 t36 54q22 22 54 36q32 12 68 12t68 -12t54 -36q22 -22 36 -54q12 -32 12 -68zM202 458l-94 -47l-4 8l98 49l100 -50l-4 -8z"/>
<glyph glyph-name="otilde" horiz-adv-x="400" unicode="õ" d="M40 162q0 -34 12 -64t33 -51t51 -33t64 -11q34 -1 64 11t51 33t33 51t12 64t-12 64t-33 51t-51 33t-64 12t-64 -12t-51 -33t-33 -51t-12 -64zM370 162q0 -37 -12 -68q-12 -32 -36 -54q-22 -22 -54 -34t-68 -13q-36 1 -68 13t-54 34t-36 54q-12 31 -12 68q0 36 12 68 t36 54q22 22 54 36q32 12 68 12t68 -12t54 -36q22 -22 36 -54q12 -32 12 -68zM112 388q0 18 15 32t40 14q19 0 29 -6t17 -14q7 -7 17 -12t27 -5q22 0 31 10t9 26h10q0 -22 -14 -34t-36 -12q-23 0 -33 6t-19 14q-7 7 -15 12t-23 5q-21 0 -33 -11t-12 -25h-10z"/>
<glyph glyph-name="odieresis" horiz-adv-x="400" unicode="ö" d="M40 162q0 -34 12 -64t33 -51t51 -33t64 -11q34 -1 64 11t51 33t33 51t12 64t-12 64t-33 51t-51 33t-64 12t-64 -12t-51 -33t-33 -51t-12 -64zM370 162q0 -37 -12 -68q-12 -32 -36 -54q-22 -22 -54 -34t-68 -13q-36 1 -68 13t-54 34t-36 54q-12 31 -12 68q0 36 12 68 t36 54q22 22 54 36q32 12 68 12t68 -12t54 -36q22 -22 36 -54q12 -32 12 -68zM262 402q0 -6 -2 -14t-6 -8t-6 8t-2 14t2 14t6 8t6 -8t2 -14zM162 402q0 -6 -2 -14t-6 -8t-6 8t-2 14t2 14t6 8t6 -8t2 -14z"/>
<glyph glyph-name="divide" d="M188 348q0 -8 -2 -16t-10 -7q-8 -1 -10 7t-2 16q0 7 2 14t10 7t10 -7t2 -14zM188 124q0 -8 -2 -16t-10 -7q-8 -1 -10 7t-2 16q0 7 2 14t10 7t10 -7t2 -14zM314 230h-275v10h275v-10z" unicode="÷"/>
<glyph glyph-name="oslash" horiz-adv-x="399" unicode="ø" d="M200 3q34 -1 64 11t51 33t33 51t12 64q0 56 -28 96t-78 56l-121 -299q30 -12 67 -12zM245 317q-23 5 -45 5q-34 0 -64 -12t-51 -33t-33 -51t-12 -64q0 -50 22 -86t61 -56zM120 -17h-12l11 28q-41 19 -65 59t-24 92q0 36 12 68t36 54q22 22 54 36q32 12 68 12q25 0 48 -6 l8 19h11l-9 -22q52 -17 82 -59t30 -102q0 -37 -12 -68q-12 -32 -36 -54q-22 -22 -54 -34t-68 -13q-40 0 -70 13z"/>
<glyph glyph-name="ugrave" d="M54 325h10v-221q0 -56 32 -80t79 -23q23 -1 43 5t36 18t24 32t8 48v221h10v-221q0 -60 -34 -86t-87 -27q-53 1 -87 27t-34 86v221zM81 479q-8 4 -8 11q0 9 9 9q7 0 13 -10q3 -5 13 -17t24 -26t26 -28t20 -21q2 -2 2 -5t-3 -3t-5 2q-8 7 -21 21t-27 28t-26 25t-17 14z" unicode="ù"/>
<glyph glyph-name="uacute" d="M54 325h10v-221q0 -56 32 -80t79 -23q23 -1 43 5t36 18t24 32t8 48v221h10v-221q0 -60 -34 -86t-87 -27q-53 1 -87 27t-34 86v221zM171 389q-3 0 -3 3t2 5q7 7 20 21l26 28q14 14 24 26t13 17q6 10 13 10q9 0 9 -9q0 -7 -8 -11q-5 -3 -17 -14t-26 -25l-28 -28t-20 -21 q-2 -2 -5 -2z" unicode="ú"/>
<glyph glyph-name="ucircumflex" d="M54 325h10v-221q0 -56 32 -80t79 -23q23 -1 43 5t36 18t24 32t8 48v221h10v-221q0 -60 -34 -86t-87 -27q-53 1 -87 27t-34 86v221zM182 458l-94 -47l-4 8l98 49l100 -50l-4 -8z" unicode="û"/>
<glyph glyph-name="udieresis" d="M54 325h10v-221q0 -56 32 -80t79 -23q23 -1 43 5t36 18t24 32t8 48v221h10v-221q0 -60 -34 -86t-87 -27q-53 1 -87 27t-34 86v221zM233 402q1 -6 -1 -14t-7 -8t-7 8t-1 14q-1 6 1 14t7 8t7 -8t1 -14zM133 402q1 -6 -1 -14t-7 -8t-7 8t-1 14q-1 6 1 14t7 8t7 -8t1 -14z " unicode="ü"/>
<glyph glyph-name="yacute" horiz-adv-x="286" unicode="ý" d="M131 389q-3 0 -3 3t2 5q7 7 20 21l26 28q14 14 24 26t13 17q6 10 13 10q9 0 9 -9q0 -7 -8 -11q-5 -3 -17 -14t-26 -25l-28 -28t-20 -21q-2 -2 -5 -2zM33 325l111 -318l111 318h11l-231 -657h-9l113 324l-117 333h11z"/>
<glyph glyph-name="thorn" horiz-adv-x="417" unicode="þ" d="M222 2q37 0 67 12q31 12 51 35q20 22 31 51t11 62t-11 62q-11 28 -32 50t-51 34t-66 13q-36 -1 -66 -13t-51 -34t-32 -50q-11 -29 -11 -62t11 -62t31 -51q20 -23 50 -35t68 -12zM53 -304v933h10v-403q5 12 15 30t29 34t47 29q28 12 68 12q40 1 72 -13t53 -37t33 -54 t12 -65q0 -35 -12 -66t-33 -54q-21 -22 -53 -36t-72 -14q-39 0 -67 12t-47 28t-30 35q-11 18 -15 31v-402h-10z"/>
<glyph glyph-name="OE" horiz-adv-x="884" unicode="Œ" d="M39 299q-1 -62 23 -116t64 -94q40 -39 94 -63t116 -24t116 24t94 63q40 40 64 94t23 116q1 61 -23 115t-64 95q-40 39 -94 63t-116 24t-116 -24t-94 -63q-40 -41 -64 -95t-23 -115zM336 -8q-64 0 -120 24t-98 66t-65 97q-24 56 -24 120t24 120q23 55 65 97t98 66t120 24 q54 0 102 -17t87 -48t67 -73t41 -91v100h-19v10h19v108h218v-10h-208v-98h208v-10h-208v-263q-1 -94 53 -151t155 -57v-10q-108 0 -163 59t-55 155v10q-13 -50 -41 -92t-67 -72t-87 -47t-102 -17z"/>
<glyph glyph-name="oe" horiz-adv-x="626" unicode="œ" d="M604 307q-14 7 -33 11t-42 4q-35 0 -64 -12t-50 -33t-33 -49t-12 -62v-13l1 -7zM40 162q0 -34 12 -64t33 -51t51 -33t64 -11q34 -1 64 11t51 33t33 51t12 64t-12 64t-33 51t-51 33t-64 12t-64 -12t-51 -33t-33 -51t-12 -64zM200 -7q-36 1 -68 13t-54 34t-36 54 q-12 31 -12 68q0 36 12 68t36 54q22 22 54 36q32 12 68 12q64 0 108 -34t57 -92q13 56 57 91t107 35q55 0 94 -24l-251 -173q4 -42 36 -80t87 -49l-3 -10q-55 14 -86 46t-41 78q-13 -57 -57 -92t-108 -35z"/>
<glyph glyph-name="Scaron" horiz-adv-x="282" unicode="Š" d="M147 327q23 -14 43 -28q20 -13 35 -31t23 -42t9 -56q0 -46 -22 -80q-21 -34 -55 -56t-74 -33t-73 -11v10q31 0 69 10t70 32q32 21 54 53t21 75q-1 32 -9 54t-22 39t-33 30t-41 26q-19 12 -37 23q-19 12 -33 26t-22 34t-9 49q1 43 17 72t40 47t49 26q26 8 46 7v-10 q-17 0 -41 -7q-24 -8 -48 -24q-22 -16 -38 -43t-15 -68q0 -27 8 -45q7 -18 21 -32t32 -25t35 -22zM245 690l-100 -50l-98 49l4 8l94 -47l96 48z"/>
<glyph glyph-name="scaron" horiz-adv-x="189" unicode="š" d="M95 413l94 47l4 -8l-98 -49l-100 50l4 8zM106 179q19 -17 36 -35t17 -51q1 -23 -9 -41t-26 -30t-38 -20q-21 -8 -44 -11v10q44 7 76 29t31 63q0 26 -14 44t-34 35q-19 16 -37 32t-18 43q0 21 7 35t17 24t24 14t28 6v-10q-12 -2 -24 -6t-21 -11q-9 -9 -15 -21t-6 -31 q0 -23 16 -37t34 -31z"/>
<glyph glyph-name="Ydieresis" d="M174 470l142 125h14l-151 -133v-462h-10v462l-152 133h14zM232 648q0 -6 -2 -14t-6 -8t-6 8t-2 14t2 14t6 8t6 -8t2 -14zM132 648q0 -6 -2 -14t-6 -8t-6 8t-2 14t2 14t6 8t6 -8t2 -14z" unicode="Ÿ"/>
<glyph glyph-name="florin" horiz-adv-x="445" unicode="ƒ" d="M398 346v-346h-346v346h346z"/>
<glyph glyph-name="circumflex" horiz-adv-x="245" unicode="ˆ" d="M125 470l-94 -47l-4 8l98 49l100 -50l-4 -8z"/>
<glyph glyph-name="tilde" horiz-adv-x="275" unicode="˜" d="M43 388q0 18 15 32t40 14q18 0 28 -6t18 -14q8 -7 18 -12t26 -5q22 0 31 10t9 26h10q0 -22 -14 -34t-36 -12q-23 0 -33 6t-19 14q-7 7 -15 12t-23 5q-20 0 -32 -11t-13 -25h-10z"/>
<glyph glyph-name="endash" d="M314 230h-275v10h275v-10z" unicode="–"/>
<glyph glyph-name="emdash" horiz-adv-x="520" unicode="—" d="M475 230h-411v10h411v-10z"/>
<glyph glyph-name="quoteleft" horiz-adv-x="118" unicode="‘" d="M28 613l74 -101l-8 -7l-75 101z"/>
<glyph glyph-name="quotesinglbase" horiz-adv-x="120" unicode="‚" d="M20 -8l73 100l8 -7l-73 -100z"/>
<glyph glyph-name="quotedblleft" horiz-adv-x="180" unicode="“" d="M29 612l73 -100l-8 -7l-73 100zM90 612l73 -100l-8 -7l-73 100z"/>
<glyph glyph-name="quotedblright" horiz-adv-x="180" unicode="”" d="M85 512l73 100l8 -7l-73 -99zM24 512l74 100l7 -7l-73 -99z"/>
<glyph glyph-name="dagger" horiz-adv-x="160" unicode="†" d="M89 623v-120h36v-10h-36v-370h-10v370h-36v10h36v120h10z"/>
<glyph glyph-name="daggerdbl" horiz-adv-x="160" unicode="‡" d="M43 519v10h36v94h10v-94h36v-10h-36v-116h36v-10h-36v-301h-10v301h-36v10h36v116h-36z"/>
<glyph glyph-name="ellipsis" horiz-adv-x="300" unicode="…" d="M267 22q-1 -8 -3 -16t-9 -7q-7 -1 -9 7t-3 16q1 7 3 14t9 7t9 -7t3 -14zM167 22q-1 -8 -3 -16t-9 -7q-7 -1 -9 7t-3 16q1 7 3 14t9 7t9 -7t3 -14zM67 22q-1 -8 -3 -16t-9 -7q-7 -1 -9 7t-3 16q1 7 3 14t9 7t9 -7t3 -14z"/>
<glyph glyph-name="perthousand" horiz-adv-x="262" unicode="‰" d="M231 388q1 49 -17 86t-45 62q-27 26 -59 38t-63 12v-390q36 0 69 13q32 13 58 37t42 61q16 36 15 81zM241 388q-1 -48 -17 -86t-42 -63t-59 -39t-66 -14q18 -42 42 -77t55 -66t70 -59t89 -56v-10q-51 28 -93 56t-73 60q-32 32 -57 68t-43 80v-182h-10v596q37 0 73 -13 t66 -39q29 -26 47 -65t18 -91z"/>
<glyph glyph-name="guilsinglleft" horiz-adv-x="160" unicode="‹" d="M40 185l75 -150h-10l-75 150l75 150h10z"/>
<glyph glyph-name="guilsinglright" horiz-adv-x="155" unicode="›" d="M124 185l-75 -150h-10l75 150l-75 150h10z"/>
<glyph glyph-name="trademark" horiz-adv-x="330" unicode="™" d="M140 466l35 158l50 -145l51 145l33 -158h-7l-28 135l-49 -143l-49 143l-29 -135h-7zM145 622v-8h-50v-149h-8v149h-50v8h108z"/>
</font>
</defs>
</svg>
