<?xml version="1.0" encoding="UTF-8" standalone="no"?>
<!DOCTYPE svg  PUBLIC '-//W3C//DTD SVG 1.1//EN'  'http://www.w3.org/Graphics/SVG/1.1/DTD/svg11.dtd'>
<svg xmlns="http://www.w3.org/2000/svg">
<defs>
<font id="HalloSans-Regular" horiz-adv-x="1014">
<font-face underline-position="-142" font-weight="400" descent="-410" panose-1="2 0 5 0 0 0 0 0 0 0" units-per-em="2048" unicode-range="U+001D-0131" bbox="-169 -528 1498 1728" x-height="894" underline-thickness="150" font-family="HalloSans" ascent="1638" cap-height="1346"/>
<missing-glyph horiz-adv-x="2048"/>
<glyph glyph-name=".notdef" horiz-adv-x="2048"/>
<glyph glyph-name=".null" horiz-adv-x="0"/>
<glyph glyph-name=".null" horiz-adv-x="0"/>
<glyph glyph-name="nonmarkingreturn" horiz-adv-x="2048"/>
<glyph glyph-name="space" horiz-adv-x="508" unicode=" "/>
<glyph glyph-name="space" horiz-adv-x="508" unicode=" "/>
<glyph glyph-name="exclam" horiz-adv-x="443" unicode="!" d="M108 44q26 26 62 26t61 -26q26 -25 26 -61t-26 -62q-25 -25 -61 -25t-62 25q-25 26 -25 62t25 61zM102 216v1132h127v-1132h-127z"/>
<glyph glyph-name="quotedbl" horiz-adv-x="629" unicode='&quot;' d="M-58 993q0 79 88 207q87 127 87 203h127q0 -116 -109 -275q-66 -96 -66 -135h-127zM175 993q0 79 88 207q87 127 87 203h127q0 -116 -109 -275q-66 -96 -66 -135h-127z"/>
<glyph glyph-name="numbersign" horiz-adv-x="1228" unicode="#" d="M411 885l-82 -408h387l82 408h-387zM891 1348h127l-67 -336h180l-26 -127h-180l-82 -408h180l-25 -127h-180l-70 -350h-128l70 350h-387l-70 -350h-127l70 350h-176l26 127h176l81 408h-176l26 127h176l67 336h128l-68 -336h387z"/>
<glyph glyph-name="dollar" d="M473 802q305 -130 341 -357q6 -36 6 -72q0 -106 -54 -202q-79 -142 -239 -182q-25 -6 -54 -10v-129h-127v127q-129 16 -224 99q-89 78 -122 190l122 36q21 -73 77 -125q62 -57 147 -72v611q-259 109 -280 296q-2 17 -2 34q0 97 64 180q69 91 170 118q21 6 48 10v168h127 v-166q200 -30 255 -208l-121 -38q-28 91 -134 116v-424zM230 1150q-38 -50 -38 -105q0 -10 1 -19q11 -100 153 -170v369l-16 -4q-58 -15 -100 -71zM473 108q13 2 24 5q115 28 165 135q31 64 31 131q0 23 -4 46q-23 141 -216 237v-554z" unicode="$"/>
<glyph glyph-name="percent" horiz-adv-x="1299" unicode="%" d="M624 81q-72 73 -72 175q0 103 72 176q73 72 176 72q102 0 175 -72q73 -73 73 -176q0 -102 -73 -175t-175 -73q-103 0 -176 73zM714 342q-35 -36 -35 -86t35 -85q36 -35 86 -35t85 35q36 35 36 85t-36 86q-35 35 -85 35t-86 -35zM73 971q-73 72 -73 175q0 102 73 175 q72 73 175 73t175 -73q73 -73 73 -175q0 -103 -73 -175q-72 -73 -175 -73t-175 73zM163 1231q-36 -35 -36 -85t36 -86q35 -35 85 -35t85 35q36 36 36 86t-36 85q-35 36 -85 36t-85 -36zM47 0q0 168 159 405q95 142 345 431q350 406 350 510h128q0 -101 -114 -264 q-70 -100 -268 -329q-229 -265 -319 -396q-154 -221 -154 -357h-127z"/>
<glyph glyph-name="ampersand" horiz-adv-x="1158" unicode="&amp;" d="M1116 46l-94 -86l-124 134q-75 -113 -253 -113h-222q-254 0 -302 241q-21 104 -21 192q0 138 51 236q32 61 122 119l-29 32q-61 69 -61 211q0 34 3 71l3 36q8 113 98 177q90 65 242 67h10q152 -2 242 -67q90 -64 99 -177q0 -12 3 -36q4 -46 4 -83q0 -76 -16 -120 q-40 -114 -192 -169l-43 120q94 34 116 91q8 22 8 69q0 34 -4 80q-2 26 -3 38q-10 125 -219 127q-209 -2 -218 -127q-1 -11 -4 -38q-3 -34 -3 -62q0 -90 29 -122l495 -536q2 25 2 49q-1 40 -1 95t1 126h127v-220q0 -102 -14 -174zM423 108h222q129 0 162 84l-446 482 q-78 -46 -97 -83q-28 -53 -30 -177v-27q0 -84 11 -140q15 -75 49 -104q39 -35 129 -35z"/>
<glyph glyph-name="quotesingle" horiz-adv-x="346" unicode="&apos;" d="M46 993q0 79 88 207q87 127 87 203h127q0 -116 -109 -275q-66 -96 -66 -135h-127z"/>
<glyph glyph-name="parenleft" horiz-adv-x="529" unicode="(" d="M348 -164q-65 68 -126 210q-119 275 -119 651t119 651q61 142 126 210l92 -88q-52 -56 -106 -184q-104 -249 -104 -589t104 -589q53 -128 106 -184z"/>
<glyph glyph-name="parenright" horiz-adv-x="529" unicode=")" d="M188 1559q65 -68 126 -210q119 -275 119 -651t-119 -651q-61 -142 -126 -210l-92 88q52 56 106 184q104 249 104 589t-104 589q-53 128 -106 184z"/>
<glyph glyph-name="asterisk" horiz-adv-x="1024" unicode="*" d="M498 1294q-4 71 -37 130q-37 66 -37 84q0 32 23.5 51.5t62.5 19.5q37 0 61.5 -18t24.5 -47q0 -21 -36 -89q-33 -61 -37 -130q66 25 113 75q51 55 69 61q11 3 21 3q18 0 35 -10q26 -17 38 -53q6 -19 6 -36q0 -15 -4 -28q-10 -30 -38 -38q-6 -2 -19 -2q-25 0 -76 9 q-28 5 -55 5q-41 0 -81 -11q44 -55 105 -83q68 -32 79 -47q13 -18 13 -38q0 -9 -2 -17q-8 -30 -39 -53q-29 -22 -59 -22q-1 0 -1 1q-31 0 -48 23q-12 17 -22 94q-10 67 -47 125q-38 -58 -46 -124q-9 -75 -20 -90q-19 -25 -49 -27h-5q-28 0 -57 21q-30 21 -39 51q-4 10 -4 20 q0 17 11 32q13 17 83 51q61 29 105 82q-41 11 -80 11q-27 0 -53 -5q-54 -11 -78 -11q-9 0 -14 2q-30 9 -41 38q-6 13 -6 29q0 17 6 36q11 35 36 53q17 12 34 12q9 0 18 -3q20 -6 74 -62q47 -49 112 -75z"/>
<glyph glyph-name="plus" horiz-adv-x="1062" unicode="+" d="M458 1148h127v-361h361v-127h-361v-361h-127v361h-361v127h361v361z"/>
<glyph glyph-name="comma" horiz-adv-x="435" unicode="," d="M-58 -206q0 79 88 207q87 127 87 203h127q0 -116 -109 -275q-66 -96 -66 -135h-127z"/>
<glyph glyph-name="hyphen" horiz-adv-x="670" unicode="-" d="M156 409q-40 0 -40 28v83q0 29 41 29h356q41 0 41 -29v-83q0 -28 -40 -28h-358z"/>
<glyph glyph-name="hyphen" horiz-adv-x="670" unicode="­" d="M156 409q-40 0 -40 28v83q0 29 41 29h356q41 0 41 -29v-83q0 -28 -40 -28h-358z"/>
<glyph glyph-name="period" horiz-adv-x="364" unicode="." d="M147 33q-25 -25 -61 -25t-62 25q-25 26 -25 62t25 61q26 26 62 26t61 -26q26 -25 26 -61t-26 -62z"/>
<glyph glyph-name="slash" horiz-adv-x="574" unicode="/" d="M311 1347h127l-311 -1347h-127z"/>
<glyph glyph-name="zero" d="M250 32q-95 62 -133 195q-21 72 -21 389v57q2 343 15 408q53 280 393 280q351 0 404 -280q13 -65 15 -408v-57q0 -317 -21 -389q-39 -135 -131 -196q-93 -61 -260 -61q-166 0 -261 62zM304 1188q-51 -39 -68 -131q-13 -64 -13 -394v-37q0 -308 16 -364q24 -84 77 -121 q63 -44 195 -44q133 0 193 42q51 34 76 123q16 56 16 364v37q0 330 -13 394q-16 89 -70 129q-66 48 -209 48q-139 0 -200 -46z" unicode="0"/>
<glyph glyph-name="one" horiz-adv-x="609" unicode="1" d="M491 0h-127v1136q-15 -12 -46 -36q-85 -67 -88 -85l-127 1q0 77 137 184q124 97 124 146h127v-1346z"/>
<glyph glyph-name="two" horiz-adv-x="922" unicode="2" d="M751 0h-648v471q0 67 47 129q41 54 88 72q56 21 119 45q128 49 189 71q94 36 116 91q8 22 8 68q0 33 -4 78q-2 23 -3 38q-6 80 -88 122q-61 31 -136 31h-317v127h317q133 0 230 -66q111 -74 121 -205q1 -14 3 -36q4 -44 4 -81q0 -74 -16 -118q-40 -112 -191 -168 q-60 -22 -188 -71q-92 -35 -119 -45q-14 -6 -32 -30q-21 -28 -21 -52v-344h521v-127z"/>
<glyph glyph-name="three" horiz-adv-x="919" unicode="3" d="M637 772q91 -59 123 -121q44 -84 45 -234q0 -102 -15 -176q-48 -241 -302 -241h-389v127h389q90 0 130 35q33 29 48 104q17 86 17 156q0 102 -36 170q-26 52 -149 111l-141 -55l-46 118l209 83q64 31 78 78q5 17 5 51q0 30 -4 74q-2 27 -3 40q-10 127 -224 127h-273v127 h273q156 0 249 -65q93 -64 101 -179q1 -14 4 -38q4 -48 4 -85q0 -41 -5 -68q-17 -85 -88 -139z"/>
<glyph glyph-name="four" horiz-adv-x="912" unicode="4" d="M645 1346h128v-1346h-128v599q-135 59 -266 111q-167 65 -233 179q-47 82 -47 209v248h127v-248q0 -101 37 -157q44 -66 162 -113q105 -41 220 -91v609z"/>
<glyph glyph-name="five" horiz-adv-x="925" unicode="5" d="M115 0v127h317q75 0 136 31q82 42 88 122l2 25q5 64 5 113q0 70 -10 113q-24 103 -114 136q-60 22 -189 72q-66 25 -119 45q-47 18 -88 72q-47 62 -47 129v358h648v-127h-521v-231q0 -24 21 -52q18 -24 33 -31q37 -14 118 -45q126 -47 188 -71q153 -57 193 -221 q14 -58 14 -149q0 -55 -5 -122l-2 -23q-10 -131 -121 -205q-97 -66 -230 -66h-317z"/>
<glyph glyph-name="six" horiz-adv-x="948" unicode="6" d="M459 -40q-151 2 -241 67q-90 64 -99 177q-23 305 -23 524q0 237 27 373q48 241 303 241h257v-127h-257q-90 0 -130 -35q-33 -30 -48 -104q-5 -28 -8 -209l369 -120q154 -55 195 -234q13 -60 13 -155q0 -60 -5 -133l-2 -21q-9 -113 -99 -177q-90 -65 -241 -67h-11z M239 734v-136q0 -286 7 -385q9 -124 218 -126q210 2 219 126l2 22q5 71 5 126q0 77 -10 124q-26 110 -113 142z"/>
<glyph glyph-name="seven" horiz-adv-x="879" unicode="7" d="M274 0q0 245 187 611q153 300 153 466v141h-521v127h648v-268q0 -196 -167 -523q-173 -339 -173 -554h-127z"/>
<glyph glyph-name="eight" horiz-adv-x="1016" unicode="8" d="M790 795q93 -60 126 -122q42 -81 44 -235v-25q0 -99 -14 -170q-48 -243 -305 -243h-226q-256 0 -304 243q-21 105 -21 194q0 138 51 236q33 62 126 122q-73 58 -90 151q-5 28 -5 72q0 39 4 90q2 22 3 37q7 90 68 149q87 85 275 87h13q187 -2 275 -87q61 -59 67 -149 q1 -12 4 -37q4 -51 4 -90q0 -43 -5 -72q-17 -93 -90 -151zM307 1135q-1 -11 -3 -38q-5 -49 -5 -83q0 -37 6 -57q15 -55 84 -88l139 -54l139 54q70 33 85 88q5 19 5 57q0 34 -4 83q-2 25 -3 38q-9 117 -219 118h-5q-210 -1 -219 -118zM772 163q34 30 49 105q11 56 11 141v27 q-2 124 -30 178q-27 52 -150 112l-124 -49l-123 49q-123 -60 -150 -112q-28 -54 -30 -178v-27q0 -85 11 -141q15 -75 49 -105q40 -35 130 -35h226q91 0 131 35z"/>
<glyph glyph-name="nine" horiz-adv-x="905" unicode="9" d="M410 0q-131 0 -198 52q-67 53 -91 176l125 24q15 -76 43 -99q32 -26 121 -26h86q91 0 130 35q34 29 48 104q8 40 9 344l-370 120q-152 55 -192 169q-16 44 -16 120q0 38 4 83q3 27 3 36q9 113 99 177q90 65 242 67h10q152 -2 242 -67q90 -64 98 -177q23 -305 23 -524 q0 -237 -27 -373q-48 -241 -303 -241h-86zM684 743q-1 296 -8 385q-9 125 -218 127q-209 -2 -219 -127q-1 -12 -3 -38q-4 -46 -4 -80q0 -47 8 -69q22 -57 115 -91z"/>
<glyph glyph-name="colon" horiz-adv-x="397" unicode=":" d="M256 260q-25 -25 -61 -25t-62 25q-25 26 -25 62t25 61q26 26 62 26t61 -26q26 -25 26 -61t-26 -62zM240 813q-25 -25 -61 -25t-62 25q-25 26 -25 62t25 61q26 26 62 26t61 -26q26 -25 26 -61t-26 -62z"/>
<glyph glyph-name="less" d="M927 1074l-625 -359l625 -355v-167l-840 481v83l840 484v-167z" unicode="&lt;"/>
<glyph glyph-name="equal" horiz-adv-x="916" unicode="=" d="M0 767v127h706v-127h-706zM0 429v127h706v-127h-706z"/>
<glyph glyph-name="greater" d="M87 1241l840 -484v-83l-840 -481v167l625 355l-625 359v167z" unicode="&gt;"/>
<glyph glyph-name="question" horiz-adv-x="941" unicode="?" d="M414 -94q-26 -26 -62 -26q-37 0 -63 26t-26 63q0 36 26 62t63 26q36 0 62 -26t26 -62q0 -37 -26 -63zM413 192h-127v317q0 64 45 126q40 53 87 74l10 4q72 32 151 70q97 48 119 104q9 24 9 74q0 30 -3 71q-1 21 -2 28q-6 81 -88 122q-61 31 -136 31q-145 0 -209 -69 q-46 -49 -46 -110q0 -8 1 -16l-127 -10q-1 13 -1 25q0 111 80 198q101 110 302 110q132 0 230 -66q111 -75 121 -205q1 -9 2 -28q4 -42 4 -78q0 -74 -16 -117q-39 -106 -184 -178q-81 -40 -156 -72l-10 -5q-15 -6 -34 -31q-22 -29 -22 -52v-317z"/>
<glyph glyph-name="at" horiz-adv-x="1451" unicode="@" d="M1168 1180q95 -62 134 -195q20 -72 20 -361v-54q-2 -313 -15 -381q-24 -131 -102 -165q-54 -23 -239 -23h-79v96q-97 -52 -208 -52q-138 0 -220 87t-82 233q0 139 91 225t240 86q108 0 179 -30q-1 106 -23 150q-23 43 -85 61q-40 11 -83 11q-93 0 -194 -54l-60 112 q131 69 253 69q60 0 118 -16q125 -34 170 -138q31 -70 31 -202v-511q111 0 137 12q19 8 32 72q11 62 12 366v34q0 283 -16 337q-24 84 -77 121q-63 44 -195 44h-402q-139 0 -200 -46q-51 -39 -68 -131q-12 -64 -13 -394v-37q0 -308 16 -364q24 -84 77 -121q63 -44 195 -44 v-127q-166 0 -261 62t-133 195q-21 72 -21 407v31q1 344 15 416q53 280 393 280h402q166 0 261 -61zM887 256v237q-47 55 -179 55q-94 0 -149 -49t-55 -134q0 -111 63 -159q44 -33 112 -33q141 0 208 83z"/>
<glyph glyph-name="A" horiz-adv-x="1099" unicode="A" d="M1015 0h-127q0 134 -82 421h-502q-80 -287 -80 -421h-127q0 349 397 1347h118q403 -998 403 -1347zM341 548h427q-85 275 -215 616q-128 -341 -212 -616z"/>
<glyph glyph-name="B" horiz-adv-x="962" unicode="B" d="M100 0v1346h336q156 0 249 -65q93 -64 102 -179q1 -15 3 -38q4 -51 4 -89t-4 -64q-17 -84 -89 -139q92 -59 124 -121q50 -96 50 -228q0 -84 -20 -182q-48 -241 -303 -241h-452zM227 127h325q90 0 130 35q33 29 48 104q17 86 17 157q0 101 -35 169q-28 55 -150 112 q-134 -48 -335 -110v-467zM227 1219v-492q195 62 317 105q94 34 115 83q9 21 9 67q0 30 -4 70q-3 27 -4 40q-9 127 -224 127h-209z"/>
<glyph glyph-name="C" horiz-adv-x="1016" unicode="C" d="M250 42q-95 62 -133 195q-21 72 -21 389v57q2 343 15 408q53 280 393 280q351 0 404 -280l-125 -24q-16 89 -70 129q-66 48 -209 48q-139 0 -200 -46q-51 -39 -68 -131q-13 -64 -13 -394v-37q0 -308 16 -364q24 -84 77 -121q63 -44 195 -44q133 0 193 42q51 34 76 123 l122 -35q-39 -135 -131 -196q-93 -61 -260 -61q-166 0 -261 62z"/>
<glyph glyph-name="D" horiz-adv-x="952" unicode="D" d="M102 0l-5 1346h349q352 0 405 -280q12 -65 14 -385v-76q0 -279 -20 -348q-39 -135 -132 -196t-260 -61h-351zM229 127h224q134 0 194 42q50 34 76 123q16 56 16 343v35q-1 308 -13 372q-17 89 -71 129q-66 48 -209 48h-221z"/>
<glyph glyph-name="E" horiz-adv-x="896" unicode="E" d="M100 1348h617v-128h-490v-389h445v-128h-445v-576h535v-127h-662v1348z"/>
<glyph glyph-name="F" horiz-adv-x="766" unicode="F" d="M100 1347h617v-127h-490v-390h445v-127h-445v-703h-127v1347z"/>
<glyph glyph-name="G" horiz-adv-x="1012" unicode="G" d="M254 32q-95 62 -133 195q-21 72 -21 389v57q2 343 15 408q53 280 393 280q351 0 404 -280l-125 -24q-16 89 -70 129q-66 48 -209 48q-139 0 -200 -46q-51 -39 -68 -131q-13 -64 -13 -394v-37q0 -308 16 -364q24 -84 77 -121q63 -44 195 -44q133 0 193 42q51 34 76 123 q15 49 16 318h-230v127h357v-63v-29q0 -317 -21 -388q-39 -135 -131 -196q-93 -61 -260 -61q-166 0 -261 62z"/>
<glyph glyph-name="H" horiz-adv-x="939" unicode="H" d="M704 1346h127v-1346h-127v703h-477v-703h-127v1346h127v-516h477v516z"/>
<glyph glyph-name="I" horiz-adv-x="400" unicode="I" d="M98 0v1346h127v-1346h-127z"/>
<glyph glyph-name="J" horiz-adv-x="819" unicode="J" d="M278 -16q-91 27 -142 99q-50 73 -50 179h127q0 -127 101 -156q37 -10 71 -10q45 0 87 17q52 22 74 82q22 61 22 186v961h127v-961q0 -133 -22 -207q-39 -131 -153 -179q-61 -25 -134 -25q-58 0 -108 14z"/>
<glyph glyph-name="K" horiz-adv-x="997" unicode="K" d="M808 1098q0 -255 -221 -362q308 -494 308 -736h-127q0 209 -301 689q-114 -42 -237 -91v-598h-127v1346h127v-611q136 53 249 94q119 43 164 110q38 57 38 159v248h127v-248z"/>
<glyph glyph-name="L" horiz-adv-x="799" unicode="L" d="M103 1347h127v-1220h535v-127h-662v1347z"/>
<glyph glyph-name="M" horiz-adv-x="1302" unicode="M" d="M1072 0q0 284 -176 1139q-199 -472 -199 -670h-127q0 198 -202 670q-171 -855 -171 -1139h-127q0 348 214 1345h119q168 -350 230 -550q61 199 227 550h120q219 -995 219 -1345h-127z"/>
<glyph glyph-name="N" horiz-adv-x="1009" unicode="N" d="M875 0h-127q0 139 -117 362q-69 132 -244 398q-114 174 -161 254v-1014h-127v1346h127q0 -109 268 -516q182 -278 254 -418v934h127v-1346z"/>
<glyph glyph-name="O" horiz-adv-x="1044" unicode="O" d="M241 32q-95 62 -133 195q-21 72 -21 389v57q2 343 15 408q53 280 393 280q351 0 404 -280q13 -65 15 -408v-57q0 -317 -21 -389q-39 -135 -131 -196q-93 -61 -260 -61q-166 0 -261 62zM295 1188q-51 -39 -68 -131q-13 -64 -13 -394v-37q0 -308 16 -364q24 -84 77 -121 q63 -44 195 -44q133 0 193 42q51 34 76 123q16 56 16 364v37q0 330 -13 394q-16 89 -70 129q-66 48 -209 48q-139 0 -200 -46z"/>
<glyph glyph-name="P" horiz-adv-x="839" unicode="P" d="M230 0h-127v1347h336q133 0 230 -66q111 -74 121 -205q1 -8 3 -35q4 -49 4 -89q0 -77 -15 -121q-41 -117 -192 -171q-140 -51 -360 -111v-549zM230 1220v-539q196 55 317 98q91 33 113 91q10 26 10 79q0 34 -4 80q-2 25 -3 38q-6 80 -88 122q-61 31 -136 31h-209z"/>
<glyph glyph-name="Q" horiz-adv-x="1096" unicode="Q" d="M886 227q-5 -18 -12 -37q130 -112 130 -198h-128q0 26 -67 86q-97 -108 -314 -108q-166 0 -261 62t-133 195q-21 72 -21 389v57q2 343 15 408q53 280 393 280q351 0 404 -280q13 -65 15 -408v-57q0 -317 -21 -389zM207 663v-37q0 -308 16 -364q24 -84 77 -121 q63 -44 195 -44q160 0 219 64q-136 124 -136 241h127q0 -52 64 -117q11 87 11 333v79q-2 302 -13 360q-16 89 -70 129q-66 48 -209 48q-139 0 -200 -46q-51 -39 -68 -131q-13 -64 -13 -394z"/>
<glyph glyph-name="R" horiz-adv-x="909" unicode="R" d="M835 0h-128q0 196 -254 614q-104 -32 -223 -65v-549h-127v1347h336q140 0 243 -71q113 -78 113 -205q0 -18 1 -56q1 -22 1 -42q0 -100 -21 -153q-43 -109 -186 -160q-1 -1 -14 -5q259 -430 259 -655zM230 1220v-539q196 55 317 98q88 32 111 88q12 30 12 102q0 19 -1 41 q-2 40 -2 61q0 74 -80 115q-66 34 -148 34h-209z"/>
<glyph glyph-name="S" horiz-adv-x="939" unicode="S" d="M183 87q-103 81 -140 206l122 36q31 -105 124 -161q69 -41 154 -41q46 0 97 12q115 29 165 135q31 65 31 132q0 23 -4 46q-27 166 -293 271q-135 53 -200 102q-116 86 -130 214q-2 17 -2 34q0 96 64 180q69 91 170 117q62 17 120 17q79 0 149 -32q122 -56 161 -180 l-121 -38q-23 74 -101 105q-44 17 -93 17q-40 0 -83 -11q-58 -16 -100 -71q-38 -50 -38 -105q0 -10 1 -19q8 -74 82 -129q52 -38 167 -83q334 -131 372 -369q6 -36 6 -72q0 -106 -54 -203q-79 -142 -239 -181q-65 -16 -126 -16q-149 0 -261 87z"/>
<glyph glyph-name="T" horiz-adv-x="732" unicode="T" d="M33 1346h698v-127h-285v-1219h-128v1219h-285v127z"/>
<glyph glyph-name="U" horiz-adv-x="954" unicode="U" d="M254 51q-96 71 -130 186q-21 73 -21 544q0 235 5 569h127q-5 -359 -5 -600q0 -417 16 -478q24 -80 93 -125q61 -40 135 -40q81 0 142 44q60 45 82 121q16 61 16 478q0 241 -5 600h127q5 -334 5 -569q0 -470 -21 -544q-34 -117 -128 -187t-218 -70t-220 71z"/>
<glyph glyph-name="V" horiz-adv-x="1025" unicode="V" d="M469 0q-389 980 -389 1346h127q0 -286 321 -1143q316 857 316 1143h127q0 -366 -384 -1346h-118z"/>
<glyph glyph-name="W" horiz-adv-x="1421" unicode="W" d="M961 0q-145 302 -230 578q-84 -276 -227 -578l-118 9q-293 978 -293 1341h127q0 -286 239 -1137q208 488 208 691h127q0 -204 213 -695q250 854 250 1141h127q0 -363 -305 -1341z"/>
<glyph glyph-name="X" horiz-adv-x="1003" unicode="X" d="M894 0h-127q0 194 -274 638q-273 -444 -273 -638h-127q0 241 325 758q-31 48 -87 134q-238 366 -238 448h127q1 -46 218 -379q38 -59 55 -85q20 30 56 85q217 333 218 379h127q0 -82 -238 -448q-57 -88 -87 -134q325 -517 325 -758z"/>
<glyph glyph-name="Y" horiz-adv-x="949" unicode="Y" d="M766 1346h128q0 -215 -144 -467q-84 -147 -193 -271v-608h-127v614q-337 381 -337 732h127q0 -278 276 -613q270 336 270 613z"/>
<glyph glyph-name="Z" horiz-adv-x="980" unicode="Z" d="M844 0h-751v64q0 130 318 658q228 378 271 495h-552v127h694v-64q0 -120 -304 -623q-244 -405 -286 -530h610v-127z"/>
<glyph glyph-name="bracketleft" horiz-adv-x="479" unicode="[" d="M359 -229h-323v1807h323v-127h-196v-1553h196v-127z"/>
<glyph glyph-name="backslash" horiz-adv-x="569" unicode="\" d="M0 1347h127l311 -1347h-127z"/>
<glyph glyph-name="bracketright" horiz-adv-x="556" unicode="]" d="M36 -102h196v1553h-196v127h323v-1807h-323v127z"/>
<glyph glyph-name="asciicircum" unicode="^"/>
<glyph glyph-name="underscore" horiz-adv-x="1024" unicode="_" d="M0 -100h1024v-60h-1024v60z"/>
<glyph glyph-name="grave" horiz-adv-x="1024" unicode="`" d="M673 1079h-69l-330 202q-31 20 -46.5 40t-15.5 42q0 31 20.5 51t53.5 20q20 0 40.5 -12t55.5 -47z"/>
<glyph glyph-name="a" horiz-adv-x="849" unicode="a" d="M152 861q131 69 253 69q60 0 118 -16q125 -35 170 -138q31 -70 31 -203v-574h-127q-2 30 -26 19q-94 -38 -182 -38q-137 0 -220 87q-82 87 -82 232q0 140 91 225q91 86 240 86q108 0 179 -30q-1 107 -23 150q-22 44 -85 62q-40 11 -82 11q-92 0 -195 -54zM277 141 q44 -34 112 -34q141 0 208 84v237q-47 55 -179 55q-94 0 -149 -49q-55 -50 -55 -135q0 -110 63 -158z"/>
<glyph glyph-name="b" horiz-adv-x="869" unicode="b" d="M433 919q248 0 317 -239q30 -103 30 -219q0 -93 -19 -194q-25 -129 -112 -209q-86 -80 -203 -80q-98 0 -188 38q-28 12 -32 -16h-127v1408h127v-532q98 43 207 43zM568 156q52 50 68 135q17 89 17 170q0 98 -25 184q-42 147 -195 147q-117 0 -207 -59v-556 q103 -72 220 -72q70 0 122 51z"/>
<glyph glyph-name="c" horiz-adv-x="806" unicode="c" d="M228 50q-92 70 -126 187q-26 91 -26 198q0 96 21 205q25 136 112 208q86 73 222 73q196 0 296 -154l-107 -69q-62 96 -189 96q-176 0 -210 -177q-18 -96 -18 -179q0 -91 22 -166q22 -76 79 -121q57 -44 134 -44q118 0 179 93l106 -70q-98 -150 -285 -150q-119 0 -210 70z "/>
<glyph glyph-name="d" horiz-adv-x="889" unicode="d" d="M655 1406h127v-1408h-127q0 29 -27 18q-98 -40 -193 -40q-117 0 -203 80q-87 80 -112 209q-19 101 -19 194q0 116 30 219q63 219 312 239q18 1 36 1q92 0 176 -34v522zM313 154q51 -51 122 -51q117 0 220 72v566q-75 50 -172 50q-15 0 -30 -1q-161 -13 -200 -147 q-25 -86 -25 -184q0 -81 17 -170q16 -85 68 -135z"/>
<glyph glyph-name="e" horiz-adv-x="869" unicode="e" d="M247 51q-90 70 -119 188q-28 113 -28 215q0 94 24 178q40 140 133 217q93 76 223 76q120 0 200 -72q80 -73 101 -201q8 -46 8 -83q0 -22 -3 -41l-6 -46l-548 -101q6 -56 19 -111q19 -76 75 -119q56 -44 134 -44q126 0 198 84l97 -82q-110 -129 -295 -129q-122 0 -213 71z M246 598q-11 -38 -15 -88l429 80q-1 20 -5 42q-27 166 -175 166q-177 0 -234 -200z"/>
<glyph glyph-name="f" horiz-adv-x="599" unicode="f" d="M565 1285q-38 11 -74 11q-43 0 -83 -16q-52 -22 -72 -75q-16 -44 -16 -135v-170h192v-128h-192v-772h-127v772h-137v128h137v170q0 106 21 169q37 113 145 158q65 27 134 27q53 0 108 -16z"/>
<glyph glyph-name="g" horiz-adv-x="899" unicode="g" d="M649 897h127v-1119q0 -102 -26 -156q-37 -79 -141 -122q-61 -25 -132 -25q-58 0 -109 15q-112 32 -160 115q-35 61 -41 163l127 8q5 -82 31 -118q23 -30 78 -46q38 -11 73 -11q44 0 85 17q59 24 75 58q13 27 13 102v243q-98 -42 -207 -42q-248 0 -317 238 q-30 104 -30 220q0 93 19 193q25 130 112 210q86 80 203 80q99 0 195 -41q26 -11 25 18zM247 253q42 -147 195 -147q116 0 207 59v556q-103 71 -220 71q-71 0 -122 -50q-52 -51 -68 -136q-17 -89 -17 -169q0 -98 25 -184z"/>
<glyph glyph-name="h" horiz-adv-x="847" unicode="h" d="M231 868q124 51 243 51q129 0 206 -85q78 -84 78 -226v-608h-127v608q0 183 -157 183q-121 0 -243 -63v-728h-127v1408h127v-540z"/>
<glyph glyph-name="i" horiz-adv-x="389" unicode="i" d="M231 1071q-25 -25 -61 -25t-62 25q-25 26 -25 62t25 61q26 26 62 26t61 -26q26 -25 26 -61t-26 -62zM111 0v900h127v-900h-127z"/>
<glyph glyph-name="j" horiz-adv-x="423" unicode="j" d="M237 1066q-26 -26 -62 -26t-61 26q-26 25 -26 61t26 62q25 25 61 25t62 -25q25 -26 25 -62t-25 -61zM-169 -513l35 122q38 -11 73 -11q44 0 84 17q53 21 72 74q17 44 17 135v1070h127v-1070q0 -258 -167 -327q-61 -25 -132 -25q-58 0 -109 15z"/>
<glyph glyph-name="k" horiz-adv-x="839" unicode="k" d="M766 900q0 -106 -223 -355q-2 -3 -7 -7q-4 -5 -6 -8q239 -266 239 -530h-127q0 209 -197 434q-218 -256 -218 -428v-6h-127v1408h127v-1080q66 129 221 302q191 212 191 270h127z"/>
<glyph glyph-name="l" horiz-adv-x="393" unicode="l" d="M310 -20q-90 0 -148 57q-66 66 -66 187v1184h127v-1184q0 -68 29 -96q21 -21 56 -21h3l2 -127h-3z"/>
<glyph glyph-name="m" horiz-adv-x="1272" unicode="m" d="M623 852q108 67 253 67q134 0 214 -82q79 -82 79 -220v-617h-127v617q0 174 -166 174q-112 0 -188 -49q17 -55 17 -125v-617h-127v617q0 104 -44 145q-32 29 -95 29q-117 0 -216 -60v-731h-127v900h127q-1 -25 27 -15q97 34 189 34q115 0 184 -67z"/>
<glyph glyph-name="n" horiz-adv-x="862" unicode="n" d="M457 919q12 1 24 1q115 0 182 -64q82 -76 82 -243v-613h-127v613q0 112 -42 151q-30 28 -95 28h-17q-121 -7 -237 -79v-713h-127v900h127q-1 -40 37 -26q118 40 193 45z"/>
<glyph glyph-name="o" horiz-adv-x="879" unicode="o" d="M240 51q-93 70 -127 187q-26 91 -26 199q0 97 21 206q25 136 113 209q86 73 222 73q132 0 228 -77q96 -79 120 -205q21 -109 21 -204q0 -109 -27 -201q-35 -121 -124 -189q-88 -69 -211 -69q-119 0 -210 71zM233 620q-19 -97 -19 -180q0 -91 23 -166q22 -77 79 -122 q57 -44 134 -44q164 0 212 166q21 74 21 165q0 84 -18 181q-15 82 -75 129q-59 49 -147 49q-176 0 -210 -178z"/>
<glyph glyph-name="p" horiz-adv-x="859" unicode="p" d="M654 836q87 -80 112 -210q19 -101 19 -193q0 -116 -30 -220q-69 -238 -317 -238q-109 0 -207 42v-532h-127v1408h127q0 -29 24 -18q97 40 196 40q117 0 203 -79zM438 102q153 0 195 147q25 86 25 184q0 81 -17 169q-16 85 -68 136q-52 50 -122 50q-117 0 -220 -71v-557 q90 -58 207 -58z"/>
<glyph glyph-name="q" horiz-adv-x="893" unicode="q" d="M637 893h127v-1408h-127v532q-98 -42 -207 -42q-249 0 -317 238q-30 103 -30 219q0 93 19 194q25 130 112 210q86 79 203 79q99 0 197 -41q24 -10 23 19zM235 249q42 -147 195 -147q117 0 207 58v557q-103 71 -220 71q-71 0 -122 -50q-52 -51 -68 -136q-17 -89 -17 -169 q0 -98 25 -184z"/>
<glyph glyph-name="r" horiz-adv-x="649" unicode="r" d="M252 856q84 39 140 52q31 7 60 7q117 0 212 -111l-97 -83q-56 66 -118 66q-14 0 -28 -3q-80 -18 -194 -86v-698h-127v900h127v-33q0 -23 25 -11z"/>
<glyph glyph-name="s" horiz-adv-x="680" unicode="s" d="M325 -20q-159 1 -258 94l87 93q63 -59 172 -60h2q84 0 134 53q36 39 36 91v11q-8 114 -177 182l-7 3q-95 38 -137 72q-72 58 -80 149q-1 11 -1 22q0 68 43 127q50 67 131 87q40 10 78 10q117 0 219 -90l-83 -95q-65 57 -137 57q-23 0 -47 -6q-33 -8 -55 -34 q-22 -27 -22 -59v-8q4 -39 37 -64q26 -20 102 -50l7 -3q243 -98 256 -291q1 -9 1 -19q0 -103 -72 -179q-88 -93 -226 -93h-3z"/>
<glyph glyph-name="t" horiz-adv-x="549" unicode="t" d="M509 773h-171v-546q0 -71 30 -98q24 -22 76 -22q16 0 35 2l14 -126q-24 -3 -47 -3q-102 0 -163 54q-72 65 -72 193v546h-158v127h158v329h127v-329h171v-127z"/>
<glyph glyph-name="u" horiz-adv-x="856" unicode="u" d="M634 899h127v-900h-127q1 43 -29 30q-115 -49 -223 -49q-129 0 -202 80t-73 221v618h127v-618q0 -174 148 -174q123 0 252 79v713z"/>
<glyph glyph-name="v" horiz-adv-x="872" unicode="v" d="M393 0q-310 671 -310 898h127q0 -180 240 -737q237 557 237 737h127q0 -227 -305 -898h-116z"/>
<glyph glyph-name="w" horiz-adv-x="1355" unicode="w" d="M400 0q-310 671 -310 898h127q0 -174 228 -709l189 647h122l191 -646q225 535 225 708h127q0 -227 -305 -898h-119l-179 593l-177 -593h-119z"/>
<glyph glyph-name="x" horiz-adv-x="899" unicode="x" d="M445 583h1q228 238 228 311h127q0 -83 -79 -191q-48 -66 -185 -208q0 -1 -2 -2q-1 -2 -2 -2q268 -290 268 -491h-127q0 150 -229 398q-228 -248 -228 -398h-127q0 201 268 491q-1 0 -2 2q-2 1 -3 2q-136 142 -184 208q-79 108 -79 191h127q0 -73 228 -311z"/>
<glyph glyph-name="y" horiz-adv-x="868" unicode="y" d="M604 893h127v-1118q0 -101 -26 -156q-37 -78 -141 -122q-32 -13 -89 -13q-109 0 -270 43l32 123q157 -42 231 -42q30 0 47 7q60 25 76 59q13 26 13 101v241q-93 -40 -198 -40q-231 0 -299 239q-20 68 -20 310q0 151 8 370l127 -5q-9 -234 -9 -384q0 -203 16 -256 q23 -80 63 -114q40 -33 114 -33q115 0 198 57v733z"/>
<glyph glyph-name="z" horiz-adv-x="781" unicode="z" d="M243 127h496v-127h-639v64q0 91 82 213q50 73 185 226q169 191 206 268h-436v127h581v-63q0 -127 -255 -416q-183 -207 -220 -292z"/>
<glyph glyph-name="braceleft" horiz-adv-x="645" unicode="{" d="M488 -396q-171 61 -238 179q-48 83 -48 210v342q0 103 -38 159q-45 68 -164 111v120q119 42 164 110q38 57 38 159v342q0 128 48 211q67 118 238 179l43 -120q-119 -43 -164 -111q-38 -56 -38 -159v-342q0 -222 -163 -329q163 -107 163 -330v-342q0 -102 38 -159 q45 -68 164 -110z"/>
<glyph glyph-name="bar" horiz-adv-x="400" unicode="|" d="M9 -364v1971h127v-1971h-127z"/>
<glyph glyph-name="braceright" horiz-adv-x="703" unicode="}" d="M43 1726q171 -61 238 -179q48 -83 48 -211v-342q0 -102 38 -159q45 -68 164 -110v-120q-119 -43 -164 -111q-38 -56 -38 -159v-342q0 -127 -48 -210q-67 -118 -238 -179l-43 120q119 42 164 110q38 57 38 159v342q0 223 163 330q-163 107 -163 329v342q0 103 -38 159 q-45 68 -164 111z"/>
<glyph glyph-name="asciitilde" d="M923 878v-156q-63 -72 -122 -97.5t-116 -25.5q-60 0 -177.5 48.5t-176.5 48.5q-51 0 -107.5 -28t-129.5 -112v156q64 73 123 99t114 26q64 0 181.5 -49.5t172.5 -49.5q52 0 108.5 28t129.5 112z" unicode="~"/>
<glyph glyph-name="exclamdown" horiz-adv-x="463" unicode="¡" d="M195 834q-26 -26 -62 -26t-61 26q-26 25 -26 61t26 62q25 25 61 25t62 -25q25 -26 25 -62t-25 -61zM201 662v-1132h-127v1132h127z"/>
<glyph glyph-name="cent" horiz-adv-x="1139" unicode="¢"/>
<glyph glyph-name="sterling" horiz-adv-x="865" unicode="£" d="M343 656q-10 -68 -42 -212q-48 -217 -56 -321h516v-123h-642v62q0 134 61 409q28 126 38 185h-128v124h141q0 52 -9 90q-1 4 -8 30q-32 127 -32 217q0 18 1 35q8 110 90 172q81 62 222 64h10q143 -2 226 -64t91 -172l-123 -10q-3 46 -29 72q-48 50 -170 51 q-119 -1 -166 -50q-25 -26 -28 -73q-1 -12 -1 -25q0 -73 29 -187q6 -23 8 -30q12 -48 12 -110v-10h189v-124h-200z"/>
<glyph glyph-name="currency" d="M240 903l-118 118l80 81l118 -118q44 30 99 46q44 14 89 14q41 0 83 -12q57 -17 102 -48l118 118l80 -81l-117 -117q31 -46 48 -102q12 -42 12 -85q0 -42 -12 -85q-17 -56 -48 -102l117 -117l-80 -81l-118 118q-45 -32 -101 -48q-42 -12 -85 -12q-42 0 -85 12 q-57 16 -102 48l-118 -118l-80 81l118 117q-32 46 -48 103q-12 42 -12 84q0 44 13 87q16 55 47 99zM350 560q41 -40 99 -57q29 -8 58 -8t58 8q58 17 99 57q40 41 57 99q9 29 9 58t-9 58q-17 58 -57 99q-41 40 -100 57q-29 8 -58 8t-58 -9q-58 -17 -98 -56q-39 -40 -56 -98 q-10 -30 -10 -60q0 -28 9 -56q16 -59 57 -100z" unicode="¤"/>
<glyph glyph-name="yen" horiz-adv-x="1096" unicode="¥" d="M988 612h-375q-2 -3 -3 -4v-128h378v-127h-378v-353h-127v353h-379v127h379v132h-379v127h279q-237 328 -237 607h127q0 -274 270 -607h11q265 334 265 607h127q0 -279 -233 -607h275v-127z"/>
<glyph glyph-name="brokenbar" d="M427 1578h160v-789h-160v789zM427 371h160v-789h-160v789z" unicode="¦"/>
<glyph glyph-name="section" d="M466 -346q113 6 185 69q72 64 72 165q0 125 -316 276q-123 64 -175.5 137t-52.5 177q0 148 89 237q67 65 170 82l-40 19q-123 64 -175.5 137t-52.5 177q0 148 89 237q82 79 216 86q8 1 17 1h3q66 0 163 -16.5t97 -41.5v-194h-51q-5 81 -80 132q-70 47 -149 51h-15 q-78 0 -125 -44.5t-47 -117.5q0 -132 287 -269q149 -67 204.5 -143.5t55.5 -187.5q0 -171 -101 -282q-47 -39 -99 -64q108 -56 154 -118q55 -77 55 -187q0 -171 -101 -283q-124 -102 -277 -105v1q-6 -1 -13 -1h-3q-66 0 -163 16.5t-97 41.5v194h51q5 -81 80 -132 q68 -45 145 -50zM545 321q56 16 97 53q73 65 73 166q0 5 -1 10h-2q-1 14 -4 27q-22 61 -113 127q-59 29 -126 29q-78 0 -125 -44.5t-47 -117.5q0 -123 248 -250z" unicode="§"/>
<glyph glyph-name="dieresis" horiz-adv-x="1024" unicode="¨" d="M588 1289l71 72q13 12 25 12q11 0 27 -13l69 -74q10 -14 10 -25q0 -13 -12 -26l-69 -76q-17 -17 -25 -17q-14 0 -25 12l-76 87q-9 11 -9 22q0 13 14 26zM223 1289l71 72q13 12 25 12q11 0 27 -14l69 -73q10 -14 10 -25q0 -13 -12 -27l-69 -75q-17 -17 -25 -17 q-14 0 -25 12l-76 86q-9 12 -9 23q0 13 14 26z"/>
<glyph glyph-name="copyright" horiz-adv-x="1654" unicode="©" d="M308 175q-97 96 -150 221q-55 130 -55 271q0 289 205 493q96 97 221 150q130 55 271 55q289 0 493 -205q97 -96 150 -221q55 -130 55 -272q0 -288 -205 -492q-96 -97 -221 -150q-130 -55 -272 -55q-288 0 -492 205zM378 1090q-176 -175 -176 -423q0 -247 176 -422 q175 -176 422 -176q248 0 423 176q176 175 176 422q0 248 -176 423q-175 176 -423 176q-247 0 -422 -176zM633 311q-81 62 -111 166q-19 66 -19 180v11q1 103 14 169q23 120 100 185q76 64 198 64q83 0 152 -35q69 -36 111 -101l-95 -62q-55 85 -168 85q-81 0 -126 -38 q-46 -39 -61 -119q-10 -55 -11 -148v-23q0 -89 14 -136q19 -68 71 -108q51 -39 119 -39q105 0 159 82l95 -62q-87 -133 -254 -133q-106 0 -188 62z"/>
<glyph glyph-name="ordfeminine" horiz-adv-x="648" unicode="ª"/>
<glyph glyph-name="guillemotleft" horiz-adv-x="944" unicode="«" d="M487 479l342 303h14v-37l-205 -266l205 -266v-37h-14zM174 479l342 303h14v-37l-205 -266l205 -266v-37h-14z"/>
<glyph glyph-name="logicalnot" d="M87 767h840v-491l-1 -1h-98v392h-741v100z" unicode="¬"/>
<glyph glyph-name="registered" horiz-adv-x="1641" unicode="®" d="M300 183q-96 97 -148 221q-55 129 -55 270q0 287 203 490q97 97 221 149q129 55 270 55q287 0 490 -204q97 -96 149 -220q55 -129 55 -270q0 -287 -204 -491q-96 -96 -220 -148q-129 -55 -270 -55q-287 0 -491 203zM370 1095q-174 -175 -174 -421t174 -421 q175 -174 421 -174t421 174q174 175 174 421t-174 421q-175 174 -421 174t-421 -174zM1073 260h-121q0 44 -44 122q-13 23 -40 66q-27 44 -37 62q-85 -26 -170 -49v-201h-112v828h254q125 0 215 -67q100 -74 100 -197q0 -214 -166 -273q-7 -3 -12 -4q15 -31 42 -80 q39 -70 43 -78q48 -89 48 -129zM661 975v-397q142 39 253 79q60 21 80 78q11 30 11 89q0 78 -72 119q-56 32 -130 32h-142z"/>
<glyph glyph-name="macron" horiz-adv-x="670" unicode="¯"/>
<glyph glyph-name="degree" horiz-adv-x="674" unicode="°" d="M339 1442q115 0 196 -81.5t81 -196.5q0 -114 -82 -196t-197 -82q-117 0 -197 81t-80 197t81.5 197t197.5 81zM339 1372q-86 0 -147.5 -61t-61.5 -148t61 -147t148 -60t147 60t60 147t-60.5 148t-146.5 61z"/>
<glyph glyph-name="plusminus" unicode="±"/>
<glyph glyph-name="uni00B2" unicode="²"/>
<glyph glyph-name="uni00B3" unicode="³"/>
<glyph glyph-name="acute" horiz-adv-x="1024" unicode="´" d="M607 1375q35 35 55.5 47t40.5 12q33 0 53.5 -20t20.5 -51q0 -22 -15.5 -42t-46.5 -40l-330 -203h-69z"/>
<glyph glyph-name="mu" horiz-adv-x="1180" unicode="µ"/>
<glyph glyph-name="paragraph" horiz-adv-x="1024" unicode="¶" d="M929 1435v-70h-127v-1365h-82v1365h-166v-1365h-84v738q-174 8 -275.5 102.5t-101.5 245.5q0 157 107.5 253t285.5 96h443z"/>
<glyph glyph-name="cedilla" horiz-adv-x="1024" unicode="¸" d="M360 -290q85 -52 152 -52q66 0 94.5 21.5t28.5 66.5t-49 64q-40 16 -102 16q-16 0 -34 -2l48 176h63l-37 -104q32 4 62 5q86 0 134 -40.5t48 -113.5q0 -76 -58.5 -120.5t-160.5 -44.5q-109 0 -189 32v96z"/>
<glyph glyph-name="uni00B9" unicode="¹"/>
<glyph glyph-name="ordmasculine" horiz-adv-x="718" unicode="º"/>
<glyph glyph-name="guillemotright" horiz-adv-x="944" unicode="»" d="M428 176h-14v37l205 266l-205 266v37h14l342 -303zM115 176h-14v37l205 266l-205 266v37h14l342 -303z"/>
<glyph glyph-name="onequarter" horiz-adv-x="1708" unicode="¼"/>
<glyph glyph-name="onehalf" horiz-adv-x="1964" unicode="½"/>
<glyph glyph-name="threequarters" horiz-adv-x="1708" unicode="¾"/>
<glyph glyph-name="questiondown" horiz-adv-x="748" unicode="¿"/>
<glyph glyph-name="Agrave" horiz-adv-x="1119" unicode="À" d="M717 1442h-150l-156 252h149zM1021 0h-127q0 134 -82 421h-502q-80 -287 -80 -421h-127q0 349 397 1347h118q403 -998 403 -1347zM347 548h427q-85 275 -215 616q-128 -341 -212 -616z"/>
<glyph glyph-name="Aacute" horiz-adv-x="1112" unicode="Á" d="M403 1442l156 252h149l-156 -252h-149zM1018 0h-127q0 134 -82 421h-502q-80 -287 -80 -421h-127q0 349 397 1347h118q403 -998 403 -1347zM344 548h427q-85 275 -215 616q-128 -341 -212 -616z"/>
<glyph glyph-name="Acircumflex" horiz-adv-x="1109" unicode="Â" d="M836 1442h-150l-130 211l-131 -211h-149l156 252h247zM1015 0h-127q0 134 -82 421h-502q-80 -287 -80 -421h-127q0 349 397 1347h118q403 -998 403 -1347zM341 548h427q-85 275 -215 616q-128 -341 -212 -616z"/>
<glyph glyph-name="Atilde" horiz-adv-x="1112" unicode="Ã" d="M305 1446q0 124 92 168q46 21 151 21q79 1 100 11q23 11 23 62h127q0 -130 -94 -176q-48 -23 -156 -24h-13q-64 0 -83 -9q-20 -10 -20 -53h-127zM1018 0h-127q0 134 -82 421h-502q-80 -287 -80 -421h-127q0 349 397 1347h118q403 -998 403 -1347zM344 548h427 q-85 275 -215 616q-128 -341 -212 -616z"/>
<glyph glyph-name="Adieresis" horiz-adv-x="1119" unicode="Ä" d="M475 1577q-26 -25 -62 -25t-62 25q-25 26 -25 62t25 61q26 26 62 26t62 -26q25 -25 25 -61t-25 -62zM772 1577q-25 -25 -61 -25t-62 25q-25 26 -25 62t25 61q26 26 62 26t61 -26q26 -25 26 -61t-26 -62zM1021 0h-127q0 134 -82 421h-502q-80 -287 -80 -421h-127 q0 349 397 1347h118q403 -998 403 -1347zM347 548h427q-85 275 -215 616q-128 -341 -212 -616z"/>
<glyph glyph-name="Aring" horiz-adv-x="1108" unicode="Å" d="M644 1522q-35 -35 -85 -35t-85 35q-36 35 -36 85t36 85q35 36 85 36t85 -36q35 -35 35 -85t-35 -85zM599 1647q-17 17 -40 17q-24 0 -40 -17q-17 -16 -17 -40q0 -23 17 -40q16 -17 40 -17q23 0 40 17t17 40q0 24 -17 40zM1018 0h-127q0 134 -82 421h-502 q-80 -287 -80 -421h-127q0 366 397 1364l118 1q403 -998 403 -1365zM344 548h427q-85 275 -215 616q-128 -341 -212 -616z"/>
<glyph glyph-name="AE" horiz-adv-x="1515" unicode="Æ" d="M942 127h453v-127h-564l-59 425h-441q-110 -285 -110 -421h-127q0 229 252 778q130 283 268 533l18 33h683v-128h-526l55 -389h389v-128h-372zM383 552h371l-84 599q-171 -327 -287 -599z"/>
<glyph glyph-name="Ccedilla" horiz-adv-x="1399" unicode="Ç"/>
<glyph glyph-name="Egrave" horiz-adv-x="900" unicode="È" d="M301 1694h149l156 -252h-149zM99 1348h617v-128h-490v-389h445v-128h-445v-576h535v-127h-662v1348z"/>
<glyph glyph-name="Eacute" horiz-adv-x="900" unicode="É" d="M437 1694h149l-156 -252h-149zM100 1348h617v-128h-490v-389h445v-128h-445v-576h535v-127h-662v1348z"/>
<glyph glyph-name="Ecircumflex" horiz-adv-x="900" unicode="Ê" d="M293 1694h247l156 -252h-149l-130 211l-131 -211h-149zM96 1348h617v-128h-490v-389h445v-128h-445v-576h535v-127h-662v1348z"/>
<glyph glyph-name="Edieresis" horiz-adv-x="900" unicode="Ë" d="M347 1577q-26 -25 -62 -25t-61 25q-26 26 -26 62t26 61q25 26 61 26t62 -26q25 -25 25 -61t-25 -62zM644 1577q-25 -25 -61 -25t-62 25q-25 26 -25 62t25 61q26 26 62 26t61 -26q26 -25 26 -61t-26 -62zM103 1348h617v-128h-490v-389h445v-128h-445v-576h535v-127h-662 v1348z"/>
<glyph glyph-name="Igrave" horiz-adv-x="400" unicode="Ì" d="M0 1694h149l156 -252h-149zM70 0v1346h127v-1346h-127z"/>
<glyph glyph-name="Iacute" horiz-adv-x="397" unicode="Í" d="M156 1694h149l-156 -252h-149zM71 0v1346h127v-1346h-127z"/>
<glyph glyph-name="Icircumflex" horiz-adv-x="600" unicode="Î" d="M156 1694h247l156 -252h-149l-130 211l-131 -211h-149zM211 0v1346h127v-1346h-127z"/>
<glyph glyph-name="Idieresis" horiz-adv-x="603" unicode="Ï" d="M149 1577q-26 -26 -62 -26t-62 26q-25 25 -25 61t25 62q26 25 62 25t62 -25q25 -26 25 -62t-25 -61zM446 1577q-25 -26 -61 -26t-62 26q-25 25 -25 61t25 62q26 25 62 25t61 -25q26 -26 26 -62t-26 -61zM172 0v1346h127v-1346h-127z"/>
<glyph glyph-name="Eth" horiz-adv-x="1518" unicode="Ð"/>
<glyph glyph-name="Ntilde" horiz-adv-x="1554" unicode="Ñ"/>
<glyph glyph-name="Ograve" horiz-adv-x="1038" unicode="Ò" d="M695 1443h-149l-156 252h149zM247 42q-95 62 -133 195q-21 72 -21 389v57q2 343 15 408q53 280 393 280q351 0 404 -280q13 -65 15 -408v-57q0 -317 -21 -389q-39 -135 -131 -196q-93 -61 -260 -61q-166 0 -261 62zM301 1198q-51 -39 -68 -131q-13 -64 -13 -394v-37 q0 -308 16 -364q24 -84 77 -121q63 -44 195 -44q133 0 193 42q51 34 76 123q16 56 16 364v37q0 330 -13 394q-16 89 -70 129q-66 48 -209 48q-139 0 -200 -46z"/>
<glyph glyph-name="Oacute" horiz-adv-x="1041" unicode="Ó" d="M255 1443l156 252h150l-157 -252h-149zM241 42q-95 62 -133 195q-21 72 -21 389v57q2 343 15 408q53 280 393 280q351 0 404 -280q13 -65 15 -408v-57q0 -317 -21 -389q-39 -135 -131 -196q-93 -61 -260 -61q-166 0 -261 62zM295 1198q-51 -39 -68 -131q-13 -64 -13 -394 v-37q0 -308 16 -364q24 -84 77 -121q63 -44 195 -44q133 0 193 42q51 34 76 123q16 56 16 364v37q0 330 -13 394q-16 89 -70 129q-66 48 -209 48q-139 0 -200 -46z"/>
<glyph glyph-name="Ocircumflex" horiz-adv-x="1041" unicode="Ô" d="M790 1443h-149l-131 211l-130 -211h-149l156 252h247zM251 42q-95 62 -133 195q-21 72 -21 389v57q2 343 15 408q53 280 393 280q351 0 404 -280q13 -65 15 -408v-57q0 -317 -21 -389q-39 -135 -131 -196q-93 -61 -260 -61q-166 0 -261 62zM305 1198q-51 -39 -68 -131 q-13 -64 -13 -394v-37q0 -308 16 -364q24 -84 77 -121q63 -44 195 -44q133 0 193 42q51 34 76 123q16 56 16 364v37q0 330 -13 394q-16 89 -70 129q-66 48 -209 48q-139 0 -200 -46z"/>
<glyph glyph-name="Otilde" horiz-adv-x="1035" unicode="Õ" d="M257 1447q0 124 92 168q46 21 151 21q79 1 100 11q23 11 23 63h127q0 -131 -94 -177q-48 -23 -156 -24h-13q-64 0 -83 -9q-20 -9 -20 -53h-127zM244 42q-95 62 -133 195q-21 72 -21 389v57q2 343 15 408q53 280 393 280q351 0 404 -280q13 -65 15 -408v-57 q0 -317 -21 -389q-39 -135 -131 -196q-93 -61 -260 -61q-166 0 -261 62zM298 1198q-51 -39 -68 -131q-13 -64 -13 -394v-37q0 -308 16 -364q24 -84 77 -121q63 -44 195 -44q133 0 193 42q51 34 76 123q16 56 16 364v37q0 330 -13 394q-16 89 -70 129q-66 48 -209 48 q-139 0 -200 -46z"/>
<glyph glyph-name="Odieresis" horiz-adv-x="1028" unicode="Ö" d="M416 1578q-25 -25 -61 -25t-62 25q-25 26 -25 62t25 61q26 26 62 26t61 -26q26 -25 26 -61t-26 -62zM714 1578q-26 -25 -62 -25t-61 25q-26 26 -26 62t26 61q25 26 61 26t62 -26q25 -25 25 -61t-25 -62zM244 42q-95 62 -133 195q-21 72 -21 389v57q2 343 15 408 q53 280 393 280q351 0 404 -280q13 -65 15 -408v-57q0 -317 -21 -389q-39 -135 -131 -196q-93 -61 -260 -61q-166 0 -261 62zM298 1198q-51 -39 -68 -131q-13 -64 -13 -394v-37q0 -308 16 -364q24 -84 77 -121q63 -44 195 -44q133 0 193 42q51 34 76 123q16 56 16 364v37 q0 330 -13 394q-16 89 -70 129q-66 48 -209 48q-139 0 -200 -46z"/>
<glyph glyph-name="multiply" d="M507 618l-247 -247l-99 99l247 247l-247 248l99 98l247 -247l248 247l98 -99l-247 -247l247 -247l-99 -99z" unicode="×"/>
<glyph glyph-name="Oslash" horiz-adv-x="1177" unicode="Ø" d="M1081 1348q0 -94 -96 -239q4 -17 5 -18q12 -65 14 -408v-59q0 -315 -20 -387q-39 -135 -132 -196t-260 -61q-245 0 -342 141q-23 -66 -23 -119h-127q0 127 89 290q-26 245 -26 440q0 207 29 359q53 280 393 280q235 0 336 -124q33 62 33 101h127zM385 1198 q-51 -39 -68 -131q-15 -78 -15 -310q0 -121 4 -284q88 121 298 365q175 202 241 293q-51 113 -260 113q-139 0 -200 -46zM785 149q51 34 77 123q19 68 19 294q0 158 -9 392q-53 -65 -172 -203q-285 -331 -379 -488q25 -81 78 -117q63 -43 193 -43q133 0 193 42z"/>
<glyph glyph-name="Ugrave" horiz-adv-x="941" unicode="Ù" d="M676 1464h-149l-156 252h149zM241 71q-96 71 -130 186q-21 73 -21 544q0 235 5 569h127q-5 -359 -5 -600q0 -417 16 -478q24 -80 93 -125q61 -40 135 -40q81 0 142 44q60 45 82 121q16 61 16 478q0 241 -5 600h127q5 -334 5 -569q0 -470 -21 -544q-34 -117 -128 -187 t-218 -70t-220 71z"/>
<glyph glyph-name="Uacute" horiz-adv-x="935" unicode="Ú" d="M226 1445l156 252h149l-156 -252h-149zM248 52q-96 71 -130 186q-21 73 -21 544q0 235 5 569h127q-5 -359 -5 -600q0 -417 16 -478q24 -80 93 -125q61 -40 135 -40q81 0 142 44q60 45 82 121q16 61 16 478q0 241 -5 600h127q5 -334 5 -569q0 -470 -21 -544 q-34 -117 -128 -187t-218 -70t-220 71z"/>
<glyph glyph-name="Ucircumflex" horiz-adv-x="961" unicode="Û" d="M745 1442h-149l-131 211l-130 -211h-150l157 252h247zM247 49q-96 71 -130 186q-21 73 -21 544q0 235 5 569h127q-5 -359 -5 -600q0 -417 16 -478q24 -80 93 -125q61 -40 135 -40q81 0 142 44q60 45 82 121q16 61 16 478q0 241 -5 600h127q5 -334 5 -569q0 -470 -21 -544 q-34 -117 -128 -187t-218 -70t-220 71z"/>
<glyph glyph-name="Udieresis" horiz-adv-x="1501" unicode="Ü" d="M379 1579q-26 -25 -62 -25t-61 25q-26 26 -26 62t26 61q25 26 61 26t62 -26q25 -25 25 -61t-25 -62zM677 1579q-26 -25 -62 -25t-62 25q-25 26 -25 62t25 61q26 26 62 26t62 -26q25 -25 25 -61t-25 -62zM248 51q-96 71 -130 186q-21 73 -21 544q0 235 5 569h127 q-5 -359 -5 -600q0 -417 16 -478q24 -80 93 -125q61 -40 135 -40q81 0 142 44q60 45 82 121q16 61 16 478q0 241 -5 600h127q5 -334 5 -569q0 -470 -21 -544q-34 -117 -128 -187t-218 -70t-220 71z"/>
<glyph glyph-name="Yacute" horiz-adv-x="1233" unicode="Ý"/>
<glyph glyph-name="Thorn" horiz-adv-x="1120" unicode="Þ"/>
<glyph glyph-name="germandbls" horiz-adv-x="1251" unicode="ß"/>
<glyph glyph-name="agrave" horiz-adv-x="838" unicode="à" d="M585 1061h-149l-156 252h149zM151 861q131 69 253 69q60 0 118 -16q125 -35 170 -138q31 -70 31 -203v-574h-127q-2 30 -26 19q-94 -38 -182 -38q-137 0 -220 87q-82 87 -82 232q0 140 91 225q91 86 240 86q108 0 179 -30q-1 107 -23 150q-22 44 -85 62q-40 11 -82 11 q-92 0 -195 -54zM276 141q44 -34 112 -34q141 0 208 84v237q-47 55 -179 55q-94 0 -149 -49q-55 -50 -55 -135q0 -110 63 -158z"/>
<glyph glyph-name="aacute" horiz-adv-x="825" unicode="á" d="M282 1061l156 252h149l-156 -252h-149zM148 861q131 69 253 69q60 0 118 -16q125 -35 170 -138q31 -70 31 -203v-574h-127q-2 30 -26 19q-94 -38 -182 -38q-137 0 -220 87q-82 87 -82 232q0 140 91 225q91 86 240 86q108 0 179 -30q-1 107 -23 150q-22 44 -85 62 q-40 11 -82 11q-92 0 -195 -54zM273 141q44 -34 112 -34q141 0 208 84v237q-47 55 -179 55q-94 0 -149 -49q-55 -50 -55 -135q0 -110 63 -158z"/>
<glyph glyph-name="acircumflex" horiz-adv-x="832" unicode="â" d="M688 1061h-149l-130 211l-131 -211h-149l156 252h247zM155 861q131 69 253 69q60 0 118 -16q125 -35 170 -138q31 -70 31 -203v-574h-127q-2 30 -26 19q-94 -38 -182 -38q-137 0 -220 87q-82 87 -82 232q0 140 91 225q91 86 240 86q108 0 179 -30q-1 107 -23 150 q-22 44 -85 62q-40 11 -82 11q-92 0 -195 -54zM280 141q44 -34 112 -34q141 0 208 84v237q-47 55 -179 55q-94 0 -149 -49q-55 -50 -55 -135q0 -110 63 -158z"/>
<glyph glyph-name="atilde" horiz-adv-x="829" unicode="ã" d="M152 1050q0 125 93 168q45 22 150 22q80 1 100 11q23 11 23 62h127q0 -131 -94 -177q-47 -23 -156 -23q-75 0 -96 -10q-19 -9 -19 -53h-128zM162 861q131 69 253 69q60 0 118 -16q125 -35 170 -138q31 -70 31 -203v-574h-127q-2 30 -26 19q-94 -38 -182 -38 q-137 0 -220 87q-82 87 -82 232q0 140 91 225q91 86 240 86q108 0 179 -30q-1 107 -23 150q-22 44 -85 62q-40 11 -82 11q-92 0 -195 -54zM287 141q44 -34 112 -34q141 0 208 84v237q-47 55 -179 55q-94 0 -149 -49q-55 -50 -55 -135q0 -110 63 -158z"/>
<glyph glyph-name="adieresis" horiz-adv-x="825" unicode="ä" d="M324 1164q-25 -25 -61 -25t-62 25q-25 26 -25 62t25 62q26 25 62 25t61 -25q26 -26 26 -62t-26 -62zM622 1164q-25 -25 -62 -25q-36 0 -61 25q-26 26 -26 62t26 62q25 25 61 25q37 0 62 -25q25 -26 25 -62t-25 -62zM158 861q131 69 253 69q60 0 118 -16q125 -35 170 -138 q31 -70 31 -203v-574h-127q-2 30 -26 19q-94 -38 -182 -38q-137 0 -220 87q-82 87 -82 232q0 140 91 225q91 86 240 86q108 0 179 -30q-1 107 -23 150q-22 44 -85 62q-40 11 -82 11q-92 0 -195 -54zM283 141q44 -34 112 -34q141 0 208 84v237q-47 55 -179 55q-94 0 -149 -49 q-55 -50 -55 -135q0 -110 63 -158z"/>
<glyph glyph-name="aring" horiz-adv-x="826" unicode="å" d="M536 1049q-45 -45 -109 -45t-109 45q-45 46 -45 110q0 63 45 109q45 45 109 45t109 -45q46 -46 46 -109q0 -64 -46 -110zM469 1200q-17 18 -42 18q-24 0 -41 -18q-18 -17 -18 -41q0 -25 18 -42q17 -17 41 -17q25 0 42 17t17 42q0 24 -17 41zM149 815q140 108 284 108 q38 0 77 -8q220 -42 220 -342v-574h-127q0 32 -21 22q-87 -41 -187 -41q-137 0 -220 87q-82 87 -82 232q0 140 91 225q91 86 240 86q108 0 179 -30q-1 111 -32 159q-25 40 -85 51q-25 5 -51 5q-103 0 -208 -81zM283 141q44 -34 112 -34q141 0 208 84v237q-47 55 -179 55 q-94 0 -149 -49q-55 -50 -55 -135q0 -110 63 -158z"/>
<glyph glyph-name="ae" horiz-adv-x="1351" unicode="æ" d="M1152 843q80 -73 101 -201q8 -46 8 -83q0 -22 -3 -41l-7 -46l-547 -101q5 -56 19 -111q18 -76 74 -119q56 -44 134 -44q127 0 198 84l97 -82q-109 -129 -295 -129q-153 0 -251 107q-109 -107 -285 -107q-137 0 -220 87q-82 87 -82 232q0 140 91 225q91 86 240 86 q95 0 161 -23q5 26 11 45q-2 -4 3 12q-14 127 -113 146q-25 5 -51 5q-103 0 -208 -81l-78 101q140 108 284 108q38 0 77 -8q117 -22 172 -113q103 123 269 123q121 0 201 -72zM610 190l2 -2q-8 22 -13 41q-26 107 -26 214q-48 30 -149 30q-94 0 -149 -49q-55 -50 -55 -135 q0 -110 63 -158q44 -34 112 -34q66 0 127 27q62 26 88 66zM703 500l429 80q-1 20 -5 42q-27 166 -176 166q-176 0 -233 -200q-11 -38 -15 -88z"/>
<glyph glyph-name="ccedilla" horiz-adv-x="905" unicode="ç"/>
<glyph glyph-name="egrave" horiz-adv-x="874" unicode="è" d="M614 1061h-149l-156 252h149zM247 51q-90 70 -119 188q-28 113 -28 215q0 94 24 178q40 140 133 217q93 76 223 76q120 0 200 -72t101 -201q8 -46 8 -83q0 -22 -3 -41l-6 -46l-548 -101q6 -56 19 -111q19 -76 75 -119q56 -44 134 -44q126 0 198 84l97 -82 q-110 -129 -295 -129q-122 0 -213 71zM246 598q-11 -38 -15 -88l429 80q-1 20 -5 42q-27 166 -175 166q-177 0 -234 -200z"/>
<glyph glyph-name="eacute" horiz-adv-x="880" unicode="é" d="M255 1061l156 252h149l-156 -252h-149zM243 51q-90 70 -119 188q-28 113 -28 215q0 94 24 178q40 140 133 217q93 76 223 76q120 0 200 -72t101 -201q8 -46 8 -83q0 -22 -3 -41l-6 -46l-548 -101q6 -56 19 -111q19 -76 75 -119q56 -44 134 -44q126 0 198 84l97 -82 q-110 -129 -295 -129q-122 0 -213 71zM242 598q-11 -38 -15 -88l429 80q-1 20 -5 42q-27 166 -175 166q-177 0 -234 -200z"/>
<glyph glyph-name="ecircumflex" horiz-adv-x="877" unicode="ê" d="M705 1061h-150l-130 211l-131 -211h-149l156 252h248zM227 51q-90 70 -119 188q-28 113 -28 215q0 94 24 178q40 140 133 217q93 76 223 76q120 0 200 -72t101 -201q8 -46 8 -83q0 -22 -3 -41l-6 -46l-548 -101q6 -56 19 -111q19 -76 75 -119q56 -44 134 -44 q126 0 198 84l97 -82q-110 -129 -295 -129q-122 0 -213 71zM226 598q-11 -38 -15 -88l429 80q-1 20 -5 42q-27 166 -175 166q-177 0 -234 -200z"/>
<glyph glyph-name="edieresis" horiz-adv-x="877" unicode="ë" d="M348 1164q-26 -25 -62 -25t-62 25q-25 26 -25 62t25 62q26 25 62 25t62 -25q25 -26 25 -62t-25 -62zM645 1164q-25 -25 -61 -25t-62 25q-25 26 -25 62t25 62q26 25 62 25t61 -25q26 -26 26 -62t-26 -62zM237 51q-90 70 -119 188q-28 113 -28 215q0 94 24 178 q40 140 133 217q93 76 223 76q120 0 200 -72t101 -201q8 -46 8 -83q0 -22 -3 -41l-6 -46l-548 -101q6 -56 19 -111q19 -76 75 -119q56 -44 134 -44q126 0 198 84l97 -82q-110 -129 -295 -129q-122 0 -213 71zM236 598q-11 -38 -15 -88l429 80q-1 20 -5 42q-27 166 -175 166 q-177 0 -234 -200z"/>
<glyph glyph-name="igrave" horiz-adv-x="400" unicode="ì" d="M0 1314h149l156 -252h-149zM29 0v900h127v-900h-127z"/>
<glyph glyph-name="iacute" horiz-adv-x="400" unicode="í" d="M156 1314h149l-156 -252h-149zM79 0v900h127v-900h-127z"/>
<glyph glyph-name="icircumflex" horiz-adv-x="600" unicode="î" d="M156 1314h247l156 -252h-149l-130 211l-131 -211h-149zM216 0v900h127v-900h-127z"/>
<glyph glyph-name="idieresis" horiz-adv-x="506" unicode="ï" d="M149 1166q-26 -26 -62 -26t-62 26q-25 25 -25 61t25 62q26 25 62 25t62 -25q25 -26 25 -62t-25 -61zM446 1166q-25 -26 -61 -26t-62 26q-25 25 -25 61t25 62q26 25 62 25t61 -25q26 -26 26 -62t-26 -61zM172 0v900h127v-900h-127z"/>
<glyph glyph-name="eth" horiz-adv-x="1139" unicode="ð"/>
<glyph glyph-name="ntilde" horiz-adv-x="1108" unicode="ñ"/>
<glyph glyph-name="ograve" horiz-adv-x="896" unicode="ò" d="M638 1061h-149l-156 252h149zM242 50q-92 70 -126 187q-26 91 -26 198q0 96 21 205q25 136 112 208q86 73 222 73q131 0 227 -77q95 -78 119 -204q21 -108 21 -203q0 -108 -27 -200q-35 -121 -123 -189t-210 -68q-119 0 -210 70zM235 617q-18 -96 -18 -179q0 -91 22 -166 q22 -76 79 -121q57 -44 134 -44q163 0 211 165q21 74 21 164q0 84 -18 181q-15 82 -75 129q-59 48 -146 48q-176 0 -210 -177z"/>
<glyph glyph-name="oacute" horiz-adv-x="896" unicode="ó" d="M246 1061l156 252h150l-157 -252h-149zM238 50q-92 70 -126 187q-26 91 -26 198q0 96 21 205q25 136 112 208q86 73 222 73q131 0 227 -77q95 -78 119 -204q21 -108 21 -203q0 -108 -27 -200q-35 -121 -123 -189t-210 -68q-119 0 -210 70zM231 617q-18 -96 -18 -179 q0 -91 22 -166q22 -76 79 -121q57 -44 134 -44q163 0 211 165q21 74 21 164q0 84 -18 181q-15 82 -75 129q-59 48 -146 48q-176 0 -210 -177z"/>
<glyph glyph-name="ocircumflex" horiz-adv-x="903" unicode="ô" d="M741 1061h-150l-130 211l-131 -211h-149l156 252h247zM252 50q-92 70 -126 187q-26 91 -26 198q0 96 21 205q25 136 112 208q86 73 222 73q131 0 227 -77q95 -78 119 -204q21 -108 21 -203q0 -108 -27 -200q-35 -121 -123 -189t-210 -68q-119 0 -210 70zM245 617 q-18 -96 -18 -179q0 -91 22 -166q22 -76 79 -121q57 -44 134 -44q163 0 211 165q21 74 21 164q0 84 -18 181q-15 82 -75 129q-59 48 -146 48q-176 0 -210 -177z"/>
<glyph glyph-name="otilde" horiz-adv-x="900" unicode="õ" d="M212 1050q0 125 92 168q46 22 150 22q80 1 100 11q23 11 23 62h127q0 -131 -94 -177q-47 -23 -156 -23q-75 0 -96 -10q-19 -9 -19 -53h-127zM249 50q-92 70 -126 187q-26 91 -26 198q0 96 21 205q25 136 112 208q86 73 222 73q131 0 227 -77q95 -78 119 -204 q21 -108 21 -203q0 -108 -27 -200q-35 -121 -123 -189t-210 -68q-119 0 -210 70zM242 617q-18 -96 -18 -179q0 -91 22 -166q22 -76 79 -121q57 -44 134 -44q163 0 211 165q21 74 21 164q0 84 -18 181q-15 82 -75 129q-59 48 -146 48q-176 0 -210 -177z"/>
<glyph glyph-name="odieresis" horiz-adv-x="896" unicode="ö" d="M354 1164q-26 -25 -62 -25t-62 25q-25 26 -25 62t25 62q26 25 62 25t62 -25q25 -26 25 -62t-25 -62zM651 1164q-25 -25 -61 -25t-62 25q-25 26 -25 62t25 62q26 25 62 25t61 -25q26 -26 26 -62t-26 -62zM232 50q-92 70 -126 187q-26 91 -26 198q0 96 21 205 q25 136 112 208q86 73 222 73q131 0 227 -77q95 -78 119 -204q21 -108 21 -203q0 -108 -27 -200q-35 -121 -123 -189t-210 -68q-119 0 -210 70zM225 617q-18 -96 -18 -179q0 -91 22 -166q22 -76 79 -121q57 -44 134 -44q163 0 211 165q21 74 21 164q0 84 -18 181 q-15 82 -75 129q-59 48 -146 48q-176 0 -210 -177z"/>
<glyph glyph-name="divide" d="M398 1101l82 84q15 14 29 14q13 0 31 -16l80 -86q12 -16 12 -29q0 -15 -14 -31l-80 -88q-20 -20 -29 -20q-16 0 -29 14l-88 101q-10 13 -10 26q0 15 16 31zM398 408l82 84q15 14 29 14q13 0 31 -16l80 -86q12 -16 12 -29q0 -15 -14 -31l-80 -88q-20 -20 -29 -20 q-16 0 -29 14l-88 101q-10 13 -10 26q0 15 16 31zM87 647v140h839l1 -1v-139h-840z" unicode="÷"/>
<glyph glyph-name="oslash" horiz-adv-x="902" unicode="ø" d="M810 914q0 -79 -58 -179q24 -47 33 -97q21 -108 21 -203q0 -106 -26 -195q-35 -119 -122 -186q-87 -68 -207 -68q-123 0 -215 76q-21 -47 -21 -82h-125q0 84 59 189q-18 34 -29 71q-26 89 -26 195q0 95 21 203q25 133 110 205q85 71 219 71q128 0 221 -74q20 43 20 74 h125zM444 789q-173 0 -206 -175q-17 -86 -17 -168q0 -77 15 -149q52 67 174 206q136 153 190 228q-62 58 -156 58zM451 112q161 0 208 162q20 71 20 161q0 79 -15 172q-49 -62 -160 -187q-147 -166 -204 -247q62 -61 151 -61z"/>
<glyph glyph-name="ugrave" horiz-adv-x="854" unicode="ù" d="M590 1061h-149l-156 252h149zM624 899h127v-900h-127q1 43 -29 30q-115 -49 -223 -49q-129 0 -202 80t-73 221v618h127v-618q0 -174 148 -174q123 0 252 79v713z"/>
<glyph glyph-name="uacute" horiz-adv-x="848" unicode="ú" d="M258 1061l157 252h149l-156 -252h-150zM627 899h127v-900h-127q1 43 -29 30q-115 -49 -223 -49q-129 0 -202 80t-73 221v618h127v-618q0 -174 148 -174q123 0 252 79v713z"/>
<glyph glyph-name="ucircumflex" horiz-adv-x="838" unicode="û" d="M706 1061h-150l-130 211l-131 -211h-149l156 252h248zM626 899h127v-900h-127q1 43 -29 30q-115 -49 -223 -49q-129 0 -202 80t-73 221v618h127v-618q0 -174 148 -174q123 0 252 79v713z"/>
<glyph glyph-name="udieresis" horiz-adv-x="848" unicode="ü" d="M343 1164q-26 -25 -62 -25t-62 25q-25 26 -25 62t25 62q26 25 62 25t62 -25q25 -26 25 -62t-25 -62zM640 1164q-25 -25 -61 -25t-62 25q-25 26 -25 62t25 62q26 25 62 25t61 -25q26 -26 26 -62t-26 -62zM630 899h127v-900h-127q1 43 -29 30q-115 -49 -223 -49 q-129 0 -202 80t-73 221v618h127v-618q0 -174 148 -174q123 0 252 79v713z"/>
<glyph glyph-name="yacute" horiz-adv-x="868" unicode="ý"/>
<glyph glyph-name="thorn" horiz-adv-x="1010" unicode="þ"/>
<glyph glyph-name="dotlessi" horiz-adv-x="514" unicode="ı" d="M328 223q0 -173 100 -173h46v-50h-442v50h46q100 0 100 173v432q0 77 -111 77h-48v44q222 69 261 182h48v-735z"/>
</font>
</defs>
</svg>
