<?xml version="1.0" encoding="UTF-8" standalone="no"?>
<!DOCTYPE svg  PUBLIC '-//W3C//DTD SVG 1.1//EN'  'http://www.w3.org/Graphics/SVG/1.1/DTD/svg11.dtd'>
<svg xmlns="http://www.w3.org/2000/svg">
<defs>
<font id="AvenirLTStd-Light" horiz-adv-x="556">
<font-face underline-position="-50" font-weight="300" descent="-200" panose-1="2 11 4 2 2 2 3 2 2 4" units-per-em="1000" unicode-range="U+0020-0192" bbox="-30 -250 939 932" x-height="462" underline-thickness="50" font-family="AvenirLTStd" ascent="800" cap-height="708"/>
<missing-glyph horiz-adv-x="1000"/>
<glyph glyph-name=".notdef" horiz-adv-x="1000"/>
<glyph glyph-name=".null" horiz-adv-x="0"/>
<glyph glyph-name="nonmarkingreturn" horiz-adv-x="1000"/>
<glyph glyph-name="space" horiz-adv-x="260" unicode=" "/>
<glyph glyph-name="exclam" horiz-adv-x="370" unicode="!" d="M137 42q0 20 14 34t34 14t34 -14t14 -34t-14 -34t-34 -14t-34 14t-14 34zM215 708v-522h-60v522h60z"/>
<glyph glyph-name="quotedbl" horiz-adv-x="520" unicode='&quot;' d="M299 480v228h60v-228h-60zM161 480v228h60v-228h-60z"/>
<glyph glyph-name="numbersign" horiz-adv-x="520" unicode="#" d="M319 277l21 156h-138l-21 -156h138zM91 0l30 229h-108v48h115l22 156h-108v48h115l30 227h52l-31 -227h139l31 227h52l-31 -227h108v-48h-115l-21 -156h108v-48h-115l-30 -229h-52l30 229h-139l-30 -229h-52z"/>
<glyph glyph-name="dollar" horiz-adv-x="520" unicode="$" d="M233 -79v67q-56 0 -111 28t-89 77l57 39q24 -40 62 -64t81 -26v290l-71 26q-65 24 -90 72t-25 96q0 79 57 133t129 61v67h48v-67q122 0 185 -89l-55 -40q-23 35 -58 55t-72 20v-282l70 -24q53 -19 91 -63t37 -116q-1 -82 -59 -135t-139 -58v-67h-48zM233 400v266 q-50 -10 -85 -46t-35 -90q0 -50 26 -78t77 -46zM281 314v-272q57 2 95 42t37 101q0 80 -89 113z"/>
<glyph glyph-name="percent" horiz-adv-x="815" unicode="%" d="M158 -6l456 748l46 -28l-457 -748zM487 160q1 -50 35 -84t83 -34t83 34t35 84q-1 50 -35 84t-83 34t-83 -34t-35 -84zM433 160q1 72 51 122t121 50t121 -50t51 -122q-1 -72 -51 -122t-121 -50t-121 50t-51 122zM92 548q0 -50 34 -84t84 -34t84 34t34 84t-34 84t-84 34 t-84 -34t-34 -84zM38 548q0 72 50 122t122 50t122 -50t50 -122t-50 -122t-122 -50t-122 50t-50 122z"/>
<glyph glyph-name="ampersand" horiz-adv-x="704" unicode="&amp;" d="M455 151l-196 204q-25 -15 -39 -24t-34 -26q-22 -17 -33 -32t-19 -37t-9 -46q0 -66 46 -107t114 -41q97 0 170 109zM308 666q-45 0 -76 -28t-31 -72q1 -24 15 -52t26 -44t35 -41q29 15 45 25t40 28t34 40q11 22 11 49q0 43 -28 69t-71 26zM315 388l172 -182l102 184h68 l-128 -226l161 -169h-89l-106 114q-46 -63 -98 -95t-122 -32q-92 0 -154 57t-62 149q0 38 12 70t40 58q29 26 49 42q20 14 61 39q-27 33 -41 52t-30 53q-15 34 -15 63q0 73 52 117t126 44q65 0 113 -42t47 -108q0 -36 -12 -65t-39 -53t-47 -36q-20 -13 -60 -34z"/>
<glyph glyph-name="quotesingle" horiz-adv-x="260" unicode="&apos;" d="M100 480v228h60v-228h-60z"/>
<glyph glyph-name="parenleft" horiz-adv-x="260" unicode="(" d="M197 732l51 -32q-62 -79 -96 -191t-34 -221q0 -208 130 -414l-47 -30q-69 95 -106 212t-37 232q0 120 36 236t103 208z"/>
<glyph glyph-name="parenright" horiz-adv-x="260" unicode=")" d="M63 -156l-51 32q62 79 96 191t34 221q0 208 -130 414l47 30q69 -95 106 -212t37 -232q0 -120 -36 -236t-103 -208z"/>
<glyph glyph-name="asterisk" horiz-adv-x="444" unicode="*" d="M247 708v-152l144 48l15 -48l-144 -47l91 -122l-37 -29l-94 125l-89 -125l-40 29l91 122l-146 50l14 45l147 -48v152h48z"/>
<glyph glyph-name="plus" horiz-adv-x="666" unicode="+" d="M78 279v48h231v231h48v-231h231v-48h-231v-231h-48v231h-231z"/>
<glyph glyph-name="comma" horiz-adv-x="260" unicode="," d="M50 -138l66 228h70l-77 -228h-59z"/>
<glyph glyph-name="hyphen" horiz-adv-x="333" unicode="-" d="M43 210v54h247v-54h-247z"/>
<glyph glyph-name="period" horiz-adv-x="260" unicode="." d="M82 42q0 20 14 34t34 14t34 -14t14 -34t-14 -34t-34 -14t-34 14t-14 34z"/>
<glyph glyph-name="slash" horiz-adv-x="370" unicode="/" d="M9 -18l304 762l52 -18l-303 -762z"/>
<glyph glyph-name="zero" horiz-adv-x="520" unicode="0" d="M92 354q0 -39 3 -75q3 -35 13 -81t28 -78q17 -32 49 -56q32 -22 75 -22t75 22t49 56q18 32 28 78t13 81q3 36 3 75t-3 75q-3 35 -13 81t-28 78q-17 32 -49 56q-32 22 -75 22t-75 -22t-49 -56q-18 -32 -28 -78t-13 -81q-3 -36 -3 -75zM26 354q0 52 5 98t21 97t40 87t68 60 t100 24t100 -24t68 -60t40 -87t21 -97t5 -98t-5 -98t-21 -97t-40 -87t-68 -60t-100 -24t-100 24t-68 60t-40 87t-21 97t-5 98z"/>
<glyph glyph-name="one" horiz-adv-x="520" unicode="1" d="M261 0v624h-1l-128 -105l-37 46l175 143h51v-708h-60z"/>
<glyph glyph-name="two" horiz-adv-x="520" unicode="2" d="M41 0v70l266 281q31 33 49 54t34 57q18 36 18 72q0 60 -40 96t-101 36q-55 0 -93 -32t-49 -84l-70 7q17 79 74 121t141 42t144 -49t60 -132q0 -39 -11 -75t-36 -70t-43 -55t-56 -58l-221 -227h372v-54h-438z"/>
<glyph glyph-name="three" horiz-adv-x="520" unicode="3" d="M41 127l65 21q20 -54 56 -80t93 -26q76 0 117 44t41 110q1 74 -55 110t-132 36h-26v60h30q66 0 112 34t46 100q0 58 -36 94t-95 36q-43 0 -79 -22t-55 -61l-57 32q56 105 191 105q85 0 141 -47t56 -135q0 -60 -33 -104t-93 -60v-2q67 -12 109 -62t42 -119q0 -87 -57 -145 t-162 -58q-165 0 -219 139z"/>
<glyph glyph-name="four" horiz-adv-x="520" unicode="4" d="M329 228v414h-2l-250 -414h252zM329 0v174h-306v71l283 463h83v-480h108v-54h-108v-174h-60z"/>
<glyph glyph-name="five" horiz-adv-x="520" unicode="5" d="M451 708v-54h-292l-3 -225q39 20 103 20q99 0 159 -68t61 -166q1 -107 -69 -167t-157 -60q-149 0 -212 120l62 31q19 -41 61 -69t89 -28q57 0 109 46t51 123q1 77 -51 131t-127 53q-71 0 -140 -48l6 361h350z"/>
<glyph glyph-name="six" horiz-adv-x="520" unicode="6" d="M260 374q-70 0 -118 -48t-48 -118q0 -74 46 -120t120 -46t120 46t46 120q0 70 -48 118t-118 48zM361 708l-193 -312h2q36 30 105 30q93 0 155 -63t62 -155q0 -96 -66 -158t-166 -62t-166 62t-66 158q0 34 12 72t22 56t31 53l192 319h76z"/>
<glyph glyph-name="seven" horiz-adv-x="520" unicode="7" d="M443 708v-54l-282 -654h-67l287 654h-340v54h402z"/>
<glyph glyph-name="eight" horiz-adv-x="520" unicode="8" d="M107 197q1 -65 43 -110t110 -45t110 45t43 110q0 69 -44 112t-109 43t-109 -43t-44 -112zM132 536q0 -54 36 -92t92 -38t92 38t36 92q0 58 -36 94t-92 36t-92 -36t-36 -94zM66 536q0 82 55 133t139 51t139 -51t55 -133q0 -50 -32 -96t-81 -60v-1q65 -14 101 -65t37 -117 q0 -93 -62 -151t-157 -58t-157 58t-62 151q1 66 37 117t101 65v1q-49 14 -81 60t-32 96z"/>
<glyph glyph-name="nine" horiz-adv-x="520" unicode="9" d="M260 334q70 0 118 48t48 118q0 74 -46 120t-120 46t-120 -46t-46 -120q0 -70 48 -118t118 -48zM159 0l193 312h-2q-36 -30 -105 -30q-93 0 -155 63t-62 155q0 96 66 158t166 62t166 -62t66 -158q0 -34 -12 -72t-22 -56t-31 -53l-192 -319h-76z"/>
<glyph glyph-name="colon" horiz-adv-x="260" unicode=":" d="M82 42q0 20 14 34t34 14t34 -14t14 -34t-14 -34t-34 -14t-34 14t-14 34zM82 420q0 20 14 34t34 14t34 -14t14 -34t-14 -34t-34 -14t-34 14t-14 34z"/>
<glyph glyph-name="semicolon" horiz-adv-x="260" unicode=";" d="M82 420q0 20 14 34t34 14t34 -14t14 -34t-14 -34t-34 -14t-34 14t-14 34zM50 -138l66 228h70l-77 -228h-59z"/>
<glyph glyph-name="less" horiz-adv-x="666" unicode="&lt;" d="M584 561v-50l-448 -208l448 -208v-50l-502 234v48z"/>
<glyph glyph-name="equal" horiz-adv-x="666" unicode="=" d="M78 207v48h510v-48h-510zM78 351v48h510v-48h-510z"/>
<glyph glyph-name="greater" horiz-adv-x="666" unicode="&gt;" d="M82 45v50l448 208l-448 208v50l502 -234v-48z"/>
<glyph glyph-name="question" horiz-adv-x="463" unicode="?" d="M187 42q0 20 14 34t34 14t34 -14t14 -34t-14 -34t-34 -14t-34 14t-14 34zM204 186v84q0 37 16 67t39 52l46 44t39 52t16 66q0 53 -32 87t-85 34q-51 0 -85 -32t-46 -84l-65 8q13 74 67 118t128 44q80 0 132 -46t52 -126q0 -46 -16 -82t-41 -58q-24 -23 -48 -44 q-25 -22 -41 -52t-16 -68v-64h-60z"/>
<glyph glyph-name="at" horiz-adv-x="800" unicode="@" d="M622 549l-97 -290q-11 -33 -11 -48q0 -26 26 -26q54 0 108 79t54 162q0 108 -85 180t-201 72q-134 0 -226 -96t-92 -227q0 -133 94 -229t226 -96q74 0 144 37t110 95h58q-45 -82 -131 -131t-181 -49q-162 0 -268 108t-106 265q0 155 108 263t262 108q146 0 244 -86 t98 -214q0 -121 -73 -208t-161 -87q-26 -1 -44 17t-18 50h-2q-22 -27 -58 -47t-71 -20q-65 0 -100 42t-35 105q0 112 66 201t170 89q82 0 106 -83h2l24 64h60zM254 280q0 -42 23 -68t61 -27q66 -1 118 77t51 150q0 102 -81 102q-48 0 -88 -39t-62 -93t-22 -102z"/>
<glyph glyph-name="A" horiz-adv-x="685" unicode="A" d="M505 248l-160 388l-165 -388h325zM5 0l309 708h68l298 -708h-74l-77 188h-375l-80 -188h-69z"/>
<glyph glyph-name="B" horiz-adv-x="630" unicode="B" d="M163 342v-282h151q55 0 93 14q37 14 55 36t25 43t7 43q0 74 -50 110t-120 36h-161zM163 648v-246h137q48 0 82 12t52 32q16 20 22 38t7 37q0 127 -154 127h-146zM97 0v708h204q46 0 82 -7q35 -7 71 -26t56 -58t19 -96q0 -55 -33 -95t-94 -52v-2q70 -4 114 -52t44 -122 q0 -58 -22 -99t-61 -61q-37 -20 -75 -30q-38 -8 -79 -8h-226z"/>
<glyph glyph-name="C" horiz-adv-x="704" unicode="C" d="M626 152l54 -41q-94 -129 -263 -129q-161 0 -263 104t-103 268q1 164 103 268t263 104q157 0 244 -111l-54 -45q-32 48 -83 72t-107 24q-136 0 -218 -88t-82 -224t82 -224t218 -88q58 0 116 28t93 82z"/>
<glyph glyph-name="D" horiz-adv-x="741" unicode="D" d="M154 648v-588h136q150 0 242 74t92 220t-92 220t-242 74h-136zM88 0v708h219q75 0 137 -18t100 -43q39 -27 68 -63q30 -36 44 -68t22 -70q8 -36 10 -56t2 -36t-2 -36t-10 -56t-22 -70q-14 -32 -44 -68q-29 -36 -68 -63q-38 -25 -100 -43t-137 -18h-219z"/>
<glyph glyph-name="E" horiz-adv-x="593" unicode="E" d="M97 0v708h433v-60h-367v-252h344v-60h-344v-276h383v-60h-449z"/>
<glyph glyph-name="F" d="M97 0v708h424v-60h-358v-252h333v-60h-333v-336h-66z" unicode="F"/>
<glyph glyph-name="G" horiz-adv-x="778" unicode="G" d="M681 382v-336q-112 -64 -264 -64q-161 0 -263 104t-103 268q1 164 103 268t263 104q158 0 255 -98l-48 -50q-32 40 -90 64t-117 24q-136 0 -218 -88t-82 -224t82 -224t218 -88q127 0 198 42v238h-170v60h236z"/>
<glyph glyph-name="H" horiz-adv-x="722" unicode="H" d="M97 0v708h66v-312h396v312h66v-708h-66v336h-396v-336h-66z"/>
<glyph glyph-name="I" horiz-adv-x="260" unicode="I" d="M97 0v708h66v-708h-66z"/>
<glyph glyph-name="J" horiz-adv-x="482" unicode="J" d="M385 708v-500q-1 -32 -3 -57t-13 -59t-31 -56t-57 -38q-38 -16 -90 -16q-75 0 -121 38t-63 107l66 12q24 -97 118 -97q128 0 128 150v516h66z"/>
<glyph glyph-name="K" horiz-adv-x="611" unicode="K" d="M97 0v708h66v-312h6l343 312h91l-358 -324l378 -384h-95l-359 366h-6v-366h-66z"/>
<glyph glyph-name="L" horiz-adv-x="500" unicode="L" d="M97 0v708h66v-648h330v-60h-396z"/>
<glyph glyph-name="M" horiz-adv-x="889" unicode="M" d="M90 0v708h99l258 -594l258 594h94v-708h-66v624h-2l-270 -624h-29l-274 624h-2v-624h-66z"/>
<glyph glyph-name="N" horiz-adv-x="778" unicode="N" d="M97 0v708h85l431 -620h2v620h66v-708h-85l-431 620h-2v-620h-66z"/>
<glyph glyph-name="O" horiz-adv-x="834" unicode="O" d="M117 354q0 -136 82 -224t218 -88t218 88t82 224t-82 224t-218 88t-218 -88t-82 -224zM51 354q1 164 103 268t263 104t263 -104t103 -268q-1 -164 -103 -268t-263 -104t-263 104t-103 268z"/>
<glyph glyph-name="P" horiz-adv-x="574" unicode="P" d="M163 648v-252h150q64 0 107 30t43 95q0 63 -45 95t-109 32h-146zM97 0v708h204q41 0 79 -9t72 -29q35 -20 56 -58t21 -91q1 -91 -61 -138t-152 -47h-153v-336h-66z"/>
<glyph glyph-name="Q" horiz-adv-x="834" unicode="Q" d="M117 363q0 -127 86 -215t218 -88q130 0 206 89t76 214q0 131 -79 217t-214 86t-214 -86t-79 -217zM813 60v-60h-390q-152 0 -262 102t-110 261q0 157 99 260t260 103t260 -103t99 -260q-1 -97 -49 -184t-128 -117v-2h221z"/>
<glyph glyph-name="R" horiz-adv-x="593" unicode="R" d="M97 0v708h186q252 0 252 -186q0 -159 -181 -182l206 -340h-75l-199 336h-123v-336h-66zM163 648v-252h140q49 0 84 12t51 34q16 20 24 40q7 20 7 40t-7 40q-8 20 -24 40t-51 34q-35 12 -84 12h-140z"/>
<glyph glyph-name="S" d="M53 89l63 42q53 -89 162 -89q68 0 114 38t45 101q0 46 -27 76q-28 30 -68 43t-88 30q-48 18 -88 36t-67 60t-27 106q0 90 66 142t161 52q125 0 193 -89l-57 -41q-50 70 -138 70q-67 0 -113 -35t-46 -99q0 -43 20 -72q20 -28 52 -44t72 -28q38 -12 77 -24q39 -14 71 -34 t53 -58q20 -38 20 -91q-1 -91 -65 -145t-155 -54q-154 0 -230 107z" unicode="S"/>
<glyph glyph-name="T" horiz-adv-x="574" unicode="T" d="M254 0v648h-242v60h550v-60h-242v-648h-66z"/>
<glyph glyph-name="U" horiz-adv-x="684" unicode="U" d="M600 708v-437q0 -59 -14 -109t-42 -92t-80 -64q-52 -24 -122 -24t-122 24t-80 64q-28 42 -42 92t-14 109v437h66v-420q0 -34 4 -64t16 -66q12 -34 33 -58q20 -24 56 -42q36 -16 83 -16t83 16t56 42q21 24 33 58t16 66q4 30 4 64v420h66z"/>
<glyph glyph-name="V" horiz-adv-x="593" unicode="V" d="M261 0l-264 708h71l228 -621l230 621h70l-269 -708h-66z"/>
<glyph glyph-name="W" horiz-adv-x="944" unicode="W" d="M211 0l-206 708h68l176 -627h2l179 627h84l179 -627h2l176 627h68l-206 -708h-81l-179 630h-2l-179 -630h-81z"/>
<glyph glyph-name="X" horiz-adv-x="611" unicode="X" d="M1 0l266 372l-242 336h78l204 -288l201 288h79l-240 -336l263 -372h-82l-224 320l-224 -320h-79z"/>
<glyph glyph-name="Y" horiz-adv-x="574" unicode="Y" d="M254 0v305l-260 403h79l214 -336l219 336h74l-260 -403v-305h-66z"/>
<glyph glyph-name="Z" d="M23 0v52l414 596h-408v60h493v-54l-417 -594h428v-60h-510z" unicode="Z"/>
<glyph glyph-name="bracketleft" horiz-adv-x="260" unicode="[" d="M224 732v-48h-90v-792h90v-48h-150v888h150z"/>
<glyph glyph-name="backslash" horiz-adv-x="370" unicode="\" d="M57 744l304 -762l-53 -18l-303 762z"/>
<glyph glyph-name="bracketright" horiz-adv-x="260" unicode="]" d="M36 -156v48h90v792h-90v48h150v-888h-150z"/>
<glyph glyph-name="asciicircum" horiz-adv-x="666" unicode="^" d="M82 256l228 452h46l228 -452h-56l-195 398l-194 -398h-57z"/>
<glyph glyph-name="underscore" horiz-adv-x="500" unicode="_" d="M0 -125v50h500v-50h-500z"/>
<glyph glyph-name="grave" horiz-adv-x="240" unicode="`" d="M74 708l104 -144h-50l-134 144h80z"/>
<glyph glyph-name="a" horiz-adv-x="519" unicode="a" d="M385 232h-66q-85 0 -143 -24t-57 -80q0 -40 32 -63t73 -23q88 0 124 46t37 113v31zM439 307v-113q0 -126 9 -194h-56q-6 34 -6 75h-2q-50 -87 -162 -87q-67 0 -115 34t-48 103q0 155 256 155h70v28q1 56 -35 84t-95 28q-80 0 -141 -52l-35 41q33 29 81 47t95 18 q87 0 135 -41t49 -126z"/>
<glyph glyph-name="b" horiz-adv-x="611" unicode="b" d="M121 231q0 -77 56 -133t137 -56q83 0 133 54t50 135t-50 135t-133 54q-81 0 -137 -56t-56 -133zM67 0v756h60v-375h2q25 45 77 69t108 24q106 0 174 -68t69 -175q-1 -107 -69 -175t-174 -68q-56 0 -108 24t-77 69h-2v-81h-60z"/>
<glyph glyph-name="c" horiz-adv-x="481" unicode="c" d="M421 106l46 -38q-67 -80 -170 -80q-107 0 -175 68t-68 175t68 175t175 68q101 0 172 -80l-48 -36q-57 62 -124 62q-83 0 -133 -54t-50 -135t50 -135t133 -54q72 0 124 64z"/>
<glyph glyph-name="d" horiz-adv-x="611" unicode="d" d="M490 231q0 77 -56 133t-137 56q-83 0 -133 -54t-50 -135t50 -135t133 -54q81 0 137 56t56 133zM484 0v81h-2q-26 -45 -78 -69t-107 -24q-107 0 -175 68t-68 175t68 175t175 68q55 0 107 -24t78 -69h2v375h60v-756h-60z"/>
<glyph glyph-name="e" d="M114 270h328q0 62 -47 106t-113 44q-44 0 -80 -20t-54 -46q-18 -28 -26 -50t-8 -34zM444 124l44 -37q-66 -99 -200 -99q-106 0 -170 68t-64 176q0 104 65 173t166 69t159 -64t58 -152v-42h-388q0 -18 4 -38t18 -44q12 -24 30 -45q18 -19 51 -33q32 -14 72 -14q45 0 89 22 t66 60z" unicode="e"/>
<glyph glyph-name="f" horiz-adv-x="296" unicode="f" d="M114 0v408h-96v54h96v151q0 81 42 118t96 37q42 0 69 -12l-12 -52q-20 10 -54 10q-81 0 -81 -123v-129h108v-54h-108v-408h-60z"/>
<glyph glyph-name="g" horiz-adv-x="611" unicode="g" d="M486 237q0 75 -54 129t-129 54t-129 -54t-54 -129t54 -129t129 -54t129 54t54 129zM544 462v-432q0 -66 -17 -116t-42 -78t-60 -47q-35 -17 -65 -23t-62 -6q-70 0 -132 26t-97 71l47 44q62 -87 182 -87q186 0 186 212v64h-2q-57 -90 -175 -90q-103 0 -175 70t-72 167 t72 167t175 70q118 0 175 -90h2v78h60z"/>
<glyph glyph-name="h" d="M80 0v756h60v-375h2q20 41 62 67t96 26q176 0 176 -199v-275h-60v272q0 148 -116 148q-70 0 -115 -49t-45 -140v-231h-60z" unicode="h"/>
<glyph glyph-name="i" horiz-adv-x="240" unicode="i" d="M75 645q0 19 13 32t32 13t32 -13t13 -32t-13 -32t-32 -13t-32 13t-13 32zM90 0v462h60v-462h-60z"/>
<glyph glyph-name="j" horiz-adv-x="240" unicode="j" d="M75 645q0 19 13 32t32 13t32 -13t13 -32t-13 -32t-32 -13t-32 13t-13 32zM150 462v-543q0 -79 -28 -119t-104 -40q-24 0 -48 9l9 53q21 -8 38 -8q45 0 59 26t14 74v548h60z"/>
<glyph glyph-name="k" horiz-adv-x="481" unicode="k" d="M80 0v756h60v-504l228 209h88l-238 -211l266 -250h-91l-253 244v-244h-60z"/>
<glyph glyph-name="l" horiz-adv-x="240" unicode="l" d="M90 0v756h60v-756h-60z"/>
<glyph glyph-name="m" horiz-adv-x="852" unicode="m" d="M80 0v332q0 18 -2 68t-3 62h60q2 -73 4 -81h3q20 41 62 67t96 26q48 0 86 -25t53 -75q21 48 63 74t94 26q176 0 176 -199v-275h-60v272q0 148 -116 148q-39 0 -68 -16t-44 -40q-16 -25 -22 -51t-6 -53v-260h-60v278q0 66 -24 104t-72 38q-70 0 -115 -49t-45 -140v-231 h-60z"/>
<glyph glyph-name="n" d="M80 0v332q0 18 -2 68t-3 62h60q2 -73 4 -81h3q20 41 62 67t96 26q176 0 176 -199v-275h-60v272q0 148 -116 148q-70 0 -115 -49t-45 -140v-231h-60z" unicode="n"/>
<glyph glyph-name="o" horiz-adv-x="594" unicode="o" d="M114 231q0 -81 50 -135t133 -54t133 54t50 135t-50 135t-133 54t-133 -54t-50 -135zM54 231q0 107 68 175t175 68t175 -68t68 -175t-68 -175t-175 -68t-175 68t-68 175z"/>
<glyph glyph-name="p" horiz-adv-x="611" unicode="p" d="M121 231q0 -77 56 -133t137 -56q83 0 133 54t50 135t-50 135t-133 54q-81 0 -137 -56t-56 -133zM67 -228v690h60v-81h2q25 45 77 69t108 24q106 0 174 -68t69 -175q-1 -107 -69 -175t-174 -68q-56 0 -108 24t-77 69h-2v-309h-60z"/>
<glyph glyph-name="q" horiz-adv-x="611" unicode="q" d="M490 231q0 77 -56 133t-137 56q-83 0 -133 -54t-50 -135t50 -135t133 -54q81 0 137 56t56 133zM484 -228v309h-2q-26 -45 -78 -69t-107 -24q-107 0 -175 68t-68 175t68 175t175 68q55 0 107 -24t78 -69h2v81h60v-690h-60z"/>
<glyph glyph-name="r" horiz-adv-x="333" unicode="r" d="M80 0v332q0 18 -2 68t-3 62h60q2 -73 4 -81q52 93 147 93q15 0 35 -5l-7 -59q-12 4 -23 4q-75 0 -113 -45t-38 -117v-252h-60z"/>
<glyph glyph-name="s" horiz-adv-x="426" unicode="s" d="M28 82l53 36q18 -36 55 -56t79 -20t74 24t32 61q0 35 -28 53q-29 18 -69 27t-80 19t-69 38q-28 28 -28 77q-1 63 47 98t111 35q119 0 163 -87l-54 -32q-36 65 -109 65q-36 0 -67 -20t-31 -54t28 -52q29 -18 69 -24q40 -8 80 -18t69 -40q28 -30 28 -81q-1 -67 -49 -105 t-118 -38q-133 0 -186 94z"/>
<glyph glyph-name="t" horiz-adv-x="333" unicode="t" d="M306 462v-54h-132v-301q0 -31 17 -48t47 -17q31 0 68 16l5 -54q-44 -16 -78 -16q-61 0 -90 33t-29 86v301h-100v54h100v133h60v-133h132z"/>
<glyph glyph-name="u" d="M471 462v-332q1 -18 3 -68t2 -62h-60q-2 73 -4 81h-3q-19 -41 -61 -67t-97 -26q-176 0 -176 199v275h60v-272q0 -148 116 -148q70 0 115 49t45 140v231h60z" unicode="u"/>
<glyph glyph-name="v" horiz-adv-x="463" unicode="v" d="M204 0l-189 462h68l154 -397l150 397h61l-182 -462h-62z"/>
<glyph glyph-name="w" horiz-adv-x="704" unicode="w" d="M160 0l-145 462h66l112 -387h2l129 387h57l137 -387h2l109 387h60l-136 -462h-62l-138 378h-2l-129 -378h-62z"/>
<glyph glyph-name="x" horiz-adv-x="481" unicode="x" d="M6 0l192 250l-165 212h77l128 -175l127 175h75l-163 -212l198 -250h-78l-161 209l-158 -209h-72z"/>
<glyph glyph-name="y" horiz-adv-x="463" unicode="y" d="M448 462l-238 -605q-38 -97 -127 -97q-25 0 -59 9l6 56q37 -11 54 -11q29 0 46 21t31 56l42 107l-188 464h67l153 -389l149 389h64z"/>
<glyph glyph-name="z" horiz-adv-x="426" unicode="z" d="M27 0v36l277 372h-263v54h346v-36l-276 -372h288v-54h-372z"/>
<glyph glyph-name="braceleft" horiz-adv-x="333" unicode="{" d="M274 732v-48h-23q-29 0 -42 -28t-13 -70v-141q0 -47 -16 -85t-30 -52t-24 -19v-2q11 -6 25 -20q13 -13 29 -51t16 -85v-142q0 -41 13 -69t42 -28h23v-48h-50q-42 0 -65 32t-23 89v146q0 153 -70 153v48q70 0 70 154v145q0 57 23 89t65 32h50z"/>
<glyph glyph-name="bar" horiz-adv-x="222" unicode="|" d="M87 750h48v-1000h-48v1000z"/>
<glyph glyph-name="braceright" horiz-adv-x="333" unicode="}" d="M59 -156v48h23q29 0 42 28t13 70v141q-1 47 15 85t30 52t25 19v2q-11 6 -25 20q-14 13 -30 51t-15 85v142q0 41 -13 69t-42 28h-23v48h50q42 0 65 -32t23 -89v-146q0 -153 70 -153v-48q-70 0 -70 -154v-145q0 -57 -23 -89t-65 -32h-50z"/>
<glyph glyph-name="asciitilde" horiz-adv-x="666" unicode="~" d="M529 364l34 -32q-43 -90 -125 -90q-32 0 -115 36q-72 32 -98 32q-27 0 -47 -18t-41 -50l-34 32q47 90 125 90q32 0 115 -36q72 -32 98 -32q27 0 47 18t41 50z"/>
<glyph glyph-name="uni00A0" horiz-adv-x="260" unicode=" "/>
<glyph glyph-name="exclamdown" horiz-adv-x="370" unicode="¡" d="M233 444q0 -20 -14 -34t-34 -14t-34 14t-14 34t14 34t34 14t34 -14t14 -34zM155 -222v522h60v-522h-60z"/>
<glyph glyph-name="cent" horiz-adv-x="520" unicode="¢" d="M304 418v-376q67 3 116 64l46 -38q-63 -77 -162 -80v-69h-48v72q-92 13 -148 81t-56 161t57 159t147 79v72h48v-71q95 -1 164 -78l-48 -36q-50 55 -116 60zM256 47v370q-68 -11 -106 -63t-38 -121q0 -67 40 -120t104 -66z"/>
<glyph glyph-name="sterling" horiz-adv-x="520" unicode="£" d="M58 0v54h105v288h-95v54h95v117q-1 37 11 71t36 66t66 50q42 20 97 20q79 0 143 -56l-40 -48q-50 50 -106 50q-69 0 -105 -46t-36 -100v-124h165v-54h-165v-288h245v-54h-416z"/>
<glyph glyph-name="currency" horiz-adv-x="520" unicode="¤" d="M71 354q0 -80 56 -136t133 -56t133 56t56 136q1 80 -55 136t-134 56t-134 -56t-55 -136zM14 142l57 55q-60 65 -60 157t60 157l-57 55l34 37l57 -56q69 53 155 53t155 -53l57 56l34 -37l-57 -55q60 -65 60 -157t-60 -157l57 -55l-34 -37l-57 56q-69 -53 -155 -53t-155 53 l-57 -56z"/>
<glyph glyph-name="yen" horiz-adv-x="520" unicode="¥" d="M227 0v180h-170v48h170v77l-9 16h-161v48h134l-191 339h68l192 -344l195 344h65l-191 -339h134v-48h-161l-9 -16v-77h170v-48h-170v-180h-66z"/>
<glyph glyph-name="brokenbar" horiz-adv-x="222" unicode="¦" d="M87 175h48v-350h-48v350zM87 675h48v-350h-48v350z"/>
<glyph glyph-name="section" horiz-adv-x="520" unicode="§" d="M64 -24l61 30q34 -90 130 -90q49 0 85 26t36 71q0 37 -30 65t-75 46q-44 19 -88 41q-45 21 -75 59t-30 89q0 84 106 129q-82 50 -82 127q0 73 56 115t130 42q54 0 98 -23t62 -71l-58 -34q-29 68 -105 68q-49 0 -83 -26t-34 -71q0 -35 30 -61t72 -46q42 -18 84 -40t72 -58 t30 -86q0 -83 -89 -132q75 -44 75 -123q0 -77 -55 -122t-131 -45q-66 0 -118 30t-74 90zM212 227l102 -52q30 15 53 41t23 55q0 59 -74 98l-75 41q-97 -32 -97 -95q0 -23 10 -41t23 -26q12 -8 35 -21z"/>
<glyph glyph-name="dieresis" horiz-adv-x="240" unicode="¨" d="M167 652q0 20 14 34t34 14t34 -14t14 -34t-14 -34t-34 -14t-34 14t-14 34zM-23 652q0 20 14 34t34 14t34 -14t14 -34t-14 -34t-34 -14t-34 14t-14 34z"/>
<glyph glyph-name="copyright" horiz-adv-x="800" unicode="©" d="M82 354q0 -132 93 -225t225 -93t225 93t93 225t-93 225t-225 93t-225 -93t-93 -225zM28 354q0 154 109 263t263 109t263 -109t109 -263t-109 -263t-263 -109t-263 109t-109 263zM594 431h-54q-10 43 -44 73t-86 31q-74 0 -118 -52t-43 -129q-1 -77 43 -129t118 -52 q52 0 87 30t43 74h54q-8 -72 -60 -112t-125 -40q-100 0 -157 64t-57 165t57 165t157 64q73 0 125 -40t60 -112z"/>
<glyph glyph-name="ordfeminine" horiz-adv-x="337" unicode="ª" d="M250 560h-38q-130 0 -130 -53q0 -17 22 -29t50 -12q48 0 72 28t24 59v7zM186 602h64v9q-2 35 -20 51t-63 16q-51 0 -94 -35l-26 38q48 39 131 39q60 0 90 -25t30 -84v-80q0 -69 5 -101h-49q-2 6 -4 46h-2q-32 -52 -104 -52q-46 0 -78 20t-32 61q0 97 152 97z"/>
<glyph glyph-name="guillemotleft" horiz-adv-x="481" unicode="«" d="M366 34l-137 203l137 203l42 -29l-116 -174l118 -176zM200 34l-137 203l137 203l42 -29l-116 -174l118 -176z"/>
<glyph glyph-name="logicalnot" horiz-adv-x="666" unicode="¬" d="M540 134v217h-462v48h510v-265h-48z"/>
<glyph glyph-name="uni00AD" horiz-adv-x="333" unicode="­" d="M43 210v54h247v-54h-247z"/>
<glyph glyph-name="registered" horiz-adv-x="800" unicode="®" d="M82 354q0 -132 93 -225t225 -93t225 93t93 225t-93 225t-225 93t-225 -93t-93 -225zM28 354q0 154 109 263t263 109t263 -109t109 -263t-109 -263t-263 -109t-263 109t-109 263zM319 522v-145h69q28 0 45 2q17 3 37 9t31 22q10 16 10 41q0 39 -28 55t-68 16h-96zM319 329 v-188h-54v429h165q71 0 103 -30t32 -89q0 -103 -108 -122l128 -188h-61l-128 188h-77z"/>
<glyph glyph-name="macron" horiz-adv-x="240" unicode="¯" d="M252 654v-48h-264v48h264z"/>
<glyph glyph-name="degree" horiz-adv-x="400" unicode="°" d="M200 480q40 0 68 28t28 68t-28 68t-68 28t-68 -28t-28 -68t28 -68t68 -28zM200 432q-60 0 -102 42t-42 103q0 59 42 101t102 42t102 -42t42 -101q0 -61 -42 -103t-102 -42z"/>
<glyph glyph-name="plusminus" horiz-adv-x="666" unicode="±" d="M82 48v48h502v-48h-502zM78 327v48h228v183h48v-183h234v-48h-234v-183h-48v183h-228z"/>
<glyph glyph-name="twosuperior" horiz-adv-x="338" unicode="²" d="M23 289v43l172 168q23 23 34 35t21 32t10 42q0 27 -22 45t-62 18q-66 0 -86 -59l-51 4q12 53 53 78t86 25q60 0 98 -30t38 -79q0 -30 -15 -60q-15 -31 -31 -47l-46 -46l-127 -121h220v-48h-292z"/>
<glyph glyph-name="threesuperior" horiz-adv-x="338" unicode="³" d="M127 488v48h23q37 0 66 18t29 57q0 25 -21 43t-56 18q-58 0 -88 -50l-39 25q46 73 127 73q56 0 94 -30t37 -78q0 -34 -23 -60t-59 -39v-2q43 -6 69 -36t25 -71q0 -55 -41 -88t-104 -33q-105 0 -139 89l47 18q23 -59 92 -59q34 0 62 23t29 53q0 81 -113 81h-17z"/>
<glyph glyph-name="acute" horiz-adv-x="240" unicode="´" d="M62 564l104 144h80l-134 -144h-50z"/>
<glyph glyph-name="mu" d="M471 462v-332q1 -18 3 -68t2 -62h-60q-2 73 -4 81h-3q-19 -41 -61 -67t-97 -26q-74 0 -117 38v-254h-59v690h60v-272q0 -148 116 -148q70 0 115 49t45 140v231h60z" unicode="µ"/>
<glyph glyph-name="paragraph" horiz-adv-x="600" unicode="¶" d="M267 -126v449q-87 -1 -147 55t-60 134q0 94 58 145t165 51h227v-834h-60v786h-123v-786h-60z"/>
<glyph glyph-name="periodcentered" horiz-adv-x="260" unicode="·" d="M82 318q0 20 14 34t34 14t34 -14t14 -34t-14 -34t-34 -14t-34 14t-14 34z"/>
<glyph glyph-name="cedilla" horiz-adv-x="240" unicode="¸" d="M171 0l-47 -64l2 -2q13 7 31 7q35 0 59 -19t24 -53q0 -41 -34 -63t-78 -22q-50 0 -95 21l14 32q33 -17 76 -17q23 0 43 11t20 32t-17 31t-39 11q-23 0 -44 -8l-16 15l63 88h38z"/>
<glyph glyph-name="onesuperior" horiz-adv-x="338" unicode="¹" d="M177 289v371l-85 -66l-25 34l110 86h54v-425h-54z"/>
<glyph glyph-name="ordmasculine" horiz-adv-x="386" unicode="º" d="M82 572q0 -42 31 -74t79 -32t80 31t32 75q0 46 -31 76t-81 30q-46 0 -78 -32t-32 -74zM34 572q0 66 44 107t114 41t115 -40t45 -108q0 -64 -46 -106t-114 -42q-70 0 -114 41t-44 107z"/>
<glyph glyph-name="guillemotright" horiz-adv-x="481" unicode="»" d="M281 440l137 -203l-137 -203l-42 29l116 174l-118 176zM115 440l137 -203l-137 -203l-42 29l116 174l-118 176z"/>
<glyph glyph-name="onequarter" horiz-adv-x="778" unicode="¼" d="M115 -6l456 748l46 -28l-457 -748zM146 289v371l-85 -66l-25 34l110 86h54v-425h-54zM624 150v202h-2l-134 -202h136zM624 0v102h-190v45l185 277h59v-274h64v-48h-64v-102h-54z"/>
<glyph glyph-name="onehalf" horiz-adv-x="778" unicode="½" d="M458 0v43l172 168q23 23 34 35t21 32t10 42q-1 28 -23 46t-61 17q-66 0 -86 -59l-51 4q12 53 53 78t86 25q59 1 97 -29t39 -80q0 -30 -15 -60q-14 -30 -30 -46l-47 -47l-127 -121h220v-48h-292zM106 -6l456 748l46 -28l-457 -748zM138 289v371l-85 -66l-25 34l110 86h54 v-425h-54z"/>
<glyph glyph-name="threequarters" horiz-adv-x="778" unicode="¾" d="M166 -6l456 748l46 -28l-457 -748zM121 488v48h23q95 7 95 75q0 25 -21 43t-56 18q-58 0 -88 -50l-39 25q46 73 127 73q56 0 94 -30t37 -78q0 -34 -23 -60t-59 -39v-2q43 -6 69 -36t25 -71q0 -55 -41 -88t-104 -33q-105 0 -140 89l48 18q23 -59 92 -59q34 0 62 23t29 53 q0 81 -113 81h-17zM638 150v202h-2l-134 -202h136zM640 0v102h-190v45l185 277h59v-274h64v-48h-64v-102h-54z"/>
<glyph glyph-name="questiondown" horiz-adv-x="463" unicode="¿" d="M276 444q0 -20 -14 -34t-34 -14t-34 14t-14 34t14 34t34 14t34 -14t14 -34zM259 300v-84q0 -37 -16 -67t-39 -52l-46 -44t-39 -52t-16 -66q-1 -53 31 -87t86 -34q52 0 86 32t45 84l65 -8q-12 -74 -66 -118t-129 -44q-81 0 -133 46t-51 126q1 46 17 82t40 58q24 23 48 44 q24 22 40 52t17 68v64h60z"/>
<glyph glyph-name="Agrave" horiz-adv-x="685" unicode="À" d="M297 896l104 -144h-50l-134 144h80zM505 248l-160 388l-165 -388h325zM5 0l309 708h68l298 -708h-74l-77 188h-375l-80 -188h-69z"/>
<glyph glyph-name="Aacute" horiz-adv-x="685" unicode="Á" d="M285 752l104 144h80l-134 -144h-50zM505 248l-160 388l-165 -388h325zM5 0l309 708h68l298 -708h-74l-77 188h-375l-80 -188h-69z"/>
<glyph glyph-name="Acircumflex" horiz-adv-x="685" unicode="Â" d="M200 752l108 144h70l108 -144h-65l-81 108l-81 -108h-59zM505 248l-160 388l-165 -388h325zM5 0l309 708h68l298 -708h-74l-77 188h-375l-80 -188h-69z"/>
<glyph glyph-name="Atilde" horiz-adv-x="685" unicode="Ã" d="M223 769h-36q5 40 27 68q26 34 63 34q27 0 75 -25q46 -23 63 -23q38 0 48 48h36q-5 -42 -24 -69q-23 -33 -60 -33q-23 0 -75 24t-66 24q-39 0 -51 -48zM505 248l-160 388l-165 -388h325zM5 0l309 708h68l298 -708h-74l-77 188h-375l-80 -188h-69z"/>
<glyph glyph-name="Adieresis" horiz-adv-x="685" unicode="Ä" d="M390 840q0 20 14 34t34 14t34 -14t14 -34t-14 -34t-34 -14t-34 14t-14 34zM200 840q0 20 14 34t34 14t34 -14t14 -34t-14 -34t-34 -14t-34 14t-14 34zM505 248l-160 388l-165 -388h325zM5 0l309 708h68l298 -708h-74l-77 188h-375l-80 -188h-69z"/>
<glyph glyph-name="Aring" horiz-adv-x="685" unicode="Å" d="M400 837q0 25 -16 42t-41 17t-41 -18t-16 -42q0 -26 16 -42t41 -16t41 17t16 42zM250 837q0 39 28 67t66 28t65 -29t27 -67t-27 -66t-65 -28t-66 28t-28 67zM505 248l-160 388l-165 -388h325zM5 0l309 708h68l298 -708h-74l-77 188h-375l-80 -188h-69z"/>
<glyph glyph-name="AE" horiz-adv-x="926" unicode="Æ" d="M500 248v400h-12l-261 -400h273zM-5 0l461 708h403v-60h-293v-252h276v-60h-276v-276h301v-60h-367v188h-312l-123 -188h-70z"/>
<glyph glyph-name="Ccedilla" horiz-adv-x="704" unicode="Ç" d="M626 152l54 -41q-94 -129 -263 -129q-18 0 -27 1l-34 -47l2 -2q13 7 31 7q35 0 59 -19t24 -53q0 -41 -34 -63t-78 -22q-50 0 -95 21l14 32q33 -17 76 -17q23 0 43 11t20 32t-17 31t-39 11q-23 0 -44 -8l-16 15l54 75q-137 19 -221 120t-84 247q1 164 103 268t263 104 q157 0 244 -111l-54 -45q-32 48 -83 72t-107 24q-136 0 -218 -88t-82 -224t82 -224t218 -88q58 0 116 28t93 82z"/>
<glyph glyph-name="Egrave" horiz-adv-x="593" unicode="È" d="M251 896l104 -144h-50l-134 144h80zM97 0v708h433v-60h-367v-252h344v-60h-344v-276h383v-60h-449z"/>
<glyph glyph-name="Eacute" horiz-adv-x="593" unicode="É" d="M239 752l104 144h80l-134 -144h-50zM97 0v708h433v-60h-367v-252h344v-60h-344v-276h383v-60h-449z"/>
<glyph glyph-name="Ecircumflex" horiz-adv-x="593" unicode="Ê" d="M154 752l108 144h70l108 -144h-65l-81 108l-81 -108h-59zM97 0v708h433v-60h-367v-252h344v-60h-344v-276h383v-60h-449z"/>
<glyph glyph-name="Edieresis" horiz-adv-x="593" unicode="Ë" d="M344 840q0 20 14 34t34 14t34 -14t14 -34t-14 -34t-34 -14t-34 14t-14 34zM154 840q0 20 14 34t34 14t34 -14t14 -34t-14 -34t-34 -14t-34 14t-14 34zM97 0v708h433v-60h-367v-252h344v-60h-344v-276h383v-60h-449z"/>
<glyph glyph-name="Igrave" horiz-adv-x="260" unicode="Ì" d="M84 896l104 -144h-50l-134 144h80zM97 0v708h66v-708h-66z"/>
<glyph glyph-name="Iacute" horiz-adv-x="260" unicode="Í" d="M72 752l104 144h80l-134 -144h-50zM97 0v708h66v-708h-66z"/>
<glyph glyph-name="Icircumflex" horiz-adv-x="260" unicode="Î" d="M-13 752l108 144h70l108 -144h-65l-81 108l-81 -108h-59zM97 0v708h66v-708h-66z"/>
<glyph glyph-name="Idieresis" horiz-adv-x="260" unicode="Ï" d="M177 840q0 20 14 34t34 14t34 -14t14 -34t-14 -34t-34 -14t-34 14t-14 34zM-13 840q0 20 14 34t34 14t34 -14t14 -34t-14 -34t-34 -14t-34 14t-14 34zM97 0v708h66v-708h-66z"/>
<glyph glyph-name="Eth" horiz-adv-x="741" unicode="Ð" d="M88 0v342h-78v54h78v312h219q75 0 137 -18t100 -43q39 -27 68 -63q30 -36 44 -68t22 -70q8 -36 10 -56t2 -36t-2 -36t-10 -56t-22 -70q-14 -32 -44 -68q-29 -36 -68 -63q-38 -25 -100 -43t-137 -18h-219zM154 648v-252h258v-54h-258v-282h136q150 0 242 74t92 220 t-92 220t-242 74h-136z"/>
<glyph glyph-name="Ntilde" horiz-adv-x="778" unicode="Ñ" d="M269 769h-36q5 40 27 68q26 34 63 34q27 0 75 -25q46 -23 63 -23q38 0 48 48h36q-5 -42 -24 -69q-23 -33 -60 -33q-23 0 -75 24t-66 24q-39 0 -51 -48zM97 0v708h85l431 -620h2v620h66v-708h-85l-431 620h-2v-620h-66z"/>
<glyph glyph-name="Ograve" horiz-adv-x="834" unicode="Ò" d="M371 896l104 -144h-50l-134 144h80zM117 354q0 -136 82 -224t218 -88t218 88t82 224t-82 224t-218 88t-218 -88t-82 -224zM51 354q1 164 103 268t263 104t263 -104t103 -268q-1 -164 -103 -268t-263 -104t-263 104t-103 268z"/>
<glyph glyph-name="Oacute" horiz-adv-x="834" unicode="Ó" d="M359 752l104 144h80l-134 -144h-50zM117 354q0 -136 82 -224t218 -88t218 88t82 224t-82 224t-218 88t-218 -88t-82 -224zM51 354q1 164 103 268t263 104t263 -104t103 -268q-1 -164 -103 -268t-263 -104t-263 104t-103 268z"/>
<glyph glyph-name="Ocircumflex" horiz-adv-x="834" unicode="Ô" d="M274 752l108 144h70l108 -144h-65l-81 108l-81 -108h-59zM117 354q0 -136 82 -224t218 -88t218 88t82 224t-82 224t-218 88t-218 -88t-82 -224zM51 354q1 164 103 268t263 104t263 -104t103 -268q-1 -164 -103 -268t-263 -104t-263 104t-103 268z"/>
<glyph glyph-name="Otilde" horiz-adv-x="834" unicode="Õ" d="M297 769h-36q5 40 27 68q26 34 63 34q27 0 75 -25q46 -23 63 -23q38 0 48 48h36q-5 -42 -24 -69q-23 -33 -60 -33q-23 0 -75 24t-66 24q-39 0 -51 -48zM117 354q0 -136 82 -224t218 -88t218 88t82 224t-82 224t-218 88t-218 -88t-82 -224zM51 354q1 164 103 268t263 104 t263 -104t103 -268q-1 -164 -103 -268t-263 -104t-263 104t-103 268z"/>
<glyph glyph-name="Odieresis" horiz-adv-x="834" unicode="Ö" d="M464 840q0 20 14 34t34 14t34 -14t14 -34t-14 -34t-34 -14t-34 14t-14 34zM274 840q0 20 14 34t34 14t34 -14t14 -34t-14 -34t-34 -14t-34 14t-14 34zM117 354q0 -136 82 -224t218 -88t218 88t82 224t-82 224t-218 88t-218 -88t-82 -224zM51 354q1 164 103 268t263 104 t263 -104t103 -268q-1 -164 -103 -268t-263 -104t-263 104t-103 268z"/>
<glyph glyph-name="multiply" horiz-adv-x="666" unicode="×" d="M136 535l198 -198l199 198l33 -34l-199 -198l198 -198l-34 -34l-197 199l-199 -199l-35 34l200 198l-198 198z"/>
<glyph glyph-name="Oslash" horiz-adv-x="834" unicode="Ø" d="M642 569l-422 -458q78 -69 197 -69q136 0 218 88t82 224q0 131 -75 215zM188 144l421 457q-79 65 -192 65q-136 0 -218 -88t-82 -224q0 -127 71 -210zM68 15l76 82q-93 102 -93 257q1 164 103 268t263 104q137 0 235 -79l74 81l34 -31l-75 -81q98 -103 98 -262 q-1 -164 -103 -268t-263 -104q-142 0 -239 83l-75 -81z"/>
<glyph glyph-name="Ugrave" horiz-adv-x="684" unicode="Ù" d="M296 896l104 -144h-50l-134 144h80zM600 708v-437q0 -59 -14 -109t-42 -92t-80 -64q-52 -24 -122 -24t-122 24t-80 64q-28 42 -42 92t-14 109v437h66v-420q0 -34 4 -64t16 -66q12 -34 33 -58q20 -24 56 -42q36 -16 83 -16t83 16t56 42q21 24 33 58t16 66q4 30 4 64v420 h66z"/>
<glyph glyph-name="Uacute" horiz-adv-x="684" unicode="Ú" d="M284 752l104 144h80l-134 -144h-50zM600 708v-437q0 -59 -14 -109t-42 -92t-80 -64q-52 -24 -122 -24t-122 24t-80 64q-28 42 -42 92t-14 109v437h66v-420q0 -34 4 -64t16 -66q12 -34 33 -58q20 -24 56 -42q36 -16 83 -16t83 16t56 42q21 24 33 58t16 66q4 30 4 64v420 h66z"/>
<glyph glyph-name="Ucircumflex" horiz-adv-x="684" unicode="Û" d="M199 752l108 144h70l108 -144h-65l-81 108l-81 -108h-59zM600 708v-437q0 -59 -14 -109t-42 -92t-80 -64q-52 -24 -122 -24t-122 24t-80 64q-28 42 -42 92t-14 109v437h66v-420q0 -34 4 -64t16 -66q12 -34 33 -58q20 -24 56 -42q36 -16 83 -16t83 16t56 42q21 24 33 58 t16 66q4 30 4 64v420h66z"/>
<glyph glyph-name="Udieresis" horiz-adv-x="684" unicode="Ü" d="M389 840q0 20 14 34t34 14t34 -14t14 -34t-14 -34t-34 -14t-34 14t-14 34zM199 840q0 20 14 34t34 14t34 -14t14 -34t-14 -34t-34 -14t-34 14t-14 34zM600 708v-437q0 -59 -14 -109t-42 -92t-80 -64q-52 -24 -122 -24t-122 24t-80 64q-28 42 -42 92t-14 109v437h66v-420 q0 -34 4 -64t16 -66q12 -34 33 -58q20 -24 56 -42q36 -16 83 -16t83 16t56 42q21 24 33 58t16 66q4 30 4 64v420h66z"/>
<glyph glyph-name="Yacute" horiz-adv-x="574" unicode="Ý" d="M229 752l104 144h80l-134 -144h-50zM254 0v305l-260 403h79l214 -336l219 336h74l-260 -403v-305h-66z"/>
<glyph glyph-name="Thorn" horiz-adv-x="574" unicode="Þ" d="M163 492v-252h150q64 0 107 30t43 95q0 63 -45 95t-109 32h-146zM97 0v708h65v-156h139q41 0 79 -9t72 -29q35 -20 56 -58t21 -91q1 -91 -61 -138t-152 -47h-153v-180h-66z"/>
<glyph glyph-name="germandbls" horiz-adv-x="593" unicode="ß" d="M266 404v54h15q59 0 97 35t38 94q0 61 -36 94t-94 33q-78 0 -112 -52t-34 -137v-525h-60v534q0 106 56 170t155 64q81 0 133 -48t52 -131q0 -58 -27 -99t-72 -55v-2q159 -30 159 -212q0 -107 -68 -167t-179 -60q-27 0 -47 5v58q22 -9 53 -9q81 0 131 47t50 125 q0 88 -54 136t-135 48h-21z"/>
<glyph glyph-name="agrave" horiz-adv-x="519" unicode="à" d="M214 708l104 -144h-50l-134 144h80zM385 232h-66q-85 0 -143 -24t-57 -80q0 -40 32 -63t73 -23q88 0 124 46t37 113v31zM439 307v-113q0 -126 9 -194h-56q-6 34 -6 75h-2q-50 -87 -162 -87q-67 0 -115 34t-48 103q0 155 256 155h70v28q1 56 -35 84t-95 28q-80 0 -141 -52 l-35 41q33 29 81 47t95 18q87 0 135 -41t49 -126z"/>
<glyph glyph-name="aacute" horiz-adv-x="519" unicode="á" d="M202 564l104 144h80l-134 -144h-50zM385 232h-66q-85 0 -143 -24t-57 -80q0 -40 32 -63t73 -23q88 0 124 46t37 113v31zM439 307v-113q0 -126 9 -194h-56q-6 34 -6 75h-2q-50 -87 -162 -87q-67 0 -115 34t-48 103q0 155 256 155h70v28q1 56 -35 84t-95 28q-80 0 -141 -52 l-35 41q33 29 81 47t95 18q87 0 135 -41t49 -126z"/>
<glyph glyph-name="acircumflex" horiz-adv-x="519" unicode="â" d="M117 564l108 144h70l108 -144h-65l-81 108l-81 -108h-59zM385 232h-66q-85 0 -143 -24t-57 -80q0 -40 32 -63t73 -23q88 0 124 46t37 113v31zM439 307v-113q0 -126 9 -194h-56q-6 34 -6 75h-2q-50 -87 -162 -87q-67 0 -115 34t-48 103q0 155 256 155h70v28q1 56 -35 84 t-95 28q-80 0 -141 -52l-35 41q33 29 81 47t95 18q87 0 135 -41t49 -126z"/>
<glyph glyph-name="atilde" horiz-adv-x="519" unicode="ã" d="M140 581h-36q5 40 27 68q26 34 63 34q27 0 75 -25q46 -23 63 -23q38 0 48 48h36q-5 -42 -26 -72t-58 -30q-23 0 -75 24t-66 24q-39 0 -51 -48zM385 232h-66q-85 0 -143 -24t-57 -80q0 -40 32 -63t73 -23q88 0 124 46t37 113v31zM439 307v-113q0 -126 9 -194h-56 q-6 34 -6 75h-2q-50 -87 -162 -87q-67 0 -115 34t-48 103q0 155 256 155h70v28q1 56 -35 84t-95 28q-80 0 -141 -52l-35 41q33 29 81 47t95 18q87 0 135 -41t49 -126z"/>
<glyph glyph-name="adieresis" horiz-adv-x="519" unicode="ä" d="M307 652q0 20 14 34t34 14t34 -14t14 -34t-14 -34t-34 -14t-34 14t-14 34zM117 652q0 20 14 34t34 14t34 -14t14 -34t-14 -34t-34 -14t-34 14t-14 34zM385 232h-66q-85 0 -143 -24t-57 -80q0 -40 32 -63t73 -23q88 0 124 46t37 113v31zM439 307v-113q0 -126 9 -194h-56 q-6 34 -6 75h-2q-50 -87 -162 -87q-67 0 -115 34t-48 103q0 155 256 155h70v28q1 56 -35 84t-95 28q-80 0 -141 -52l-35 41q33 29 81 47t95 18q87 0 135 -41t49 -126z"/>
<glyph glyph-name="aring" horiz-adv-x="519" unicode="å" d="M317 649q0 25 -16 42t-41 17q-24 0 -40 -18t-17 -42q1 -26 17 -42t40 -16q25 0 41 17t16 42zM167 649q-1 39 27 67t67 28q38 0 65 -29t27 -67t-27 -66t-65 -28q-39 0 -67 28t-27 67zM385 232h-66q-85 0 -143 -24t-57 -80q0 -40 32 -63t73 -23q88 0 124 46t37 113v31z M439 307v-113q0 -126 9 -194h-56q-6 34 -6 75h-2q-50 -87 -162 -87q-67 0 -115 34t-48 103q0 155 256 155h70v28q1 56 -35 84t-95 28q-80 0 -141 -52l-35 41q33 29 81 47t95 18q87 0 135 -41t49 -126z"/>
<glyph glyph-name="ae" horiz-adv-x="852" unicode="æ" d="M452 270h296q-2 66 -38 108t-109 42q-67 0 -108 -44t-41 -106zM392 216h-117q-51 0 -85 -10t-49 -24q-15 -15 -21 -28t-6 -26q0 -40 32 -63t73 -23q89 0 131 48t42 126zM392 270v9q0 141 -142 141q-80 0 -141 -52l-35 41q32 29 80 47t96 18q67 0 111 -22t69 -74 q25 44 72 70t97 26q91 0 150 -56t59 -167v-35h-356v-10q0 -68 40 -114q42 -50 120 -50q86 0 133 74l47 -34q-38 -50 -82 -72t-108 -22q-135 0 -182 114q-54 -114 -203 -114q-67 0 -115 34t-48 103q0 27 9 49t31 45t69 37t114 14h115z"/>
<glyph glyph-name="ccedilla" horiz-adv-x="481" unicode="ç" d="M421 106l46 -38q-67 -80 -170 -80q-9 0 -14 1l-38 -53l2 -2q13 7 31 7q35 0 59 -19t24 -53q0 -41 -34 -63t-78 -22q-50 0 -95 21l14 32q33 -17 76 -17q23 0 43 11t20 32t-17 31t-39 11q-23 0 -44 -8l-16 15l57 81q-86 13 -140 79t-54 159q0 107 68 175t175 68 q101 0 172 -80l-48 -36q-57 62 -124 62q-83 0 -133 -54t-50 -135t50 -135t133 -54q72 0 124 64z"/>
<glyph glyph-name="egrave" d="M232 708l104 -144h-50l-134 144h80zM114 270h328q0 62 -47 106t-113 44q-44 0 -80 -20t-54 -46q-18 -28 -26 -50t-8 -34zM444 124l44 -37q-66 -99 -200 -99q-106 0 -170 68t-64 176q0 104 65 173t166 69t159 -64t58 -152v-42h-388q0 -18 4 -38t18 -44q12 -24 30 -45 q18 -19 51 -33q32 -14 72 -14q45 0 89 22t66 60z" unicode="è"/>
<glyph glyph-name="eacute" d="M220 564l104 144h80l-134 -144h-50zM114 270h328q0 62 -47 106t-113 44q-44 0 -80 -20t-54 -46q-18 -28 -26 -50t-8 -34zM444 124l44 -37q-66 -99 -200 -99q-106 0 -170 68t-64 176q0 104 65 173t166 69t159 -64t58 -152v-42h-388q0 -18 4 -38t18 -44q12 -24 30 -45 q18 -19 51 -33q32 -14 72 -14q45 0 89 22t66 60z" unicode="é"/>
<glyph glyph-name="ecircumflex" d="M135 564l108 144h70l108 -144h-65l-81 108l-81 -108h-59zM114 270h328q0 62 -47 106t-113 44q-44 0 -80 -20t-54 -46q-18 -28 -26 -50t-8 -34zM444 124l44 -37q-66 -99 -200 -99q-106 0 -170 68t-64 176q0 104 65 173t166 69t159 -64t58 -152v-42h-388q0 -18 4 -38 t18 -44q12 -24 30 -45q18 -19 51 -33q32 -14 72 -14q45 0 89 22t66 60z" unicode="ê"/>
<glyph glyph-name="edieresis" d="M325 652q0 20 14 34t34 14t34 -14t14 -34t-14 -34t-34 -14t-34 14t-14 34zM135 652q0 20 14 34t34 14t34 -14t14 -34t-14 -34t-34 -14t-34 14t-14 34zM114 270h328q0 62 -47 106t-113 44q-44 0 -80 -20t-54 -46q-18 -28 -26 -50t-8 -34zM444 124l44 -37q-66 -99 -200 -99 q-106 0 -170 68t-64 176q0 104 65 173t166 69t159 -64t58 -152v-42h-388q0 -18 4 -38t18 -44q12 -24 30 -45q18 -19 51 -33q32 -14 72 -14q45 0 89 22t66 60z" unicode="ë"/>
<glyph glyph-name="igrave" horiz-adv-x="240" unicode="ì" d="M74 708l104 -144h-50l-134 144h80zM90 0v462h60v-462h-60z"/>
<glyph glyph-name="iacute" horiz-adv-x="240" unicode="í" d="M62 564l104 144h80l-134 -144h-50zM90 0v462h60v-462h-60z"/>
<glyph glyph-name="icircumflex" horiz-adv-x="240" unicode="î" d="M-23 564l108 144h70l108 -144h-65l-81 108l-81 -108h-59zM90 0v462h60v-462h-60z"/>
<glyph glyph-name="idieresis" horiz-adv-x="240" unicode="ï" d="M167 652q0 20 14 34t34 14t34 -14t14 -34t-14 -34t-34 -14t-34 14t-14 34zM-23 652q0 20 14 34t34 14t34 -14t14 -34t-14 -34t-34 -14t-34 14t-14 34zM90 0v462h60v-462h-60z"/>
<glyph glyph-name="eth" horiz-adv-x="594" unicode="ð" d="M114 231q0 -81 50 -135t133 -54t133 54t50 135t-50 135t-133 54t-133 -54t-50 -135zM149 604l104 56q-56 51 -94 78l52 30q56 -41 95 -80l104 56l36 -30l-106 -57q200 -183 200 -401q0 -124 -68 -196t-175 -72t-175 68t-68 175t68 175t175 68q88 0 149 -55l2 2 q-71 126 -161 207l-107 -57z"/>
<glyph glyph-name="ntilde" d="M158 581h-36q5 40 27 68q26 34 63 34q27 0 75 -25q46 -23 63 -23q38 0 48 48h36q-5 -42 -26 -72t-58 -30q-23 0 -75 24t-66 24q-39 0 -51 -48zM80 0v332q0 18 -2 68t-3 62h60q2 -73 4 -81h3q20 41 62 67t96 26q176 0 176 -199v-275h-60v272q0 148 -116 148 q-70 0 -115 -49t-45 -140v-231h-60z" unicode="ñ"/>
<glyph glyph-name="ograve" horiz-adv-x="594" unicode="ò" d="M251 708l104 -144h-50l-134 144h80zM114 231q0 -81 50 -135t133 -54t133 54t50 135t-50 135t-133 54t-133 -54t-50 -135zM54 231q0 107 68 175t175 68t175 -68t68 -175t-68 -175t-175 -68t-175 68t-68 175z"/>
<glyph glyph-name="oacute" horiz-adv-x="594" unicode="ó" d="M239 564l104 144h80l-134 -144h-50zM114 231q0 -81 50 -135t133 -54t133 54t50 135t-50 135t-133 54t-133 -54t-50 -135zM54 231q0 107 68 175t175 68t175 -68t68 -175t-68 -175t-175 -68t-175 68t-68 175z"/>
<glyph glyph-name="ocircumflex" horiz-adv-x="594" unicode="ô" d="M154 564l108 144h70l108 -144h-65l-81 108l-81 -108h-59zM114 231q0 -81 50 -135t133 -54t133 54t50 135t-50 135t-133 54t-133 -54t-50 -135zM54 231q0 107 68 175t175 68t175 -68t68 -175t-68 -175t-175 -68t-175 68t-68 175z"/>
<glyph glyph-name="otilde" horiz-adv-x="594" unicode="õ" d="M177 581h-36q5 40 27 68q26 34 63 34q27 0 75 -25q46 -23 63 -23q38 0 48 48h36q-5 -42 -26 -72t-58 -30q-23 0 -75 24t-66 24q-39 0 -51 -48zM114 231q0 -81 50 -135t133 -54t133 54t50 135t-50 135t-133 54t-133 -54t-50 -135zM54 231q0 107 68 175t175 68t175 -68 t68 -175t-68 -175t-175 -68t-175 68t-68 175z"/>
<glyph glyph-name="odieresis" horiz-adv-x="594" unicode="ö" d="M344 652q0 20 14 34t34 14t34 -14t14 -34t-14 -34t-34 -14t-34 14t-14 34zM154 652q0 20 14 34t34 14t34 -14t14 -34t-14 -34t-34 -14t-34 14t-14 34zM114 231q0 -81 50 -135t133 -54t133 54t50 135t-50 135t-133 54t-133 -54t-50 -135zM54 231q0 107 68 175t175 68 t175 -68t68 -175t-68 -175t-175 -68t-175 68t-68 175z"/>
<glyph glyph-name="divide" horiz-adv-x="666" unicode="÷" d="M282 149q0 21 15 35t36 16q21 0 36 -15t15 -36t-15 -36t-36 -15t-36 15t-15 36zM282 457q0 21 15 36t36 15t36 -15t15 -36t-15 -36t-36 -15t-36 15t-15 36zM78 279v48h510v-48h-510z"/>
<glyph glyph-name="oslash" horiz-adv-x="594" unicode="ø" d="M443 349l-263 -266q46 -41 117 -41q83 0 133 54t50 135q0 72 -37 118zM150 115l263 265q-48 40 -116 40q-83 0 -133 -54t-50 -135q0 -69 36 -116zM39 2l70 71q-55 64 -55 158q0 107 68 175t175 68q91 0 157 -53l69 70l32 -29l-71 -71q56 -64 56 -160q0 -107 -68 -175 t-175 -68q-94 0 -158 54l-68 -69z"/>
<glyph glyph-name="ugrave" d="M232 708l104 -144h-50l-134 144h80zM471 462v-332q1 -18 3 -68t2 -62h-60q-2 73 -4 81h-3q-19 -41 -61 -67t-97 -26q-176 0 -176 199v275h60v-272q0 -148 116 -148q70 0 115 49t45 140v231h60z" unicode="ù"/>
<glyph glyph-name="uacute" d="M220 564l104 144h80l-134 -144h-50zM471 462v-332q1 -18 3 -68t2 -62h-60q-2 73 -4 81h-3q-19 -41 -61 -67t-97 -26q-176 0 -176 199v275h60v-272q0 -148 116 -148q70 0 115 49t45 140v231h60z" unicode="ú"/>
<glyph glyph-name="ucircumflex" d="M135 564l108 144h70l108 -144h-65l-81 108l-81 -108h-59zM471 462v-332q1 -18 3 -68t2 -62h-60q-2 73 -4 81h-3q-19 -41 -61 -67t-97 -26q-176 0 -176 199v275h60v-272q0 -148 116 -148q70 0 115 49t45 140v231h60z" unicode="û"/>
<glyph glyph-name="udieresis" d="M325 652q0 20 14 34t34 14t34 -14t14 -34t-14 -34t-34 -14t-34 14t-14 34zM135 652q0 20 14 34t34 14t34 -14t14 -34t-14 -34t-34 -14t-34 14t-14 34zM471 462v-332q1 -18 3 -68t2 -62h-60q-2 73 -4 81h-3q-19 -41 -61 -67t-97 -26q-176 0 -176 199v275h60v-272 q0 -148 116 -148q70 0 115 49t45 140v231h60z" unicode="ü"/>
<glyph glyph-name="yacute" horiz-adv-x="463" unicode="ý" d="M174 564l104 144h80l-134 -144h-50zM448 462l-238 -605q-38 -97 -127 -97q-25 0 -59 9l6 56q37 -11 54 -11q29 0 46 21t31 56l42 107l-188 464h67l153 -389l149 389h64z"/>
<glyph glyph-name="thorn" horiz-adv-x="611" unicode="þ" d="M121 231q0 -77 56 -133t137 -56q83 0 133 54t50 135t-50 135t-133 54q-81 0 -137 -56t-56 -133zM67 -228v984h60v-375h2q25 45 77 69t108 24q106 0 174 -68t69 -175q-1 -107 -69 -175t-174 -68q-56 0 -108 24t-77 69h-2v-309h-60z"/>
<glyph glyph-name="dotlessi" horiz-adv-x="240" unicode="ı" d="M90 0v462h60v-462h-60z"/>
<glyph glyph-name="Lslash" horiz-adv-x="500" unicode="Ł" d="M97 0v231l-72 -64v65l72 63v413h66v-358l216 189v-62l-216 -189v-228h330v-60h-396z"/>
<glyph glyph-name="lslash" horiz-adv-x="240" unicode="ł" d="M90 0v324l-84 -85v67l84 85v365h60v-305l84 86v-67l-84 -85v-385h-60z"/>
<glyph glyph-name="OE" horiz-adv-x="944" unicode="Œ" d="M515 60v588h-78q-43 0 -86 -10t-84 -34t-73 -58t-50 -82q-19 -50 -19 -110q0 -62 21 -114q22 -52 54 -84t74 -56q42 -22 80 -31q40 -9 77 -9h84zM581 336v-276h304v-60h-472q-147 0 -251 99t-103 255q0 112 56 194t142 122q86 38 188 38h432v-60h-296v-252h279v-60h-279z "/>
<glyph glyph-name="oe" horiz-adv-x="907" unicode="œ" d="M104 231q0 -77 48 -133t124 -56q77 0 124 54t47 135t-47 135t-124 54q-76 0 -124 -56t-48 -133zM863 216h-356v-10q-1 -68 39 -114q42 -50 121 -50q86 0 133 74l47 -34q-39 -50 -83 -72t-107 -22q-135 0 -182 114h-2q-28 -54 -80 -84t-119 -30q-98 0 -164 69t-66 174 t66 174t164 69q138 0 199 -115q19 47 65 81t116 34q91 0 150 -56t59 -167v-35zM507 270h296q-1 66 -37 108t-110 42q-67 0 -108 -44t-41 -106z"/>
<glyph glyph-name="Scaron" d="M417 896l-106 -144h-70l-109 144h62l83 -114l86 114h54zM53 89l63 42q53 -89 162 -89q68 0 114 38t45 101q0 46 -27 76q-28 30 -68 43t-88 30q-48 18 -88 36t-67 60t-27 106q0 90 66 142t161 52q125 0 193 -89l-57 -41q-50 70 -138 70q-67 0 -113 -35t-46 -99 q0 -43 20 -72q20 -28 52 -44t72 -28q38 -12 77 -24q39 -14 71 -34t53 -58q20 -38 20 -91q-1 -91 -65 -145t-155 -54q-154 0 -230 107z" unicode="Š"/>
<glyph glyph-name="scaron" horiz-adv-x="426" unicode="š" d="M352 708l-106 -144h-70l-109 144h62l83 -114l86 114h54zM28 82l53 36q18 -36 55 -56t79 -20t74 24t32 61q0 35 -28 53q-29 18 -69 27t-80 19t-69 38q-28 28 -28 77q-1 63 47 98t111 35q119 0 163 -87l-54 -32q-36 65 -109 65q-36 0 -67 -20t-31 -54t28 -52q29 -18 69 -24 q40 -8 80 -18t69 -40q28 -30 28 -81q-1 -67 -49 -105t-118 -38q-133 0 -186 94z"/>
<glyph glyph-name="Ydieresis" horiz-adv-x="574" unicode="Ÿ" d="M334 840q0 20 14 34t34 14t34 -14t14 -34t-14 -34t-34 -14t-34 14t-14 34zM144 840q0 20 14 34t34 14t34 -14t14 -34t-14 -34t-34 -14t-34 14t-14 34zM254 0v305l-260 403h79l214 -336l219 336h74l-260 -403v-305h-66z"/>
<glyph glyph-name="Zcaron" d="M417 896l-106 -144h-70l-109 144h62l83 -114l86 114h54zM23 0v52l414 596h-408v60h493v-54l-417 -594h428v-60h-510z" unicode="Ž"/>
<glyph glyph-name="zcaron" horiz-adv-x="426" unicode="ž" d="M352 708l-106 -144h-70l-109 144h62l83 -114l86 114h54zM27 0v36l277 372h-263v54h346v-36l-276 -372h288v-54h-372z"/>
<glyph glyph-name="florin" horiz-adv-x="520" unicode="ƒ" d="M395 419v-48h-117l-72 -391q-24 -124 -143 -124q-50 0 -79 24l30 47q21 -17 53 -17q37 0 57 27t30 84l64 350h-108v48h117l29 154q27 147 143 147q49 0 90 -30l-32 -45q-30 21 -58 21q-66 0 -83 -90l-29 -157h108z"/>
</font>
</defs>
</svg>
